<?xml version="1.0" encoding="UTF-8" standalone="no"?>
<!-- Created with Inkscape (http://www.inkscape.org/) -->

<svg
   width="85.125954mm"
   height="28.040552mm"
   viewBox="0 0 85.125954 28.040552"
   version="1.1"
   id="svg5"
   xml:space="preserve"
   inkscape:version="1.2.2 (b0a84865, 2022-12-01)"
   sodipodi:docname="aida.svg"
   xmlns:inkscape="http://www.inkscape.org/namespaces/inkscape"
   xmlns:sodipodi="http://sodipodi.sourceforge.net/DTD/sodipodi-0.dtd"
   xmlns:xlink="http://www.w3.org/1999/xlink"
   xmlns="http://www.w3.org/2000/svg"
   xmlns:svg="http://www.w3.org/2000/svg"><sodipodi:namedview
     id="namedview7"
     pagecolor="#ffffff"
     bordercolor="#000000"
     borderopacity="0.25"
     inkscape:showpageshadow="2"
     inkscape:pageopacity="0.0"
     inkscape:pagecheckerboard="0"
     inkscape:deskcolor="#d1d1d1"
     inkscape:document-units="mm"
     showgrid="false"
     inkscape:zoom="1.4389427"
     inkscape:cx="256.09081"
     inkscape:cy="83.742041"
     inkscape:window-width="1440"
     inkscape:window-height="768"
     inkscape:window-x="0"
     inkscape:window-y="25"
     inkscape:window-maximized="0"
     inkscape:current-layer="svg5"
     showguides="false" /><defs
     id="defs2"><linearGradient
       x1="-0.19431871"
       y1="0.57272881"
       x2="0.9181816"
       y2="-0.48068312"
       gradientUnits="userSpaceOnUse"
       gradientTransform="matrix(65.206779,0,0,-65.206779,156.90012,301.25955)"
       spreadMethod="pad"
       id="linearGradient11526"><stop
         style="stop-opacity:1;stop-color:#041dcf"
         offset="0"
         id="stop11522" /><stop
         style="stop-opacity:0.25761773;stop-color:#1064ff"
         offset="1"
         id="stop11524" /></linearGradient><inkscape:path-effect
       effect="fillet_chamfer"
       id="path-effect463"
       is_visible="true"
       lpeversion="1"
       nodesatellites_param="F,0,0,1,0,11.431807,0,1 @ F,0,0,1,0,10.652365,0,1 @ F,0,0,1,0,0,0,1 @ F,0,0,1,0,11.171993,0,1"
       unit="px"
       method="auto"
       mode="F"
       radius="0"
       chamfer_steps="1"
       flexible="false"
       use_knot_distance="true"
       apply_no_radius="true"
       apply_with_radius="true"
       only_selected="false"
       hide_knots="false" /><inkscape:path-effect
       effect="fillet_chamfer"
       id="path-effect457"
       is_visible="true"
       lpeversion="1"
       nodesatellites_param="F,0,0,1,0,11.431807,0,1 @ F,0,0,1,0,10.652365,0,1 @ F,0,0,1,0,0,0,1 @ F,0,0,1,0,11.171993,0,1"
       unit="px"
       method="auto"
       mode="F"
       radius="0"
       chamfer_steps="1"
       flexible="false"
       use_knot_distance="true"
       apply_no_radius="true"
       apply_with_radius="true"
       only_selected="false"
       hide_knots="false" /><clipPath
       clipPathUnits="userSpaceOnUse"
       id="clipPath49238"><path
         d="M 0,775.286 H 2740.829 V 0 H 0 Z"
         id="path49236" /></clipPath><clipPath
       clipPathUnits="userSpaceOnUse"
       id="clipPath49238-0"><path
         d="M 0,775.286 H 2740.829 V 0 H 0 Z"
         id="path49236-0" /></clipPath><clipPath
       clipPathUnits="userSpaceOnUse"
       id="clipPath49238-5"><path
         d="M 0,775.286 H 2740.829 V 0 H 0 Z"
         id="path49236-8" /></clipPath><clipPath
       clipPathUnits="userSpaceOnUse"
       id="clipPath49238-0-1"><path
         d="M 0,775.286 H 2740.829 V 0 H 0 Z"
         id="path49236-0-4" /></clipPath><linearGradient
       x1="0"
       y1="0"
       x2="1"
       y2="0"
       gradientUnits="userSpaceOnUse"
       gradientTransform="matrix(-63.921429,110.71191,110.71191,63.921429,276.75867,194.43347)"
       spreadMethod="pad"
       id="linearGradient359"><stop
         style="stop-opacity:1;stop-color:#10dbff"
         offset="0"
         id="stop355" /><stop
         style="stop-opacity:1;stop-color:#0952e4"
         offset="1"
         id="stop357" /></linearGradient><linearGradient
       x1="0"
       y1="0"
       x2="1"
       y2="0"
       gradientUnits="userSpaceOnUse"
       gradientTransform="matrix(-32.6049,56.471687,56.471687,32.6049,283.7366,198.4623)"
       spreadMethod="pad"
       id="linearGradient379"><stop
         style="stop-opacity:1;stop-color:#0737d9"
         offset="0"
         id="stop375" /><stop
         style="stop-color:#0c9aee;stop-opacity:0;"
         offset="1"
         id="stop377" /></linearGradient><clipPath
       clipPathUnits="userSpaceOnUse"
       id="clipPath389"><path
         d="M 0,500 H 500 V 0 H 0 Z"
         id="path387" /></clipPath><clipPath
       clipPathUnits="userSpaceOnUse"
       id="clipPath397"><path
         d="M 205.721,241.435 H 312.34 V 222.13 H 205.721 Z"
         id="path395" /></clipPath><linearGradient
       x1="0"
       y1="0"
       x2="1"
       y2="0"
       gradientUnits="userSpaceOnUse"
       gradientTransform="matrix(-75.818604,-13.043043,-13.043043,75.818604,295.30045,237.29799)"
       spreadMethod="pad"
       id="linearGradient413"><stop
         style="stop-opacity:1;stop-color:#000000"
         offset="0"
         id="stop403" /><stop
         style="stop-opacity:1;stop-color:#000000"
         offset="0.28627818"
         id="stop405" /><stop
         style="stop-opacity:1;stop-color:#d4f8ff"
         offset="0.507854"
         id="stop407" /><stop
         style="stop-opacity:1;stop-color:#000000"
         offset="0.66148399"
         id="stop409" /><stop
         style="stop-opacity:1;stop-color:#000000"
         offset="1"
         id="stop411" /></linearGradient><clipPath
       clipPathUnits="userSpaceOnUse"
       id="clipPath435"><path
         d="m 297.214,241.439 h 39.157 v -22.273 h -39.157 z"
         id="path433" /></clipPath><linearGradient
       x1="0"
       y1="0"
       x2="1"
       y2="0"
       gradientUnits="userSpaceOnUse"
       gradientTransform="matrix(17.632458,15.635229,15.635229,-17.632458,304.07883,215.35866)"
       spreadMethod="pad"
       id="linearGradient447"><stop
         style="stop-opacity:1;stop-color:#10dbff"
         offset="0"
         id="stop441" /><stop
         style="stop-opacity:1;stop-color:#10dbff"
         offset="0.51001529"
         id="stop443" /><stop
         style="stop-opacity:1;stop-color:#ffffff"
         offset="1"
         id="stop445" /></linearGradient><linearGradient
       x1="0.11812963"
       y1="0.37153137"
       x2="0.7259292"
       y2="-0.51642329"
       gradientUnits="userSpaceOnUse"
       gradientTransform="matrix(-63.920059,-110.70954,-110.70954,63.920059,316.36157,355.72653)"
       spreadMethod="pad"
       id="linearGradient479"><stop
         style="stop-color:#009bff;stop-opacity:1;"
         offset="0"
         id="stop475" /><stop
         style="stop-color:#001aa7;stop-opacity:1;"
         offset="1"
         id="stop477" /></linearGradient><linearGradient
       x1="0.035070699"
       y1="1.2298127"
       x2="0.64123058"
       y2="0.053613927"
       gradientUnits="userSpaceOnUse"
       gradientTransform="matrix(-32.603352,-56.469006,-56.469006,32.603352,309.38333,359.75555)"
       spreadMethod="pad"
       id="linearGradient499"><stop
         style="stop-opacity:1;stop-color:#10dbff"
         offset="0"
         id="stop495" /><stop
         style="stop-opacity:1;stop-color:#1050ff"
         offset="1"
         id="stop497" /></linearGradient><clipPath
       clipPathUnits="userSpaceOnUse"
       id="clipPath509"><path
         d="M 0,500 H 500 V 0 H 0 Z"
         id="path507" /></clipPath><clipPath
       clipPathUnits="userSpaceOnUse"
       id="clipPath517"><path
         d="m 257.866,363.042 h 70.029 V 280.36 h -70.029 z"
         id="path515" /></clipPath><linearGradient
       x1="0"
       y1="0"
       x2="1"
       y2="0"
       gradientUnits="userSpaceOnUse"
       gradientTransform="matrix(49.203426,-59.140591,-59.140591,-49.203426,269.96866,350.35394)"
       spreadMethod="pad"
       id="linearGradient533"><stop
         style="stop-opacity:1;stop-color:#000000"
         offset="0"
         id="stop523" /><stop
         style="stop-opacity:1;stop-color:#000000"
         offset="0.28627818"
         id="stop525" /><stop
         style="stop-opacity:1;stop-color:#d4f8ff"
         offset="0.507854"
         id="stop527" /><stop
         style="stop-opacity:1;stop-color:#000000"
         offset="0.66148399"
         id="stop529" /><stop
         style="stop-opacity:1;stop-color:#000000"
         offset="1"
         id="stop531" /></linearGradient><linearGradient
       x1="0.046678338"
       y1="-0.007779723"
       x2="0.78994751"
       y2="0.17893362"
       gradientUnits="userSpaceOnUse"
       gradientTransform="matrix(85.721474,0,0,-85.721474,207.15875,294.71313)"
       spreadMethod="pad"
       id="linearGradient565"><stop
         style="stop-opacity:1;stop-color:#ff8300"
         offset="0"
         id="stop561" /><stop
         style="stop-color:#ffa400;stop-opacity:1;"
         offset="1"
         id="stop563" /></linearGradient><linearGradient
       x1="0.062599756"
       y1="0.57904774"
       x2="0.74960101"
       y2="-0.38081518"
       gradientUnits="userSpaceOnUse"
       gradientTransform="matrix(127.83871,0,0,-127.83871,156.90012,309.3172)"
       spreadMethod="pad"
       id="linearGradient585"><stop
         style="stop-opacity:1;stop-color:#10dbff"
         offset="0"
         id="stop581" /><stop
         style="stop-opacity:1;stop-color:#041dcf"
         offset="1"
         id="stop583" /></linearGradient><linearGradient
       x1="-0.19431871"
       y1="0.57272881"
       x2="0.9181816"
       y2="-0.48068312"
       gradientUnits="userSpaceOnUse"
       gradientTransform="matrix(65.206779,0,0,-65.206779,156.90012,301.25955)"
       spreadMethod="pad"
       id="linearGradient605"><stop
         style="stop-opacity:1;stop-color:#041dcf"
         offset="0"
         id="stop601" /><stop
         style="stop-color:#1064ff;stop-opacity:1;"
         offset="1"
         id="stop603" /></linearGradient><clipPath
       clipPathUnits="userSpaceOnUse"
       id="clipPath615"><path
         d="M 0,500 H 500 V 0 H 0 Z"
         id="path613" /></clipPath><clipPath
       clipPathUnits="userSpaceOnUse"
       id="clipPath623"><path
         d="m 179.813,356.989 h 36.591 V 255.001 h -36.591 z"
         id="path621" /></clipPath><linearGradient
       x1="0"
       y1="0"
       x2="1"
       y2="0"
       gradientUnits="userSpaceOnUse"
       gradientTransform="matrix(26.614613,72.182022,72.182022,-26.614613,184.75015,271.82666)"
       spreadMethod="pad"
       id="linearGradient639"><stop
         style="stop-opacity:1;stop-color:#000000"
         offset="0"
         id="stop629" /><stop
         style="stop-opacity:1;stop-color:#000000"
         offset="0.28627818"
         id="stop631" /><stop
         style="stop-opacity:1;stop-color:#d4f8ff"
         offset="0.507854"
         id="stop633" /><stop
         style="stop-opacity:1;stop-color:#000000"
         offset="0.66148399"
         id="stop635" /><stop
         style="stop-opacity:1;stop-color:#000000"
         offset="1"
         id="stop637" /></linearGradient><clipPath
       clipPathUnits="userSpaceOnUse"
       id="clipPath661"><path
         d="M 177.026,294.713 161.269,267.42 c -5.826,-10.091 -5.826,-22.139 0,-32.23 v 0 c 1.147,-1.987 2.478,-3.809 3.957,-5.465 v 0 l 15.119,26.198 c 0.065,0.123 0.122,0.247 0.194,0.371 v 0 l 11.601,20.094 v 18.325 z"
         id="path659" /></clipPath><clipPath
       clipPathUnits="userSpaceOnUse"
       id="clipPath669"><path
         d="m 156.9,279.302 h 19.612 V 234.254 H 156.9 Z"
         id="path667" /></clipPath><linearGradient
       x1="0"
       y1="0"
       x2="1"
       y2="0"
       gradientUnits="userSpaceOnUse"
       gradientTransform="matrix(4.7248425,-23.087547,-23.087547,-4.7248425,161.30278,275.26001)"
       spreadMethod="pad"
       id="linearGradient681"><stop
         style="stop-opacity:1;stop-color:#10dbff"
         offset="0"
         id="stop675" /><stop
         style="stop-opacity:1;stop-color:#10dbff"
         offset="0.51001529"
         id="stop677" /><stop
         style="stop-opacity:1;stop-color:#ffffff"
         offset="1"
         id="stop679" /></linearGradient><clipPath
       clipPathUnits="userSpaceOnUse"
       id="clipPath723"><path
         d="M 177.026,294.713 161.269,267.42 c -5.825,-10.091 -5.825,-22.139 0,-32.23 1.147,-1.987 2.478,-3.809 3.957,-5.465 l 15.119,26.198 c 0.065,0.123 0.122,0.247 0.194,0.371 l 11.601,20.094 v 18.325 z"
         id="path721" /></clipPath><clipPath
       clipPathUnits="userSpaceOnUse"
       id="clipPath797"><path
         d="M 0,500 H 500 V 0 H 0 Z"
         id="path795" /></clipPath><clipPath
       clipPathUnits="userSpaceOnUse"
       id="clipPath805"><path
         d="m 245.803,387.473 h 38.868 v -26.419 h -38.868 z"
         id="path803" /></clipPath><linearGradient
       x1="-0.44744083"
       y1="-0.80539501"
       x2="1"
       y2="-3.5527137e-15"
       gradientUnits="userSpaceOnUse"
       gradientTransform="matrix(-22.356762,7.4522343,7.4522343,22.356762,284.53567,368.90421)"
       spreadMethod="pad"
       id="linearGradient817"><stop
         style="stop-opacity:1;stop-color:#009bff"
         offset="0"
         id="stop811" /><stop
         style="stop-opacity:1;stop-color:#10dbff"
         offset="0.51001529"
         id="stop813" /><stop
         style="stop-opacity:1;stop-color:#1067ff"
         offset="1"
         id="stop815" /></linearGradient><linearGradient
       inkscape:collect="always"
       xlink:href="#linearGradient605"
       id="linearGradient11518"
       x1="173.85686"
       y1="260.61182"
       x2="196.53108"
       y2="323.29944"
       gradientUnits="userSpaceOnUse" /><linearGradient
       inkscape:collect="always"
       xlink:href="#linearGradient605"
       id="linearGradient18918"
       gradientUnits="userSpaceOnUse"
       x1="173.85686"
       y1="260.61182"
       x2="196.53108"
       y2="323.29944" /><linearGradient
       inkscape:collect="always"
       xlink:href="#linearGradient605"
       id="linearGradient18920"
       gradientUnits="userSpaceOnUse"
       x1="173.85686"
       y1="260.61182"
       x2="196.53108"
       y2="323.29944" /><linearGradient
       inkscape:collect="always"
       xlink:href="#linearGradient605"
       id="linearGradient18922"
       gradientUnits="userSpaceOnUse"
       x1="173.85686"
       y1="260.61182"
       x2="196.53108"
       y2="323.29944" /></defs><g
     inkscape:label="Layer 1"
     inkscape:groupmode="layer"
     id="layer1"
     transform="translate(-55.159239,-63.335721)"><g
       aria-label="AIDA"
       id="text21600"
       style="font-weight:500;font-size:10.8278px;line-height:1.3;font-family:Inter;-inkscape-font-specification:'Inter Medium';opacity:1;fill:#678090;fill-opacity:1;stroke-width:7.6732;stroke-linecap:round;paint-order:stroke markers fill;stop-color:#000000"
       transform="translate(1.4709875)"><path
         d="m 92.749244,69.245003 q 0.411456,0 0.692979,0.173245 0.281523,0.162417 0.552218,0.649668 l 3.584002,6.507507 q 0.05414,0.108278 0.02166,0.184073 -0.02166,0.06497 -0.151589,0.06497 h -1.375131 q -0.184072,0 -0.249039,-0.140762 L 95.05557,75.286918 h -5.089066 l -0.747118,1.396786 q -0.07579,0.140762 -0.249039,0.140762 h -1.407614 q -0.140762,0 -0.173245,-0.06497 -0.02166,-0.07579 0.03248,-0.184073 l 3.551519,-6.507507 q 0.270695,-0.487251 0.530562,-0.649668 0.259867,-0.173245 0.606357,-0.173245 z m -2.100593,4.785888 h 3.724763 l -1.72162,-3.172546 q -0.04331,-0.07579 -0.119106,-0.07579 h -0.06497 q -0.07579,0 -0.119106,0.07579 z"
         style="font-weight:normal;font-family:Conthrax;-inkscape-font-specification:Conthrax;fill:#678090;fill-opacity:1"
         id="path33300" /><path
         d="m 99.91723,69.245003 q 0.23821,0 0.23821,0.238212 v 7.103036 q 0,0.238212 -0.23821,0.238212 h -1.169402 q -0.249039,0 -0.249039,-0.238212 v -7.103036 q 0,-0.238212 0.249039,-0.238212 z"
         style="font-weight:normal;font-family:Conthrax;-inkscape-font-specification:Conthrax;fill:#678090;fill-opacity:1"
         id="path33302" /><path
         d="m 106.98778,69.245003 q 0.87705,0 1.50506,0.184073 0.62801,0.173244 1.02864,0.552217 0.40063,0.368146 0.5847,0.952847 0.1949,0.573873 0.1949,1.364303 v 1.47258 q 0,0.79043 -0.1949,1.375131 -0.18407,0.573873 -0.5847,0.952846 -0.40063,0.368145 -1.02864,0.552218 -0.62801,0.173245 -1.50506,0.173245 h -5.06741 q -0.32484,0 -0.32484,-0.324834 v -6.929792 q 0,-0.324834 0.32484,-0.324834 z m -3.73559,5.933634 q 0,0.140762 0.14076,0.140762 h 3.55152 q 0.47642,0 0.80125,-0.08662 0.32484,-0.08662 0.51974,-0.281522 0.20573,-0.194901 0.29235,-0.519735 0.0866,-0.324834 0.0866,-0.801257 v -1.191058 q 0,-0.476423 -0.0866,-0.801257 -0.0866,-0.324834 -0.29235,-0.519735 -0.1949,-0.1949 -0.51974,-0.281522 -0.32483,-0.08662 -0.80125,-0.08662 h -3.55152 q -0.14076,0 -0.14076,0.151589 z"
         style="font-weight:normal;font-family:Conthrax;-inkscape-font-specification:Conthrax;fill:#678090;fill-opacity:1"
         id="path33304" /><path
         d="m 116.02897,69.245003 q 0.41145,0 0.69298,0.173245 0.28152,0.162417 0.55222,0.649668 l 3.584,6.507507 q 0.0541,0.108278 0.0216,0.184073 -0.0216,0.06497 -0.15159,0.06497 h -1.37513 q -0.18407,0 -0.24904,-0.140762 l -0.76877,-1.396786 h -5.08907 l -0.74711,1.396786 q -0.0758,0.140762 -0.24904,0.140762 h -1.40762 q -0.14076,0 -0.17324,-0.06497 -0.0217,-0.07579 0.0325,-0.184073 l 3.55152,-6.507507 q 0.27069,-0.487251 0.53056,-0.649668 0.25987,-0.173245 0.60636,-0.173245 z m -2.1006,4.785888 h 3.72477 l -1.72162,-3.172546 q -0.0433,-0.07579 -0.11911,-0.07579 h -0.065 q -0.0758,0 -0.11911,0.07579 z"
         style="font-weight:normal;font-family:Conthrax;-inkscape-font-specification:Conthrax;fill:#678090;fill-opacity:1"
         id="path33306" /></g><rect
       style="fill:#678090;fill-opacity:1;stroke-width:1.82413;stroke-linecap:round;paint-order:stroke markers fill;stop-color:#000000"
       id="rect568"
       width="73.368912"
       height="7.3536043"
       x="61.036331"
       y="81.926682" /><g
       aria-label="dikembangkan oleh BPS Provinsi jawa Timur"
       id="text725"
       style="font-size:3.67882px;line-height:1.3;font-family:Inter;-inkscape-font-specification:Inter;fill:#ffffff;stroke-width:2.60703;stroke-linecap:round;paint-order:stroke markers fill;stop-color:#000000"
       transform="matrix(0.88154897,0,0,0.88154897,11.575128,2.5281892)"><path
         d="m 59.92573,95.65039 q -0.24299,0 -0.433724,-0.124108 -0.189428,-0.125414 -0.297859,-0.356646 -0.107125,-0.23254 -0.107125,-0.557833 0,-0.325293 0.108431,-0.556526 0.109738,-0.231233 0.300472,-0.354034 0.190734,-0.122802 0.432418,-0.122802 0.186815,0 0.300472,0.06271 0.114963,0.0614 0.17767,0.143703 0.06401,0.0823 0.09929,0.145011 h 0.02352 v -0.99417 H 60.9199 V 95.6112 h -0.381469 v -0.312229 h -0.03266 q -0.03527,0.06401 -0.101899,0.146317 -0.06532,0.0823 -0.180283,0.143704 -0.114963,0.0614 -0.297859,0.0614 z m 0.08622,-0.333131 q 0.168526,0 0.284795,-0.08884 0.117576,-0.09014 0.177671,-0.249522 0.0614,-0.15938 0.0614,-0.371017 0,-0.209024 -0.06009,-0.365792 -0.06009,-0.156768 -0.176364,-0.244296 -0.116269,-0.08753 -0.287408,-0.08753 -0.176363,0 -0.293939,0.09145 -0.117576,0.09145 -0.177671,0.249522 -0.05879,0.158074 -0.05879,0.356647 0,0.201185 0.06009,0.361872 0.06009,0.160688 0.17767,0.254748 0.118882,0.09276 0.292633,0.09276 z"
         style="font-weight:500;-inkscape-font-specification:'Inter Medium'"
         id="path829" /><path
         d="m 61.476423,95.611198 v -2.006629 h 0.390614 v 2.006629 z m 0.197267,-2.316245 q -0.101899,0 -0.175058,-0.06793 -0.07185,-0.06924 -0.07185,-0.164606 0,-0.09667 0.07185,-0.164607 0.07316,-0.06924 0.175058,-0.06924 0.101899,0 0.173751,0.06924 0.07316,0.06793 0.07316,0.164607 0,0.09537 -0.07316,0.164606 -0.07185,0.06793 -0.173751,0.06793 z"
         style="font-weight:500;-inkscape-font-specification:'Inter Medium'"
         id="path831" /><path
         d="m 62.751466,94.930564 -0.0026,-0.476835 h 0.06793 l 0.799516,-0.84916 h 0.467691 l -0.911867,0.966736 h -0.0614 z m -0.35926,0.680634 v -2.675505 h 0.390613 v 2.675505 z m 1.267207,0 -0.71852,-0.953671 0.269119,-0.273037 0.928849,1.226708 z"
         style="font-weight:500;-inkscape-font-specification:'Inter Medium'"
         id="path833" /><path
         d="m 65.220551,95.651697 q -0.296552,0 -0.510802,-0.126721 -0.212943,-0.128027 -0.329213,-0.35926 -0.114963,-0.232539 -0.114963,-0.544768 0,-0.30831 0.114963,-0.543462 0.11627,-0.235152 0.323987,-0.367098 0.209024,-0.131947 0.488594,-0.131947 0.169832,0 0.329212,0.05618 0.159381,0.05617 0.286102,0.176363 0.12672,0.120189 0.199879,0.31223 0.07316,0.190734 0.07316,0.463772 v 0.138478 H 64.486357 V 94.43283 h 1.212338 q 0,-0.154155 -0.06271,-0.273037 -0.06271,-0.120189 -0.176364,-0.189428 -0.11235,-0.06924 -0.263892,-0.06924 -0.164607,0 -0.287408,0.081 -0.121495,0.07969 -0.188122,0.209024 -0.06532,0.128027 -0.06532,0.278263 v 0.228619 q 0,0.201186 0.07055,0.342277 0.07185,0.141091 0.199879,0.215556 0.128027,0.07316 0.299165,0.07316 0.111044,0 0.202492,-0.03135 0.09145,-0.03266 0.158074,-0.09667 0.06663,-0.06401 0.1019,-0.158074 l 0.369711,0.06663 q -0.04442,0.1633 -0.159381,0.286102 -0.113657,0.121495 -0.286102,0.189427 -0.171138,0.06663 -0.390613,0.06663 z"
         style="font-weight:500;-inkscape-font-specification:'Inter Medium'"
         id="path835" /><path
         d="m 66.516494,95.611198 v -2.006629 h 0.374936 v 0.3266 h 0.02482 q 0.06271,-0.165913 0.205105,-0.258667 0.142397,-0.09406 0.34097,-0.09406 0.201185,0 0.337051,0.09406 0.137172,0.09406 0.202492,0.258667 h 0.0209 q 0.07185,-0.160687 0.22862,-0.256054 0.156768,-0.09667 0.37363,-0.09667 0.273037,0 0.445482,0.171139 0.173751,0.171138 0.173751,0.516027 v 1.345591 h -0.390613 v -1.309011 q 0,-0.203799 -0.111044,-0.295247 -0.111044,-0.09145 -0.265199,-0.09145 -0.190734,0 -0.296553,0.117576 -0.105818,0.11627 -0.105818,0.299166 V 95.6112 h -0.389307 v -1.333833 q 0,-0.1633 -0.101899,-0.262586 -0.101899,-0.09929 -0.265199,-0.09929 -0.111044,0 -0.205105,0.05879 -0.09275,0.05748 -0.150236,0.160687 -0.05618,0.103206 -0.05618,0.239071 v 1.23716 z"
         style="font-weight:500;-inkscape-font-specification:'Inter Medium'"
         id="path837" /><path
         d="m 69.798166,95.611198 v -2.675505 h 0.390614 v 0.99417 h 0.02352 q 0.03397,-0.06271 0.09798,-0.145011 0.06401,-0.0823 0.17767,-0.143703 0.113657,-0.06271 0.300472,-0.06271 0.24299,0 0.433725,0.122802 0.190734,0.122801 0.299165,0.354034 0.109737,0.231233 0.109737,0.556526 0,0.325293 -0.108431,0.557833 -0.108431,0.231232 -0.297859,0.356646 -0.189428,0.124108 -0.432418,0.124108 -0.182896,0 -0.299165,-0.0614 -0.114963,-0.0614 -0.180283,-0.143704 -0.06532,-0.0823 -0.100593,-0.146317 h -0.03266 v 0.312229 z m 0.382775,-1.003314 q 0,0.211637 0.0614,0.371017 0.0614,0.159381 0.17767,0.249522 0.11627,0.08884 0.284795,0.08884 0.175058,0 0.292634,-0.09276 0.117576,-0.09406 0.17767,-0.254748 0.0614,-0.160687 0.0614,-0.361872 0,-0.198573 -0.06009,-0.356647 -0.05879,-0.158074 -0.177671,-0.249522 -0.117576,-0.09145 -0.29394,-0.09145 -0.169831,0 -0.287407,0.08753 -0.11627,0.08753 -0.176364,0.244296 -0.06009,0.156768 -0.06009,0.365792 z"
         style="font-weight:500;-inkscape-font-specification:'Inter Medium'"
         id="path839" /><path
         d="m 72.652646,95.655616 q -0.190735,0 -0.34489,-0.07055 -0.154155,-0.07185 -0.244296,-0.207717 -0.08884,-0.135866 -0.08884,-0.333132 0,-0.169832 0.06532,-0.279569 0.06532,-0.109738 0.176364,-0.173751 0.111044,-0.06401 0.248216,-0.09667 0.137172,-0.03266 0.279569,-0.04964 0.180284,-0.0209 0.292634,-0.03397 0.11235,-0.01437 0.1633,-0.04572 0.05095,-0.03135 0.05095,-0.101899 v -0.0091 q 0,-0.171139 -0.09667,-0.265199 -0.09537,-0.09406 -0.284795,-0.09406 -0.197266,0 -0.310923,0.08753 -0.11235,0.08622 -0.155462,0.19204 l -0.367098,-0.08361 q 0.06532,-0.182896 0.190734,-0.295246 0.126721,-0.113657 0.291327,-0.164607 0.164607,-0.05226 0.346196,-0.05226 0.120189,0 0.254748,0.02874 0.135866,0.02744 0.253441,0.101899 0.118883,0.07447 0.194654,0.212943 0.07577,0.137172 0.07577,0.356647 v 1.332527 h -0.381468 v -0.274343 h -0.01568 q -0.03789,0.07577 -0.113657,0.148929 -0.07577,0.07316 -0.194653,0.121495 -0.118883,0.04834 -0.284795,0.04834 z m 0.08492,-0.313536 q 0.161993,0 0.276956,-0.06401 0.11627,-0.06401 0.176364,-0.167219 0.0614,-0.104512 0.0614,-0.223395 v -0.258667 q -0.0209,0.0209 -0.081,0.03919 -0.05879,0.01698 -0.134559,0.03005 -0.07577,0.01176 -0.147623,0.02221 -0.07185,0.0091 -0.120189,0.01568 -0.113657,0.01437 -0.207717,0.04834 -0.09276,0.03397 -0.14893,0.09798 -0.05487,0.06271 -0.05487,0.167219 0,0.14501 0.107125,0.219475 0.107125,0.07316 0.273038,0.07316 z"
         style="font-weight:500;-inkscape-font-specification:'Inter Medium'"
         id="path841" /><path
         d="m 74.553453,94.419762 v 1.191436 H 74.16284 v -2.006629 h 0.374936 v 0.3266 h 0.02482 q 0.06924,-0.159381 0.216862,-0.256054 0.148929,-0.09667 0.374936,-0.09667 0.205105,0 0.35926,0.08622 0.154155,0.08492 0.239071,0.253441 0.08492,0.168526 0.08492,0.416741 v 1.276352 H 75.44703 v -1.229321 q 0,-0.218169 -0.113657,-0.34097 -0.113657,-0.124108 -0.312229,-0.124108 -0.135866,0 -0.241684,0.05879 -0.104512,0.05879 -0.165913,0.172444 -0.06009,0.112351 -0.06009,0.271731 z"
         style="font-weight:500;-inkscape-font-specification:'Inter Medium'"
         id="path843" /><path
         d="m 77.201518,96.405489 q -0.239071,0 -0.411516,-0.06271 -0.171138,-0.06271 -0.279569,-0.165913 -0.108432,-0.103205 -0.161994,-0.226007 l 0.335745,-0.138478 q 0.03527,0.05748 0.09406,0.121495 0.0601,0.06532 0.161994,0.111044 0.103205,0.04572 0.265199,0.04572 0.222088,0 0.367098,-0.108431 0.14501,-0.107125 0.14501,-0.342277 V 95.2454 h -0.02482 q -0.03527,0.06401 -0.101899,0.142397 -0.06532,0.07838 -0.180283,0.135866 -0.114964,0.05748 -0.299166,0.05748 -0.237764,0 -0.428499,-0.111044 -0.189428,-0.11235 -0.300472,-0.330519 -0.109737,-0.219475 -0.109737,-0.539542 0,-0.320068 0.108431,-0.548688 0.109738,-0.22862 0.300472,-0.350115 0.190734,-0.122802 0.432418,-0.122802 0.186815,0 0.301778,0.06271 0.114963,0.0614 0.178977,0.143703 0.06532,0.0823 0.100593,0.145011 h 0.02874 v -0.325294 h 0.382775 v 2.051047 q 0,0.258667 -0.120188,0.42458 -0.120189,0.165912 -0.325294,0.245603 -0.203798,0.07969 -0.459852,0.07969 z m -0.0039,-1.148325 q 0.168525,0 0.284795,-0.07838 0.117575,-0.07969 0.17767,-0.227313 0.0614,-0.14893 0.0614,-0.356647 0,-0.202492 -0.06009,-0.356647 -0.06009,-0.154155 -0.176364,-0.240377 -0.116269,-0.08753 -0.287407,-0.08753 -0.176364,0 -0.29394,0.09145 -0.117576,0.09014 -0.177671,0.245603 -0.05879,0.155461 -0.05879,0.347502 0,0.197266 0.0601,0.346196 0.06009,0.148929 0.17767,0.232539 0.118882,0.08361 0.292634,0.08361 z"
         style="font-weight:500;-inkscape-font-specification:'Inter Medium'"
         id="path845" /><path
         d="m 78.989972,94.930564 -0.0026,-0.476835 h 0.06793 l 0.799516,-0.84916 h 0.467691 l -0.911867,0.966736 h -0.0614 z m -0.35926,0.680634 v -2.675505 h 0.390613 v 2.675505 z m 1.267207,0 -0.718519,-0.953671 0.269118,-0.273037 0.92885,1.226708 z"
         style="font-weight:500;-inkscape-font-specification:'Inter Medium'"
         id="path847" /><path
         d="m 81.261794,95.655616 q -0.190735,0 -0.34489,-0.07055 -0.154155,-0.07185 -0.244296,-0.207717 -0.08884,-0.135866 -0.08884,-0.333132 0,-0.169832 0.06532,-0.279569 0.06532,-0.109738 0.176364,-0.173751 0.111044,-0.06401 0.248216,-0.09667 0.137172,-0.03266 0.27957,-0.04964 0.180283,-0.0209 0.292633,-0.03397 0.11235,-0.01437 0.1633,-0.04572 0.05095,-0.03135 0.05095,-0.101899 v -0.0091 q 0,-0.171139 -0.09667,-0.265199 -0.09537,-0.09406 -0.284795,-0.09406 -0.197266,0 -0.310923,0.08753 -0.11235,0.08622 -0.155462,0.19204 l -0.367098,-0.08361 q 0.06532,-0.182896 0.190734,-0.295246 0.126721,-0.113657 0.291327,-0.164607 0.164607,-0.05226 0.346196,-0.05226 0.120189,0 0.254748,0.02874 0.135866,0.02744 0.253441,0.101899 0.118883,0.07447 0.194654,0.212943 0.07577,0.137172 0.07577,0.356647 v 1.332527 h -0.381468 v -0.274343 h -0.01568 q -0.03789,0.07577 -0.113657,0.148929 -0.07577,0.07316 -0.194653,0.121495 -0.118883,0.04834 -0.284795,0.04834 z m 0.08492,-0.313536 q 0.161993,0 0.276956,-0.06401 0.11627,-0.06401 0.176364,-0.167219 0.0614,-0.104512 0.0614,-0.223395 v -0.258667 q -0.0209,0.0209 -0.081,0.03919 -0.05879,0.01698 -0.134559,0.03005 -0.07577,0.01176 -0.147623,0.02221 -0.07185,0.0091 -0.120189,0.01568 -0.113657,0.01437 -0.207717,0.04834 -0.09275,0.03397 -0.14893,0.09798 -0.05487,0.06271 -0.05487,0.167219 0,0.14501 0.107125,0.219475 0.107125,0.07316 0.273038,0.07316 z"
         style="font-weight:500;-inkscape-font-specification:'Inter Medium'"
         id="path849" /><path
         d="m 83.162601,94.419762 v 1.191436 h -0.390613 v -2.006629 h 0.374936 v 0.3266 h 0.02482 q 0.06924,-0.159381 0.216862,-0.256054 0.148929,-0.09667 0.374936,-0.09667 0.205105,0 0.35926,0.08622 0.154155,0.08492 0.239071,0.253441 0.08492,0.168526 0.08492,0.416741 v 1.276352 H 84.05618 v -1.229321 q 0,-0.218169 -0.113657,-0.34097 -0.113657,-0.124108 -0.312229,-0.124108 -0.135866,0 -0.241684,0.05879 -0.104512,0.05879 -0.165913,0.172444 -0.06009,0.112351 -0.06009,0.271731 z"
         style="font-weight:500;-inkscape-font-specification:'Inter Medium'"
         id="path851" /><path
         d="m 86.789154,95.651697 q -0.282182,0 -0.492512,-0.129334 -0.21033,-0.129333 -0.3266,-0.361872 -0.116269,-0.232539 -0.116269,-0.543462 0,-0.31223 0.116269,-0.546075 0.11627,-0.233846 0.3266,-0.363179 0.21033,-0.129334 0.492512,-0.129334 0.282182,0 0.492513,0.129334 0.21033,0.129333 0.3266,0.363179 0.116269,0.233845 0.116269,0.546075 0,0.310923 -0.116269,0.543462 -0.11627,0.232539 -0.3266,0.361872 -0.210331,0.129334 -0.492513,0.129334 z m 0.0013,-0.327906 q 0.182896,0 0.303084,-0.09667 0.120189,-0.09667 0.177671,-0.257361 0.05879,-0.160687 0.05879,-0.354034 0,-0.19204 -0.05879,-0.352727 -0.05748,-0.161994 -0.177671,-0.259974 -0.120188,-0.09798 -0.303084,-0.09798 -0.184203,0 -0.305698,0.09798 -0.120188,0.09798 -0.178976,0.259974 -0.05748,0.160687 -0.05748,0.352727 0,0.193347 0.05748,0.354034 0.05879,0.160688 0.178976,0.257361 0.121495,0.09667 0.305698,0.09667 z"
         style="font-weight:500;-inkscape-font-specification:'Inter Medium'"
         id="path853" /><path
         d="m 88.550178,92.935693 v 2.675505 h -0.390613 v -2.675505 z"
         style="font-weight:500;-inkscape-font-specification:'Inter Medium'"
         id="path855" /><path
         d="m 89.940184,95.651697 q -0.296553,0 -0.510802,-0.126721 -0.212943,-0.128027 -0.329213,-0.35926 -0.114963,-0.232539 -0.114963,-0.544768 0,-0.30831 0.114963,-0.543462 0.11627,-0.235152 0.323987,-0.367098 0.209024,-0.131947 0.488593,-0.131947 0.169832,0 0.329213,0.05618 0.159381,0.05617 0.286101,0.176363 0.126721,0.120189 0.199879,0.31223 0.07316,0.190734 0.07316,0.463772 v 0.138478 H 89.205988 V 94.43283 h 1.212339 q 0,-0.154155 -0.06271,-0.273037 -0.06271,-0.120189 -0.176364,-0.189428 -0.112351,-0.06924 -0.263893,-0.06924 -0.164606,0 -0.287408,0.081 -0.121495,0.07969 -0.188121,0.209024 -0.06532,0.128027 -0.06532,0.278263 v 0.228619 q 0,0.201186 0.07055,0.342277 0.07185,0.141091 0.19988,0.215556 0.128027,0.07316 0.299165,0.07316 0.111044,0 0.202492,-0.03135 0.09145,-0.03266 0.158074,-0.09667 0.06663,-0.06401 0.101899,-0.158074 l 0.369711,0.06663 q -0.04442,0.1633 -0.159381,0.286102 -0.113656,0.121495 -0.286101,0.189427 -0.171138,0.06663 -0.390613,0.06663 z"
         style="font-weight:500;-inkscape-font-specification:'Inter Medium'"
         id="path857" /><path
         d="m 91.626741,94.419762 v 1.191436 h -0.390614 v -2.675505 h 0.385388 v 0.995476 h 0.02482 q 0.07054,-0.161993 0.215556,-0.25736 0.14501,-0.09537 0.378855,-0.09537 0.206411,0 0.360567,0.08492 0.155461,0.08492 0.240377,0.253442 0.08622,0.167219 0.08622,0.418047 V 95.6112 h -0.390613 v -1.229321 q 0,-0.220782 -0.113657,-0.342277 -0.113656,-0.122801 -0.316148,-0.122801 -0.138479,0 -0.248216,0.05879 -0.108431,0.05879 -0.171138,0.172444 -0.0614,0.112351 -0.0614,0.271731 z"
         style="font-weight:500;-inkscape-font-specification:'Inter Medium'"
         id="path859" /><path
         d="m 94.456396,95.611198 v -2.675505 h 0.9798 q 0.284795,0 0.47161,0.09406 0.186815,0.09275 0.279569,0.252135 0.09275,0.158074 0.09275,0.356647 0,0.167219 -0.0614,0.282182 -0.0614,0.113657 -0.164607,0.182896 -0.101899,0.06793 -0.2247,0.09929 v 0.02613 q 0.133252,0.0065 0.259973,0.08622 0.128027,0.07838 0.211637,0.223394 0.08361,0.14501 0.08361,0.352728 0,0.205104 -0.09667,0.368404 -0.09537,0.161994 -0.295246,0.257361 -0.199879,0.09406 -0.510802,0.09406 z m 0.403678,-0.346195 h 0.582654 q 0.29002,0 0.415435,-0.112351 0.125414,-0.11235 0.125414,-0.280875 0,-0.126721 -0.06401,-0.23254 -0.06401,-0.105818 -0.182896,-0.168525 -0.117575,-0.06271 -0.279569,-0.06271 h -0.597024 z m 0,-1.17184 h 0.540849 q 0.135865,0 0.244297,-0.05226 0.109737,-0.05226 0.173751,-0.146317 0.06532,-0.09537 0.06532,-0.224701 0,-0.165912 -0.11627,-0.278263 -0.11627,-0.11235 -0.356647,-0.11235 h -0.5513 z"
         style="font-weight:500;-inkscape-font-specification:'Inter Medium'"
         id="path861" /><path
         d="m 96.862776,95.611198 v -2.675505 h 0.953671 q 0.31223,0 0.517334,0.113657 0.205105,0.113656 0.307004,0.310923 0.101899,0.19596 0.101899,0.441563 0,0.246909 -0.103205,0.444175 -0.101899,0.19596 -0.30831,0.310923 -0.205105,0.113657 -0.516028,0.113657 h -0.655812 v -0.342277 h 0.619233 q 0.197266,0 0.320068,-0.06793 0.122801,-0.06924 0.180283,-0.188122 0.05748,-0.118882 0.05748,-0.270424 0,-0.151543 -0.05748,-0.269119 -0.05748,-0.117575 -0.18159,-0.184202 -0.122801,-0.06663 -0.323987,-0.06663 h -0.506883 v 2.329309 z"
         style="font-weight:500;-inkscape-font-specification:'Inter Medium'"
         id="path863" /><path
         d="m 100.67354,93.638536 q -0.0209,-0.185509 -0.17244,-0.287408 -0.15155,-0.103206 -0.38147,-0.103206 -0.164609,0 -0.284798,0.05226 -0.120188,0.05095 -0.186815,0.141092 -0.06532,0.08884 -0.06532,0.202491 0,0.09537 0.04442,0.164607 0.04572,0.06924 0.118882,0.116269 0.07447,0.04572 0.159381,0.07708 0.08492,0.03005 0.1633,0.04964 l 0.26128,0.06793 q 0.12802,0.03135 0.26258,0.08492 0.13456,0.05356 0.24953,0.141091 0.11496,0.08753 0.1855,0.216862 0.0719,0.129333 0.0719,0.309617 0,0.227313 -0.11758,0.403677 -0.11627,0.176364 -0.33836,0.278263 -0.22078,0.101899 -0.53431,0.101899 -0.300474,0 -0.519949,-0.09537 -0.219475,-0.09537 -0.343583,-0.270425 -0.124108,-0.176364 -0.137172,-0.418047 H 99.5135 q 0.01176,0.14501 0.09406,0.241683 0.08361,0.09537 0.212943,0.142398 0.13064,0.04572 0.286097,0.04572 0.17114,0 0.30439,-0.05356 0.13456,-0.05487 0.21164,-0.151542 0.0771,-0.09798 0.0771,-0.22862 0,-0.118882 -0.0679,-0.194653 -0.0666,-0.07577 -0.18159,-0.125414 -0.11366,-0.04964 -0.25736,-0.08753 l -0.316152,-0.08622 q -0.321374,-0.08753 -0.509496,-0.25736 -0.186815,-0.169832 -0.186815,-0.449401 0,-0.231233 0.125415,-0.403678 0.125414,-0.172444 0.339663,-0.267812 0.21425,-0.09667 0.483365,-0.09667 0.27173,0 0.47945,0.09537 0.20902,0.09537 0.32921,0.262586 0.12019,0.165913 0.12542,0.381469 z"
         style="font-weight:500;-inkscape-font-specification:'Inter Medium'"
         id="path865" /><path
         d="m 102.55605,95.611198 v -2.675505 h 0.95367 q 0.31223,0 0.51734,0.113657 0.2051,0.113656 0.307,0.310923 0.1019,0.19596 0.1019,0.441563 0,0.246909 -0.10321,0.444175 -0.10189,0.19596 -0.30831,0.310923 -0.2051,0.113657 -0.51602,0.113657 h -0.65582 v -0.342277 h 0.61924 q 0.19726,0 0.32007,-0.06793 0.1228,-0.06924 0.18028,-0.188122 0.0575,-0.118882 0.0575,-0.270424 0,-0.151543 -0.0575,-0.269119 -0.0575,-0.117575 -0.18159,-0.184202 -0.1228,-0.06663 -0.32399,-0.06663 h -0.50688 v 2.329309 z"
         style="font-weight:500;-inkscape-font-specification:'Inter Medium'"
         id="path867" /><path
         d="m 104.87621,95.611198 v -2.006629 h 0.37755 v 0.318762 h 0.0209 q 0.0549,-0.161994 0.19334,-0.254748 0.13979,-0.09406 0.31615,-0.09406 0.0366,0 0.0862,0.0026 0.051,0.0026 0.0797,0.0065 v 0.37363 q -0.0235,-0.0065 -0.0836,-0.01437 -0.0601,-0.0091 -0.12019,-0.0091 -0.13848,0 -0.24691,0.05879 -0.10713,0.05748 -0.16983,0.160687 -0.0627,0.101899 -0.0627,0.232539 v 1.225402 z"
         style="font-weight:500;-inkscape-font-specification:'Inter Medium'"
         id="path869" /><path
         d="m 107.06181,95.651697 q -0.28218,0 -0.49251,-0.129334 -0.21033,-0.129333 -0.3266,-0.361872 -0.11627,-0.232539 -0.11627,-0.543462 0,-0.31223 0.11627,-0.546075 0.11627,-0.233846 0.3266,-0.363179 0.21033,-0.129334 0.49251,-0.129334 0.28218,0 0.49251,0.129334 0.21033,0.129333 0.3266,0.363179 0.11627,0.233845 0.11627,0.546075 0,0.310923 -0.11627,0.543462 -0.11627,0.232539 -0.3266,0.361872 -0.21033,0.129334 -0.49251,0.129334 z m 0.001,-0.327906 q 0.18289,0 0.30308,-0.09667 0.12019,-0.09667 0.17767,-0.257361 0.0588,-0.160687 0.0588,-0.354034 0,-0.19204 -0.0588,-0.352727 -0.0575,-0.161994 -0.17767,-0.259974 -0.12019,-0.09798 -0.30308,-0.09798 -0.18421,0 -0.3057,0.09798 -0.12019,0.09798 -0.17898,0.259974 -0.0575,0.160687 -0.0575,0.352727 0,0.193347 0.0575,0.354034 0.0588,0.160688 0.17898,0.257361 0.12149,0.09667 0.3057,0.09667 z"
         style="font-weight:500;-inkscape-font-specification:'Inter Medium'"
         id="path871" /><path
         d="m 110.07775,93.604569 -0.72766,2.006629 h -0.41805 l -0.72897,-2.006629 h 0.41936 l 0.50819,1.544164 h 0.0209 l 0.50688,-1.544164 z"
         style="font-weight:500;-inkscape-font-specification:'Inter Medium'"
         id="path873" /><path
         d="m 110.44485,95.611198 v -2.006629 h 0.39061 v 2.006629 z m 0.19726,-2.316245 q -0.10189,0 -0.17505,-0.06793 -0.0718,-0.06924 -0.0718,-0.164606 0,-0.09667 0.0718,-0.164607 0.0732,-0.06924 0.17505,-0.06924 0.1019,0 0.17376,0.06924 0.0731,0.06793 0.0731,0.164607 0,0.09537 -0.0731,0.164606 -0.0719,0.06793 -0.17376,0.06793 z"
         style="font-weight:500;-inkscape-font-specification:'Inter Medium'"
         id="path875" /><path
         d="m 111.75124,94.419762 v 1.191436 h -0.39061 v -2.006629 h 0.37494 v 0.3266 h 0.0248 q 0.0692,-0.159381 0.21686,-0.256054 0.14893,-0.09667 0.37494,-0.09667 0.2051,0 0.35926,0.08622 0.15415,0.08492 0.23907,0.253441 0.0849,0.168526 0.0849,0.416741 v 1.276352 h -0.39062 v -1.229321 q 0,-0.218169 -0.11365,-0.34097 -0.11366,-0.124108 -0.31223,-0.124108 -0.13587,0 -0.24169,0.05879 -0.10451,0.05879 -0.16591,0.172444 -0.0601,0.112351 -0.0601,0.271731 z"
         style="font-weight:500;-inkscape-font-specification:'Inter Medium'"
         id="path877" /><path
         d="m 115.06165,94.094469 -0.35403,0.06271 q -0.0222,-0.06793 -0.0706,-0.129333 -0.047,-0.0614 -0.12802,-0.100593 -0.081,-0.03919 -0.20249,-0.03919 -0.16592,0 -0.27696,0.07447 -0.11105,0.07316 -0.11105,0.189428 0,0.100592 0.0745,0.161993 0.0745,0.0614 0.24038,0.100593 l 0.31876,0.07316 q 0.27696,0.06401 0.41282,0.197266 0.13587,0.133253 0.13587,0.346196 0,0.180283 -0.10452,0.321374 -0.1032,0.139785 -0.28871,0.219475 -0.1842,0.07969 -0.42719,0.07969 -0.33705,0 -0.55,-0.143704 -0.21294,-0.14501 -0.26128,-0.411516 l 0.37755,-0.05748 q 0.0353,0.147623 0.14501,0.223394 0.10974,0.07447 0.2861,0.07447 0.19205,0 0.30701,-0.07969 0.11496,-0.081 0.11496,-0.197266 0,-0.09406 -0.0705,-0.158074 -0.0692,-0.06401 -0.21295,-0.09667 l -0.33966,-0.07447 q -0.28088,-0.06401 -0.41544,-0.203798 -0.13325,-0.139785 -0.13325,-0.354034 0,-0.17767 0.0993,-0.310923 0.0993,-0.133253 0.27434,-0.207717 0.17506,-0.07577 0.40107,-0.07577 0.32529,0 0.5121,0.141092 0.18682,0.139784 0.24691,0.374936 z"
         style="font-weight:500;-inkscape-font-specification:'Inter Medium'"
         id="path879" /><path
         d="m 115.52934,95.611198 v -2.006629 h 0.39061 v 2.006629 z m 0.19727,-2.316245 q -0.1019,0 -0.17506,-0.06793 -0.0719,-0.06924 -0.0719,-0.164606 0,-0.09667 0.0719,-0.164607 0.0732,-0.06924 0.17506,-0.06924 0.1019,0 0.17375,0.06924 0.0732,0.06793 0.0732,0.164607 0,0.09537 -0.0732,0.164606 -0.0719,0.06793 -0.17375,0.06793 z"
         style="font-weight:500;-inkscape-font-specification:'Inter Medium'"
         id="path881" /><path
         d="m 117.41969,93.604569 h 0.39062 v 2.137269 q 0,0.201186 -0.0732,0.339664 -0.0718,0.138478 -0.21425,0.21033 -0.14109,0.07185 -0.34881,0.07185 -0.0209,0 -0.0392,0 -0.0196,0 -0.0405,-0.0013 v -0.335745 q 0.0183,0 0.0327,0 0.0131,0 0.0301,0 0.13848,0 0.19988,-0.07446 0.0627,-0.07316 0.0627,-0.212943 z m 0.19335,-0.309616 q -0.1019,0 -0.17506,-0.06793 -0.0718,-0.06924 -0.0718,-0.164606 0,-0.09667 0.0718,-0.164607 0.0732,-0.06924 0.17506,-0.06924 0.1019,0 0.17375,0.06924 0.0732,0.06793 0.0732,0.164607 0,0.09537 -0.0732,0.164606 -0.0718,0.06793 -0.17375,0.06793 z"
         style="font-weight:500;-inkscape-font-specification:'Inter Medium'"
         id="path883" /><path
         d="m 118.91944,95.655616 q -0.19074,0 -0.34489,-0.07055 -0.15416,-0.07185 -0.2443,-0.207717 -0.0888,-0.135866 -0.0888,-0.333132 0,-0.169832 0.0653,-0.279569 0.0653,-0.109738 0.17636,-0.173751 0.11104,-0.06401 0.24822,-0.09667 0.13717,-0.03266 0.27957,-0.04964 0.18028,-0.0209 0.29263,-0.03397 0.11235,-0.01437 0.1633,-0.04572 0.051,-0.03135 0.051,-0.101899 v -0.0091 q 0,-0.171139 -0.0967,-0.265199 -0.0954,-0.09406 -0.2848,-0.09406 -0.19727,0 -0.31092,0.08753 -0.11235,0.08622 -0.15546,0.19204 l -0.3671,-0.08361 q 0.0653,-0.182896 0.19073,-0.295246 0.12672,-0.113657 0.29133,-0.164607 0.16461,-0.05226 0.34619,-0.05226 0.12019,0 0.25475,0.02874 0.13587,0.02744 0.25344,0.101899 0.11889,0.07447 0.19466,0.212943 0.0758,0.137172 0.0758,0.356647 v 1.332527 h -0.38147 v -0.274343 h -0.0157 q -0.0379,0.07577 -0.11365,0.148929 -0.0758,0.07316 -0.19466,0.121495 -0.11888,0.04834 -0.28479,0.04834 z m 0.0849,-0.313536 q 0.162,0 0.27696,-0.06401 0.11627,-0.06401 0.17636,-0.167219 0.0614,-0.104512 0.0614,-0.223395 v -0.258667 q -0.0209,0.0209 -0.081,0.03919 -0.0588,0.01698 -0.13456,0.03005 -0.0758,0.01176 -0.14762,0.02221 -0.0719,0.0091 -0.12019,0.01568 -0.11366,0.01437 -0.20772,0.04834 -0.0927,0.03397 -0.14893,0.09798 -0.0549,0.06271 -0.0549,0.167219 0,0.14501 0.10713,0.219475 0.10712,0.07316 0.27303,0.07316 z"
         style="font-weight:500;-inkscape-font-specification:'Inter Medium'"
         id="path885" /><path
         d="m 120.86466,95.611198 -0.59049,-2.006629 h 0.40368 l 0.39322,1.473619 h 0.0196 l 0.39453,-1.473619 h 0.40368 l 0.39192,1.467087 h 0.0196 l 0.39061,-1.467087 h 0.40368 l -0.58919,2.006629 h -0.39845 l -0.4076,-1.448796 h -0.0301 l -0.40759,1.448796 z"
         style="font-weight:500;-inkscape-font-specification:'Inter Medium'"
         id="path887" /><path
         d="m 124.04835,95.655616 q -0.19073,0 -0.34489,-0.07055 -0.15415,-0.07185 -0.24429,-0.207717 -0.0888,-0.135866 -0.0888,-0.333132 0,-0.169832 0.0653,-0.279569 0.0653,-0.109738 0.17636,-0.173751 0.11105,-0.06401 0.24822,-0.09667 0.13717,-0.03266 0.27957,-0.04964 0.18028,-0.0209 0.29263,-0.03397 0.11235,-0.01437 0.1633,-0.04572 0.051,-0.03135 0.051,-0.101899 v -0.0091 q 0,-0.171139 -0.0967,-0.265199 -0.0954,-0.09406 -0.2848,-0.09406 -0.19726,0 -0.31092,0.08753 -0.11235,0.08622 -0.15546,0.19204 l -0.3671,-0.08361 q 0.0653,-0.182896 0.19074,-0.295246 0.12672,-0.113657 0.29132,-0.164607 0.16461,-0.05226 0.3462,-0.05226 0.12019,0 0.25475,0.02874 0.13586,0.02744 0.25344,0.101899 0.11888,0.07447 0.19465,0.212943 0.0758,0.137172 0.0758,0.356647 v 1.332527 h -0.38147 v -0.274343 h -0.0157 q -0.0379,0.07577 -0.11366,0.148929 -0.0758,0.07316 -0.19465,0.121495 -0.11889,0.04834 -0.2848,0.04834 z m 0.0849,-0.313536 q 0.16199,0 0.27695,-0.06401 0.11627,-0.06401 0.17637,-0.167219 0.0614,-0.104512 0.0614,-0.223395 v -0.258667 q -0.0209,0.0209 -0.081,0.03919 -0.0588,0.01698 -0.13456,0.03005 -0.0758,0.01176 -0.14762,0.02221 -0.0718,0.0091 -0.12019,0.01568 -0.11366,0.01437 -0.20772,0.04834 -0.0928,0.03397 -0.14893,0.09798 -0.0549,0.06271 -0.0549,0.167219 0,0.14501 0.10712,0.219475 0.10712,0.07316 0.27304,0.07316 z"
         style="font-weight:500;-inkscape-font-specification:'Inter Medium'"
         id="path889" /><path
         d="m 126.43252,93.283195 v -0.347502 h 2.07065 v 0.347502 h -0.83479 v 2.328003 h -0.40237 v -2.328003 z"
         style="font-weight:500;-inkscape-font-specification:'Inter Medium'"
         id="path891" /><path
         d="m 128.92775,95.611198 v -2.006629 h 0.39061 v 2.006629 z m 0.19726,-2.316245 q -0.1019,0 -0.17505,-0.06793 -0.0719,-0.06924 -0.0719,-0.164606 0,-0.09667 0.0719,-0.164607 0.0731,-0.06924 0.17505,-0.06924 0.1019,0 0.17375,0.06924 0.0732,0.06793 0.0732,0.164607 0,0.09537 -0.0732,0.164606 -0.0718,0.06793 -0.17375,0.06793 z"
         style="font-weight:500;-inkscape-font-specification:'Inter Medium'"
         id="path893" /><path
         d="m 129.84353,95.611198 v -2.006629 h 0.37493 v 0.3266 h 0.0248 q 0.0627,-0.165913 0.20511,-0.258667 0.1424,-0.09406 0.34097,-0.09406 0.20118,0 0.33705,0.09406 0.13717,0.09406 0.20249,0.258667 h 0.0209 q 0.0719,-0.160687 0.22862,-0.256054 0.15677,-0.09667 0.37363,-0.09667 0.27304,0 0.44549,0.171139 0.17375,0.171138 0.17375,0.516027 v 1.345591 h -0.39062 v -1.309011 q 0,-0.203799 -0.11104,-0.295247 -0.11104,-0.09145 -0.2652,-0.09145 -0.19073,0 -0.29655,0.117576 -0.10582,0.11627 -0.10582,0.299166 V 95.6112 h -0.38931 v -1.333833 q 0,-0.1633 -0.1019,-0.262586 -0.10189,-0.09929 -0.26519,-0.09929 -0.11105,0 -0.20511,0.05879 -0.0927,0.05748 -0.15024,0.160687 -0.0562,0.103206 -0.0562,0.239071 v 1.23716 z"
         style="font-weight:500;-inkscape-font-specification:'Inter Medium'"
         id="path895" /><path
         d="m 134.36497,94.779022 v -1.174453 h 0.39192 v 2.006629 h -0.38408 v -0.347502 h -0.0209 q -0.0692,0.160687 -0.22209,0.267812 -0.15154,0.105818 -0.37755,0.105818 -0.19335,0 -0.34227,-0.08492 -0.14763,-0.08622 -0.23254,-0.254747 -0.0836,-0.168526 -0.0836,-0.416742 v -1.276352 h 0.39061 v 1.229322 q 0,0.205105 0.11366,0.3266 0.11365,0.121495 0.29524,0.121495 0.10974,0 0.21817,-0.05487 0.10974,-0.05487 0.18159,-0.165913 0.0732,-0.111044 0.0719,-0.282182 z"
         style="font-weight:500;-inkscape-font-specification:'Inter Medium'"
         id="path897" /><path
         d="m 135.28075,95.611198 v -2.006629 h 0.37755 v 0.318762 h 0.0209 q 0.0549,-0.161994 0.19335,-0.254748 0.13979,-0.09406 0.31615,-0.09406 0.0366,0 0.0862,0.0026 0.051,0.0026 0.0797,0.0065 v 0.37363 q -0.0235,-0.0065 -0.0836,-0.01437 -0.0601,-0.0091 -0.12019,-0.0091 -0.13847,0 -0.24691,0.05879 -0.10712,0.05748 -0.16983,0.160687 -0.0627,0.101899 -0.0627,0.232539 v 1.225402 z"
         style="font-weight:500;-inkscape-font-specification:'Inter Medium'"
         id="path899" /></g><g
       aria-label="AI Data Assistant"
       id="text33188"
       style="font-weight:500;font-size:3.04893px;line-height:1.3;font-family:Inter;-inkscape-font-specification:'Inter Medium';opacity:1;fill:#678090;fill-opacity:1;stroke-width:2.16065;stroke-linecap:round;paint-order:stroke markers fill;stop-color:#000000"
       transform="translate(1.4709875)"><path
         d="m 88.703331,77.814235 q 0.115859,0 0.195131,0.04878 0.07927,0.04573 0.155496,0.182936 l 1.009195,1.832407 q 0.01525,0.03049 0.0061,0.05183 -0.0061,0.01829 -0.04268,0.01829 h -0.387214 q -0.05183,0 -0.07013,-0.03964 l -0.216476,-0.3933 H 87.919756 L 87.70938,79.90885 q -0.02134,0.03964 -0.07013,0.03964 h -0.396361 q -0.03964,0 -0.04878,-0.01829 -0.0061,-0.02134 0.0091,-0.05183 l 1.000049,-1.832407 q 0.07622,-0.137202 0.149398,-0.182936 0.07317,-0.04878 0.17074,-0.04878 z m -0.591493,1.347627 h 1.048832 l -0.48478,-0.893336 q -0.01219,-0.02134 -0.03354,-0.02134 h -0.01829 q -0.02134,0 -0.03354,0.02134 z"
         style="font-weight:normal;font-family:Conthrax;-inkscape-font-specification:Conthrax;fill:#678090;fill-opacity:1"
         id="path33309" /><path
         d="m 90.721718,77.814235 q 0.06708,0 0.06708,0.06708 v 2.000098 q 0,0.06708 -0.06708,0.06708 h -0.329285 q -0.07012,0 -0.07012,-0.06708 v -2.000098 q 0,-0.06708 0.07012,-0.06708 z"
         style="font-weight:normal;font-family:Conthrax;-inkscape-font-specification:Conthrax;fill:#678090;fill-opacity:1"
         id="path33311" /><path
         d="m 93.734056,77.814235 q 0.246963,0 0.423801,0.05183 0.176838,0.04878 0.289648,0.155496 0.112811,0.103663 0.164642,0.268305 0.05488,0.161594 0.05488,0.384166 v 0.414654 q 0,0.222572 -0.05488,0.387214 -0.05183,0.161593 -0.164642,0.268306 -0.11281,0.103664 -0.289648,0.155495 -0.176838,0.04878 -0.423801,0.04878 h -1.4269 q -0.09147,0 -0.09147,-0.09147 v -1.951315 q 0,-0.09147 0.09147,-0.09147 z m -1.051881,1.670814 q 0,0.03964 0.03964,0.03964 h 1.000049 q 0.134153,0 0.225621,-0.02439 0.09147,-0.02439 0.146348,-0.07927 0.05793,-0.05488 0.08232,-0.146348 0.02439,-0.09147 0.02439,-0.225621 v -0.33539 q 0,-0.134153 -0.02439,-0.225621 -0.02439,-0.09147 -0.08232,-0.146349 -0.05488,-0.05488 -0.146348,-0.07927 -0.09147,-0.02439 -0.225621,-0.02439 h -1.000049 q -0.03964,0 -0.03964,0.04268 z"
         style="font-weight:normal;font-family:Conthrax;-inkscape-font-specification:Conthrax;fill:#678090;fill-opacity:1"
         id="path33313" /><path
         d="m 96.392719,78.274624 q 0.204279,0 0.344529,0.03659 0.140251,0.03354 0.222572,0.109761 0.08537,0.07317 0.121958,0.192083 0.03659,0.115859 0.03659,0.280502 v 0.811015 q 0,0.07317 -0.0122,0.121957 -0.0091,0.04573 -0.03659,0.07317 -0.02439,0.02744 -0.06708,0.03964 -0.04269,0.0091 -0.109761,0.0091 h -1.451291 q -0.134153,0 -0.225621,-0.02439 -0.08842,-0.02744 -0.143299,-0.07927 -0.05488,-0.05183 -0.07927,-0.134153 -0.02134,-0.08232 -0.02134,-0.195132 V 79.36919 q 0,-0.09452 0.02134,-0.167692 0.02439,-0.07622 0.07927,-0.128055 0.05488,-0.05183 0.143299,-0.07622 0.09147,-0.02744 0.225621,-0.02744 h 1.240915 v -0.05793 q 0,-0.07317 -0.01524,-0.125006 -0.01525,-0.05183 -0.05183,-0.08232 -0.03659,-0.03354 -0.100614,-0.04878 -0.06403,-0.01524 -0.164643,-0.01524 h -1.274452 q -0.05488,0 -0.05488,-0.05488 v -0.25611 q 0,-0.05488 0.05488,-0.05488 z m 0.20123,1.33848 q 0.04878,0 0.06708,-0.02134 0.02134,-0.02439 0.02134,-0.08232 V 79.241139 H 95.56646 q -0.09452,0 -0.134153,0.03964 -0.03659,0.03659 -0.03659,0.109761 v 0.06403 q 0,0.08232 0.03659,0.121957 0.03964,0.03659 0.134153,0.03659 z"
         style="font-weight:normal;font-family:Conthrax;-inkscape-font-specification:Conthrax;fill:#678090;fill-opacity:1"
         id="path33315" /><path
         d="m 97.648877,78.274624 v -0.402459 q 0,-0.06708 0.06708,-0.06708 h 0.301844 q 0.06708,0 0.06708,0.06708 v 0.402459 h 0.533562 q 0.05488,0 0.05488,0.05488 v 0.250012 q 0,0.05488 -0.05488,0.05488 h -0.533562 v 0.707351 q 0,0.128055 0.05183,0.189034 0.05183,0.05793 0.204279,0.05793 h 0.295746 q 0.05488,0 0.05488,0.05488 v 0.250013 q 0,0.05488 -0.05488,0.05488 h -0.368921 q -0.182935,0 -0.301844,-0.03354 -0.118908,-0.03354 -0.192082,-0.106712 -0.07013,-0.07317 -0.09757,-0.189034 -0.02744,-0.115859 -0.02744,-0.277453 V 78.634394 H 97.35923 q -0.05488,0 -0.05488,-0.05488 v -0.250012 q 0,-0.05488 0.05488,-0.05488 z"
         style="font-weight:normal;font-family:Conthrax;-inkscape-font-specification:Conthrax;fill:#678090;fill-opacity:1"
         id="path33317" /><path
         d="m 100.2923,78.274624 q 0.20428,0 0.34453,0.03659 0.14025,0.03354 0.22257,0.109761 0.0854,0.07317 0.12196,0.192083 0.0366,0.115859 0.0366,0.280502 v 0.811015 q 0,0.07317 -0.0122,0.121957 -0.009,0.04573 -0.0366,0.07317 -0.0244,0.02744 -0.0671,0.03964 -0.0427,0.0091 -0.10976,0.0091 h -1.451287 q -0.134153,0 -0.225621,-0.02439 -0.08842,-0.02744 -0.1433,-0.07927 -0.05488,-0.05183 -0.07927,-0.134153 -0.02134,-0.08232 -0.02134,-0.195132 V 79.36919 q 0,-0.09452 0.02134,-0.167692 0.02439,-0.07622 0.07927,-0.128055 0.05488,-0.05183 0.1433,-0.07622 0.09147,-0.02744 0.225621,-0.02744 h 1.240917 v -0.05793 q 0,-0.07317 -0.0153,-0.125006 -0.0152,-0.05183 -0.0518,-0.08232 -0.0366,-0.03354 -0.10061,-0.04878 -0.064,-0.01524 -0.16465,-0.01524 h -1.274449 q -0.05488,0 -0.05488,-0.05488 v -0.25611 q 0,-0.05488 0.05488,-0.05488 z m 0.20123,1.33848 q 0.0488,0 0.0671,-0.02134 0.0214,-0.02439 0.0214,-0.08232 v -0.268305 h -1.115911 q -0.09452,0 -0.134153,0.03964 -0.03659,0.03659 -0.03659,0.109761 v 0.06403 q 0,0.08232 0.03659,0.121957 0.03964,0.03659 0.134153,0.03659 z"
         style="font-weight:normal;font-family:Conthrax;-inkscape-font-specification:Conthrax;fill:#678090;fill-opacity:1"
         id="path33319" /><path
         d="m 103.72844,77.814235 q 0.11586,0 0.19513,0.04878 0.0793,0.04573 0.1555,0.182936 l 1.00919,1.832407 q 0.0152,0.03049 0.006,0.05183 -0.006,0.01829 -0.0427,0.01829 h -0.38721 q -0.0518,0 -0.0701,-0.03964 l -0.21647,-0.393312 h -1.433 l -0.21037,0.393312 q -0.0213,0.03964 -0.0701,0.03964 H 102.268 q -0.0396,0 -0.0488,-0.01829 -0.006,-0.02134 0.009,-0.05183 l 1.00005,-1.832407 q 0.0762,-0.137202 0.1494,-0.182936 0.0732,-0.04878 0.17074,-0.04878 z m -0.59149,1.347627 h 1.04883 L 103.701,78.268526 q -0.0122,-0.02134 -0.0335,-0.02134 h -0.0183 q -0.0213,0 -0.0335,0.02134 z"
         style="font-weight:normal;font-family:Conthrax;-inkscape-font-specification:Conthrax;fill:#678090;fill-opacity:1"
         id="path33321" /><path
         d="m 107.26824,78.274624 q 0.0549,0 0.0549,0.05488 v 0.243914 q 0,0.05488 -0.0549,0.05488 h -1.37507 q -0.0945,0 -0.1311,0.03659 -0.0366,0.03354 -0.0366,0.100615 v 0.04573 q 0,0.06098 0.0366,0.09757 0.0366,0.03354 0.1311,0.03354 h 1.02749 q 0.25611,0 0.36588,0.106713 0.10976,0.106713 0.10976,0.301844 v 0.17074 q 0,0.100615 -0.0244,0.179887 -0.0244,0.07927 -0.0823,0.134153 -0.0549,0.05488 -0.14634,0.08537 -0.0915,0.02744 -0.22562,0.02744 h -1.56106 q -0.0549,0 -0.0549,-0.05488 v -0.243915 q 0,-0.05488 0.0549,-0.05488 h 1.4452 q 0.0945,0 0.1311,-0.03354 0.0396,-0.03354 0.0396,-0.11281 v -0.08232 q 0,-0.06098 -0.0396,-0.09452 -0.0366,-0.03354 -0.1311,-0.03354 h -1.02444 q -0.25611,0 -0.36588,-0.103664 -0.10976,-0.106713 -0.10976,-0.307942 v -0.134153 q 0,-0.09452 0.0244,-0.17074 0.0244,-0.07927 0.0793,-0.134153 0.0579,-0.05488 0.14939,-0.08232 0.0915,-0.03049 0.22562,-0.03049 z"
         style="font-weight:normal;font-family:Conthrax;-inkscape-font-specification:Conthrax;fill:#678090;fill-opacity:1"
         id="path33323" /><path
         d="m 109.65555,78.274624 q 0.0549,0 0.0549,0.05488 v 0.243914 q 0,0.05488 -0.0549,0.05488 h -1.37507 q -0.0945,0 -0.1311,0.03659 -0.0366,0.03354 -0.0366,0.100615 v 0.04573 q 0,0.06098 0.0366,0.09757 0.0366,0.03354 0.1311,0.03354 h 1.02749 q 0.25611,0 0.36587,0.106713 0.10977,0.106713 0.10977,0.301844 v 0.17074 q 0,0.100615 -0.0244,0.179887 -0.0244,0.07927 -0.0823,0.134153 -0.0549,0.05488 -0.14635,0.08537 -0.0915,0.02744 -0.22562,0.02744 h -1.56105 q -0.0549,0 -0.0549,-0.05488 v -0.243915 q 0,-0.05488 0.0549,-0.05488 h 1.44519 q 0.0945,0 0.13111,-0.03354 0.0396,-0.03354 0.0396,-0.11281 v -0.08232 q 0,-0.06098 -0.0396,-0.09452 -0.0366,-0.03354 -0.13111,-0.03354 h -1.02444 q -0.25611,0 -0.36587,-0.103664 -0.10976,-0.106713 -0.10976,-0.307942 v -0.134153 q 0,-0.09452 0.0244,-0.17074 0.0244,-0.07927 0.0793,-0.134153 0.0579,-0.05488 0.1494,-0.08232 0.0915,-0.03049 0.22562,-0.03049 z"
         style="font-weight:normal;font-family:Conthrax;-inkscape-font-specification:Conthrax;fill:#678090;fill-opacity:1"
         id="path33325" /><path
         d="m 110.11289,79.948486 z m 0.36892,-1.673862 q 0.0671,0 0.0671,0.07012 v 1.536661 q 0,0.06708 -0.0671,0.06708 h -0.2988 q -0.0671,0 -0.0671,-0.06708 v -1.536661 q 0,-0.07012 0.0671,-0.07012 z m 0,-0.618933 q 0.0671,0 0.0671,0.06708 v 0.289649 q 0,0.07013 -0.0671,0.07013 h -0.2988 q -0.0701,0 -0.0701,-0.07013 v -0.289649 q 0,-0.06708 0.0701,-0.06708 z"
         style="font-weight:normal;font-family:Conthrax;-inkscape-font-specification:Conthrax;fill:#678090;fill-opacity:1"
         id="path33327" /><path
         d="m 112.86607,78.274624 q 0.0549,0 0.0549,0.05488 v 0.243914 q 0,0.05488 -0.0549,0.05488 H 111.491 q -0.0945,0 -0.13111,0.03659 -0.0366,0.03354 -0.0366,0.100615 v 0.04573 q 0,0.06098 0.0366,0.09757 0.0366,0.03354 0.13111,0.03354 h 1.02749 q 0.25611,0 0.36587,0.106713 0.10976,0.106713 0.10976,0.301844 v 0.17074 q 0,0.100615 -0.0244,0.179887 -0.0244,0.07927 -0.0823,0.134153 -0.0549,0.05488 -0.14635,0.08537 -0.0915,0.02744 -0.22562,0.02744 h -1.56105 q -0.0549,0 -0.0549,-0.05488 v -0.243915 q 0,-0.05488 0.0549,-0.05488 h 1.44519 q 0.0945,0 0.1311,-0.03354 0.0396,-0.03354 0.0396,-0.11281 v -0.08232 q 0,-0.06098 -0.0396,-0.09452 -0.0366,-0.03354 -0.1311,-0.03354 h -1.02444 q -0.25611,0 -0.36587,-0.103664 -0.10976,-0.106713 -0.10976,-0.307942 v -0.134153 q 0,-0.09452 0.0244,-0.17074 0.0244,-0.07927 0.0793,-0.134153 0.0579,-0.05488 0.1494,-0.08232 0.0915,-0.03049 0.22562,-0.03049 z"
         style="font-weight:normal;font-family:Conthrax;-inkscape-font-specification:Conthrax;fill:#678090;fill-opacity:1"
         id="path33329" /><path
         d="m 113.52768,78.274624 v -0.402459 q 0,-0.06708 0.0671,-0.06708 h 0.30184 q 0.0671,0 0.0671,0.06708 v 0.402459 h 0.53356 q 0.0549,0 0.0549,0.05488 v 0.250012 q 0,0.05488 -0.0549,0.05488 h -0.53356 v 0.707351 q 0,0.128055 0.0518,0.189034 0.0518,0.05793 0.20428,0.05793 h 0.29575 q 0.0549,0 0.0549,0.05488 v 0.250013 q 0,0.05488 -0.0549,0.05488 h -0.36893 q -0.18293,0 -0.30184,-0.03354 -0.11891,-0.03354 -0.19208,-0.106712 -0.0701,-0.07317 -0.0976,-0.189034 -0.0274,-0.115859 -0.0274,-0.277453 v -0.707351 h -0.28965 q -0.0549,0 -0.0549,-0.05488 v -0.250012 q 0,-0.05488 0.0549,-0.05488 z"
         style="font-weight:normal;font-family:Conthrax;-inkscape-font-specification:Conthrax;fill:#678090;fill-opacity:1"
         id="path33331" /><path
         d="m 116.1711,78.274624 q 0.20428,0 0.34453,0.03659 0.14025,0.03354 0.22257,0.109761 0.0854,0.07317 0.12196,0.192083 0.0366,0.115859 0.0366,0.280502 v 0.811015 q 0,0.07317 -0.0122,0.121957 -0.009,0.04573 -0.0366,0.07317 -0.0244,0.02744 -0.0671,0.03964 -0.0427,0.0091 -0.10976,0.0091 h -1.45129 q -0.13416,0 -0.22562,-0.02439 -0.0884,-0.02744 -0.1433,-0.07927 -0.0549,-0.05183 -0.0793,-0.134153 -0.0213,-0.08232 -0.0213,-0.195132 V 79.36919 q 0,-0.09452 0.0213,-0.167692 0.0244,-0.07622 0.0793,-0.128055 0.0549,-0.05183 0.1433,-0.07622 0.0915,-0.02744 0.22562,-0.02744 h 1.24091 v -0.05793 q 0,-0.07317 -0.0152,-0.125006 -0.0152,-0.05183 -0.0518,-0.08232 -0.0366,-0.03354 -0.10061,-0.04878 -0.064,-0.01524 -0.16464,-0.01524 h -1.27445 q -0.0549,0 -0.0549,-0.05488 v -0.25611 q 0,-0.05488 0.0549,-0.05488 z m 0.20123,1.33848 q 0.0488,0 0.0671,-0.02134 0.0213,-0.02439 0.0213,-0.08232 v -0.268305 h -1.11591 q -0.0945,0 -0.13415,0.03964 -0.0366,0.03659 -0.0366,0.109761 v 0.06403 q 0,0.08232 0.0366,0.121957 0.0396,0.03659 0.13415,0.03659 z"
         style="font-weight:normal;font-family:Conthrax;-inkscape-font-specification:Conthrax;fill:#678090;fill-opacity:1"
         id="path33333" /><path
         d="m 118.81452,78.274624 q 0.20428,0 0.34453,0.03659 0.14025,0.03354 0.22258,0.109761 0.0854,0.07317 0.12195,0.192083 0.0366,0.115859 0.0366,0.280502 v 0.987853 q 0,0.06708 -0.0671,0.06708 h -0.29879 q -0.0671,0 -0.0671,-0.06708 v -0.88419 q 0,-0.09452 -0.0122,-0.158544 -0.0122,-0.06708 -0.0488,-0.103664 -0.0335,-0.03964 -0.0945,-0.05488 -0.061,-0.01829 -0.15855,-0.01829 h -0.81101 q -0.0976,0 -0.1616,0.01829 -0.064,0.01524 -0.10366,0.05488 -0.0366,0.03659 -0.0518,0.103664 -0.0153,0.06403 -0.0153,0.158544 v 0.88419 q 0,0.06708 -0.0671,0.06708 h -0.2988 q -0.0701,0 -0.0701,-0.06708 V 78.89356 q 0,-0.164643 0.0366,-0.280502 0.0366,-0.118908 0.11891,-0.192083 0.0854,-0.07622 0.22257,-0.109761 0.14025,-0.03659 0.34758,-0.03659 z"
         style="font-weight:normal;font-family:Conthrax;-inkscape-font-specification:Conthrax;fill:#678090;fill-opacity:1"
         id="path33335" /><path
         d="m 120.12251,78.274624 v -0.402459 q 0,-0.06708 0.0671,-0.06708 h 0.30184 q 0.0671,0 0.0671,0.06708 v 0.402459 h 0.53356 q 0.0549,0 0.0549,0.05488 v 0.250012 q 0,0.05488 -0.0549,0.05488 h -0.53356 v 0.707351 q 0,0.128055 0.0518,0.189034 0.0518,0.05793 0.20428,0.05793 h 0.29574 q 0.0549,0 0.0549,0.05488 v 0.250013 q 0,0.05488 -0.0549,0.05488 h -0.36892 q -0.18293,0 -0.30184,-0.03354 -0.11891,-0.03354 -0.19208,-0.106712 -0.0701,-0.07317 -0.0976,-0.189034 -0.0274,-0.115859 -0.0274,-0.277453 v -0.707351 h -0.28965 q -0.0549,0 -0.0549,-0.05488 v -0.250012 q 0,-0.05488 0.0549,-0.05488 z"
         style="font-weight:normal;font-family:Conthrax;-inkscape-font-specification:Conthrax;fill:#678090;fill-opacity:1"
         id="path33337" /></g></g><g
     id="g503"
     transform="matrix(0.10050841,0,0,-0.10050841,6.7230261,18.619519)"><g
       id="g505"
       clip-path="url(#clipPath509)"><g
         id="g511"><g
           id="g513" /><g
           id="g547"><g
             clip-path="url(#clipPath517)"
             id="g545"><g
               id="g543"><g
                 id="g541"><g
                   id="g539"><g
                     id="g537" /></g></g></g></g></g></g></g></g><g
     id="g609"
     transform="matrix(0.10050841,0,0,-0.10050841,6.7230261,18.619519)"><g
       id="g611"
       clip-path="url(#clipPath615)"><g
         id="g617"><g
           id="g619" /><g
           id="g653"><g
             clip-path="url(#clipPath623)"
             id="g651"><g
               id="g649"><g
                 id="g647"><g
                   id="g645"><g
                     id="g643" /></g></g></g></g></g></g></g></g><g
     id="g655"
     transform="matrix(0.10050841,0,0,-0.10050841,6.7230261,18.619519)"><g
       id="g657"
       clip-path="url(#clipPath661)"><g
         id="g663"><g
           id="g665" /><g
           id="g695"><g
             clip-path="url(#clipPath669)"
             id="g693"><g
               id="g691"><g
                 id="g689"><g
                   id="g687"><g
                     id="g685" /></g></g></g></g></g></g></g></g><g
     id="g697"
     transform="matrix(0.10050841,0,0,-0.10050841,6.7230261,18.619519)"><g
       id="g699"><g
         id="g705"><g
           id="g707" /></g></g></g><g
     id="g717"
     transform="matrix(0.10050841,0,0,-0.10050841,6.7230261,18.619519)"><g
       id="g719"
       clip-path="url(#clipPath723)"><g
         id="g725"><g
           id="g727"><g
             id="g733"><g
               id="g735" /></g></g></g></g></g><g
     id="g791"
     transform="matrix(0.10050841,0,0,-0.10050841,6.7230261,18.619519)"><g
       id="g793"
       clip-path="url(#clipPath797)"><g
         id="g799"><g
           id="g801" /><g
           id="g831"><g
             clip-path="url(#clipPath805)"
             id="g829"><g
               id="g827"><g
                 id="g825"><g
                   id="g823"><g
                     id="g821" /></g></g></g></g></g></g></g></g><g
     id="g18916"
     transform="matrix(0.90557659,0,0,0.90557659,-5.2464069,19.933832)"><g
       id="g463"
       transform="matrix(0.10050841,0,0,-0.10050841,6.7230261,18.619519)"><g
         id="g465"><g
           id="g471"><g
             id="g473"><path
               id="path481"
               style="fill:#48b006;fill-opacity:1;stroke:none"
               d="m 249.98066,389.00598 c -2.29299,0 -4.53666,-0.24211 -6.70966,-0.6941 l 0.0874,-0.14911 c 2.16408,0.44787 4.37526,0.74552 6.65825,0.74552 11.65198,0 22.08722,-6.02148 27.91322,-16.11347 l 6.80735,-11.78947 c -13.60059,13.60117 -24.38167,13.78836 -31.80534,10.58122 l 5.46542,-9.46551 c 0.075,-0.118 0.15422,-0.22977 0.22622,-0.35477 l 55.73904,-96.542 0.0308,-0.0514 5.06438,-8.78169 c 0,0 0.0484,-0.0782 0.12339,-0.22622 0.276,-0.505 0.50268,-1.00718 0.67868,-1.49618 2.555,-6.13099 8.60047,-27.01495 -23.0545,-35.49694 h 13.6147 c 11.65199,0 22.08309,6.02762 27.90808,16.11861 5.826,10.09099 5.826,22.13496 0,32.22695 l -60.83426,105.37511 c -5.827,10.08999 -16.26124,16.11247 -27.91323,16.11347 z" /></g></g></g></g><g
       id="g483"
       transform="matrix(0.10050841,0,0,-0.10050841,6.7230261,18.619519)"><g
         id="g485"><g
           id="g491"><g
             id="g493"><path
               d="m 243.27,388.314 14.596,-25.272 c 0.832,-0.798 1.637,-1.633 2.395,-2.532 v 0 l 78.469,-92.991 -60.837,105.373 c -5.827,10.09 -16.261,16.115 -27.913,16.116 v 0 c -2.293,0 -4.537,-0.242 -6.71,-0.694"
               style="fill:#56b619;fill-opacity:1;stroke:none"
               id="path501" /></g></g></g></g><g
       id="g549"
       transform="matrix(0.10050841,0,0,-0.10050841,6.7230261,18.619519)"><g
         id="g551"><g
           id="g557"><g
             id="g559"><path
               d="m 242.347,328.577 -33.988,-58.869 c -3.41,-5.906 0.852,-13.288 7.672,-13.288 v 0 h 7.932 c 4.49,0 8.639,2.395 10.884,6.284 v 0 l 7.5,12.989 c 3.41,5.906 11.934,5.906 15.344,0 v 0 l 7.499,-12.989 c 2.246,-3.889 6.395,-6.284 10.884,-6.284 v 0 h 7.934 c 6.82,0 11.082,7.383 7.672,13.288 v 0 l -33.989,58.869 c -1.705,2.953 -4.689,4.43 -7.672,4.43 v 0 c -2.984,0 -5.967,-1.477 -7.672,-4.43"
               style="fill:url(#linearGradient565);stroke:none"
               id="path567" /></g></g></g></g><g
       id="g569"
       transform="matrix(0.10050841,0,0,-0.10050841,6.7230261,18.619519)"><g
         id="g571"><g
           id="g577"><g
             id="g579"><path
               d="M 222.106,372.793 161.269,267.42 c -5.826,-10.091 -5.826,-22.139 0,-32.23 v 0 c 1.147,-1.987 2.478,-3.809 3.957,-5.465 v 0 l 15.119,26.198 c 0.065,0.123 0.122,0.247 0.194,0.371 v 0 l 55.739,96.543 0.031,0.052 5.068,8.78 c 0,0 0.048,0.079 0.138,0.217 v 0 c 0.3,0.493 0.617,0.941 0.952,1.338 v 0 c 4.031,5.278 19.098,20.953 42.271,-2.221 v 0 l -6.806,11.79 c -5.826,10.092 -16.261,16.116 -27.913,16.116 v 0 c -11.651,0 -22.086,-6.024 -27.913,-16.116"
               style="fill:#0b80eb;fill-opacity:1;stroke:none"
               id="path587" /></g></g></g></g><g
       id="g589"
       transform="matrix(0.10050841,0,0,-0.10050841,6.7230261,18.619519)"
       style="fill:url(#linearGradient11518);fill-opacity:1"><g
         id="g591"
         style="fill:url(#linearGradient18922);fill-opacity:1"><g
           id="g597"
           style="fill:url(#linearGradient18920);fill-opacity:1"><g
             id="g599"
             style="fill:url(#linearGradient18918);fill-opacity:1"><path
               d="m 161.269,267.42 c -5.826,-10.091 -5.826,-22.139 0,-32.23 v 0 c 1.147,-1.987 2.478,-3.809 3.957,-5.465 v 0 l 14.587,25.276 c 0.276,1.12 0.597,2.235 0.995,3.34 v 0 c 7.29387,39.61859 25.95697,76.40985 41.298,114.452 z"
               style="fill:#0b72ea;fill-opacity:1;stroke:none"
               id="path607"
               sodipodi:nodetypes="csssccsccc" /></g></g></g></g><g
       id="g351"
       transform="matrix(0.10050841,0,0,-0.10050841,6.7230261,18.619519)"><g
         id="g353"><path
           id="path361"
           style="fill:#0b80eb;fill-opacity:1;stroke:none"
           d="m 168.07652,279.30172 -6.80735,-11.78947 c -5.826,-10.09098 -5.827,-22.14109 0,-32.23208 5.82499,-10.08999 16.26023,-16.11347 27.91322,-16.11347 h 121.67367 c 11.65199,0.001 22.08623,6.02348 27.91323,16.11347 0.72807,1.26063 1.32824,2.56186 1.8715,3.87669 -0.54618,-1.31477 -1.18439,-2.60503 -1.91264,-3.86641 -5.82498,-10.09098 -16.2561,-16.11861 -27.90808,-16.11861 h -13.6147 c 18.58789,4.98065 24.14086,14.2276 25.06997,22.26271 h -10.99767 c -0.141,-0.005 -0.27761,-0.0154 -0.42161,-0.0154 h -111.47807 -0.0566 -10.13904 c 0,0 -0.0921,0.002 -0.25708,0.0103 -0.576,0.013 -1.124,0.0632 -1.635,0.15424 -6.58699,0.853 -27.69678,6.0641 -19.21379,37.71807 z m 172.56427,-40.14486 c 0.31259,0.75655 0.63013,1.51327 0.88434,2.28283 h -0.10797 c -0.25216,-0.76281 -0.46507,-1.53347 -0.77637,-2.28283 z" /></g></g><g
       id="g11605"
       transform="matrix(0.10050841,0,0,-0.10050841,6.7230261,18.619519)"><g
         id="g11603"><g
           id="g11601"><g
             id="g11599" /></g></g></g><g
       id="g11616"
       transform="matrix(0.10050841,0,0,-0.10050841,6.7230261,18.619519)"><g
         id="g11614"><g
           id="g11612"><g
             id="g11610" /></g></g></g><g
       id="g363"
       transform="matrix(0.10050841,0,0,-0.10050841,6.7230261,18.619519)"><g
         id="g365"><g
           id="g371"><g
             id="g373"><path
               id="path381"
               style="fill:#77bd10;fill-opacity:1;stroke:none"
               d="m 341.41716,241.43969 c -0.25216,-0.76281 -0.46507,-1.53347 -0.77637,-2.28283 0.31259,0.75655 0.63013,1.51327 0.88434,2.28283 z m -0.77637,-2.28283 c -0.54618,-1.31477 -1.18439,-2.60503 -1.91264,-3.86641 -5.82498,-10.09098 -16.2561,-16.11861 -27.90808,-16.11861 h -13.6147 c 18.58789,4.98065 24.14086,14.2276 25.06997,22.26271 h -9.93338 c -1.107,-0.32 -2.2364,-0.59922 -3.39339,-0.80722 L 189.18239,219.1667 h 121.67367 c 11.65199,0.001 22.08623,6.02348 27.91323,16.11347 0.72807,1.26063 1.32824,2.56186 1.8715,3.87669 z" /></g></g></g></g><g
       id="g11692"
       transform="matrix(0.10050841,0,0,-0.10050841,6.7230261,18.619519)"><g
         id="g11690"><g
           id="g11688"><g
             id="g11686" /></g></g></g></g></svg>
