<?xml version="1.0" encoding="UTF-8" standalone="no"?>
<svg
   width="312.26804"
   height="43.624893"
   viewBox="0 0 312.26804 43.624893"
   version="1.1"
   id="svg30358"
   sodipodi:docname="halopst-bps.svg"
   inkscape:version="1.2.2 (b0a84865, 2022-12-01)"
   xml:space="preserve"
   xmlns:inkscape="http://www.inkscape.org/namespaces/inkscape"
   xmlns:sodipodi="http://sodipodi.sourceforge.net/DTD/sodipodi-0.dtd"
   xmlns="http://www.w3.org/2000/svg"
   xmlns:svg="http://www.w3.org/2000/svg"
   xmlns:rdf="http://www.w3.org/1999/02/22-rdf-syntax-ns#"
   xmlns:cc="http://creativecommons.org/ns#"
   xmlns:dc="http://purl.org/dc/elements/1.1/"><defs
     id="defs30362"><linearGradient
       x1="0"
       y1="0"
       x2="1.0046096"
       y2="-0.038156901"
       gradientUnits="userSpaceOnUse"
       gradientTransform="matrix(-718.91553,615.71521,-615.71521,-718.91553,2759.5359,1207.2466)"
       spreadMethod="pad"
       id="linearGradient328"><stop
         style="stop-color:#008c54;stop-opacity:1;"
         offset="0"
         id="stop324" /><stop
         style="stop-color:#bbff35;stop-opacity:1;"
         offset="1"
         id="stop326" /></linearGradient><linearGradient
       x1="0.056547876"
       y1="0.12918381"
       x2="0.78292638"
       y2="0.070499144"
       gradientUnits="userSpaceOnUse"
       gradientTransform="matrix(-725.20911,229.28946,-229.28946,-725.20911,3116.3494,1549.3401)"
       spreadMethod="pad"
       id="linearGradient348"><stop
         style="stop-color:#00dbff;stop-opacity:1;"
         offset="0"
         id="stop344" /><stop
         style="stop-color:#005eb3;stop-opacity:1;"
         offset="1"
         id="stop346" /></linearGradient><clipPath
       clipPathUnits="userSpaceOnUse"
       id="clipPath366"><path
         d="m 2501.87,2125.09 h 54.31 V 1070.74 h -54.31 z"
         id="path364" /></clipPath><clipPath
       clipPathUnits="userSpaceOnUse"
       id="clipPath49238"><path
         d="M 0,775.286 H 2740.829 V 0 H 0 Z"
         id="path49236" /></clipPath></defs><sodipodi:namedview
     id="namedview30360"
     pagecolor="#ffffff"
     bordercolor="#000000"
     borderopacity="0.25"
     inkscape:showpageshadow="2"
     inkscape:pageopacity="0.0"
     inkscape:pagecheckerboard="0"
     inkscape:deskcolor="#d1d1d1"
     showgrid="false"
     inkscape:zoom="1.489975"
     inkscape:cx="137.25062"
     inkscape:cy="38.591251"
     inkscape:window-width="1246"
     inkscape:window-height="558"
     inkscape:window-x="0"
     inkscape:window-y="25"
     inkscape:window-maximized="0"
     inkscape:current-layer="svg30358" /><title
     id="title30352">down-arrow</title><metadata
     id="metadata31209"><rdf:RDF><cc:Work
         rdf:about=""><dc:title>down-arrow</dc:title></cc:Work></rdf:RDF></metadata><path
     id="path23342"
     style="font-style:italic;font-size:575.388px;line-height:1.3;font-family:Rubik;-inkscape-font-specification:'Rubik Italic';text-align:center;text-anchor:middle;fill:#0061b5;fill-opacity:1;stroke-width:0.377259;stroke-linecap:square;paint-order:stroke markers fill"
     d="m 43.445501,10.497218 c -0.226688,0 -0.443084,0.08249 -0.649149,0.247337 -0.185459,0.164852 -0.298802,0.360614 -0.340033,0.587296 l -4.327542,20.277591 c -0.04117,0.226683 0,0.422434 0.123696,0.587298 0.144291,0.164868 0.329685,0.247253 0.556372,0.247253 h 1.143734 c 0.22669,0 0.43279,-0.08239 0.618219,-0.247253 0.2061,-0.164851 0.329682,-0.360615 0.370913,-0.587298 l 4.327542,-20.277597 c 0.04117,-0.226683 -0.0099,-0.422434 -0.154521,-0.587297 -0.12363,-0.164853 -0.298857,-0.247337 -0.525545,-0.247337 z M 5.2703475,10.806324 c -0.226671,0 -0.44307,0.08249 -0.649147,0.247337 -0.185469,0.164853 -0.298823,0.360625 -0.340038,0.587296 L 0.01546852,31.609441 c -0.04124,0.247288 -1.5e-5,0.453365 0.12363,0.618223 0.144258,0.144257 0.329767,0.216326 0.556448,0.216326 H 1.9628345 c 0.226683,0 0.43276,-0.08239 0.618219,-0.247253 0.206079,-0.164852 0.329755,-0.360615 0.37097,-0.587296 L 4.8066885,22.89249 H 15.687332 l -1.854652,8.716951 c -0.04124,0.226682 -2.9e-5,0.422433 0.123613,0.587296 0.144257,0.164867 0.329699,0.247253 0.55637,0.247253 h 1.267383 c 0.226671,0 0.432755,-0.08239 0.618212,-0.247253 0.206082,-0.164852 0.329748,-0.360615 0.370963,-0.587296 l 4.265692,-19.968485 c 0.04117,-0.226677 -0.01061,-0.422439 -0.154571,-0.587294 -0.12363,-0.164858 -0.298828,-0.247332 -0.525506,-0.247332 h -1.267281 c -0.226693,0 -0.443077,0.08249 -0.649146,0.247337 -0.185468,0.164853 -0.298823,0.360626 -0.340044,0.587297 l -1.823738,8.46961 H 5.3939805 l 1.823735,-8.469618 c 0.04123,-0.226671 -0.0103,-0.422444 -0.154553,-0.587296 -0.123638,-0.164853 -0.298763,-0.247338 -0.525446,-0.247338 z M 29.13379,16.061208 c -1.957693,0 -3.657828,0.607909 -5.100325,1.82374 -1.421899,1.215813 -2.421324,2.946849 -2.998333,5.193025 -0.226688,0.865509 -0.370914,1.535253 -0.432734,2.009221 -0.08239,0.494574 -0.123696,1.030405 -0.123696,1.607405 0,1.834043 0.504864,3.307458 1.514628,4.420253 1.030353,1.092167 2.390488,1.638255 4.080288,1.638255 1.174594,0 2.13284,-0.175112 2.87469,-0.525445 0.741855,-0.370925 1.390994,-0.896444 1.94736,-1.576479 l -0.216283,0.958263 c -0.04117,0.226682 -2.9e-5,0.422434 0.12363,0.587297 0.144224,0.164868 0.329682,0.247254 0.556371,0.247254 h 1.143751 c 0.226688,0 0.432734,-0.08239 0.618224,-0.247254 0.206044,-0.164851 0.329682,-0.360615 0.370913,-0.587297 l 3.060165,-14.404494 c 0.04117,-0.226683 -0.01061,-0.422517 -0.154571,-0.587369 -0.12363,-0.164863 -0.298745,-0.247254 -0.525435,-0.247254 h -1.14375 c -0.22669,0 -0.442973,0.08239 -0.649067,0.247254 -0.185456,0.164852 -0.298801,0.360686 -0.340032,0.587369 l -0.185541,0.958178 c -0.288503,-0.556398 -0.814019,-1.040631 -1.57648,-1.452774 -0.741861,-0.43275 -1.689784,-0.649149 -2.843773,-0.649148 z m 26.057839,0 c -2.019506,0 -3.791792,0.628564 -5.31674,1.88559 -1.504316,1.257043 -2.565578,2.92623 -3.183807,5.007545 -0.103003,0.370937 -0.226633,0.875801 -0.370858,1.51463 -0.144291,0.618211 -0.226745,1.081889 -0.247332,1.390999 -0.04117,0.453354 -0.06177,0.783117 -0.06177,0.989188 0,1.792817 0.55637,3.225042 1.669168,4.296623 1.133403,1.071559 2.637697,1.607327 4.51296,1.607327 2.143133,0 3.936006,-0.618233 5.378515,-1.854668 1.463097,-1.236419 2.514052,-2.915939 3.152864,-5.038469 0.12363,-0.412139 0.247332,-0.906693 0.37097,-1.483701 0.12363,-0.597608 0.206044,-1.071601 0.247275,-1.421927 0.04117,-0.453354 0.06188,-0.793345 0.06188,-1.02003 0,-1.772203 -0.566715,-3.194114 -1.700101,-4.265695 -1.133478,-1.071585 -2.637784,-1.607413 -4.51303,-1.607412 z m -26.088767,2.658369 c 1.112775,0 1.957655,0.298795 2.534664,0.896401 0.597606,0.577005 0.896476,1.411628 0.896476,2.503816 0,0.350319 -0.03116,0.741838 -0.09276,1.174585 -0.123647,0.783076 -0.288508,1.597062 -0.494608,2.441961 -0.350328,1.318862 -1.050969,2.380141 -2.101926,3.183805 -1.030363,0.783086 -2.184331,1.174592 -3.461985,1.174592 -0.989149,0 -1.761931,-0.309117 -2.318336,-0.927327 -0.556371,-0.618212 -0.834629,-1.48374 -0.834629,-2.596514 0,-0.247286 0.04117,-0.679998 0.123696,-1.29822 0.103003,-0.659428 0.226635,-1.236459 0.370915,-1.731034 0.391503,-1.504329 1.050957,-2.678947 1.97828,-3.523848 0.947941,-0.865497 2.081353,-1.298215 3.400224,-1.298215 z m 26.088767,0 c 2.246178,0 3.369291,1.133419 3.369291,3.400218 0,0.206073 -0.02059,0.535738 -0.06188,0.989104 -0.12363,0.927327 -0.309095,1.792827 -0.556372,2.596512 -0.391557,1.29826 -1.102487,2.359519 -2.132844,3.183811 -1.009758,0.803669 -2.21534,1.205515 -3.616628,1.205515 -1.092193,0 -1.926739,-0.319356 -2.503732,-0.95818 -0.556363,-0.659436 -0.834615,-1.524936 -0.834615,-2.596517 0,-0.185468 0.02059,-0.463697 0.06188,-0.834624 0.12363,-0.865508 0.309093,-1.731012 0.55637,-2.596514 0.391557,-1.29826 1.092165,-2.349198 2.101924,-3.152884 1.009731,-0.82428 2.21533,-1.236439 3.616618,-1.236441 z M 31.821273,33.980732 c -0.132932,0 -0.265415,0.06417 -0.397455,0.192567 -0.132037,0.128389 -0.222403,0.280829 -0.271034,0.457367 -0.415708,1.508607 -0.432011,2.664187 -0.04897,3.466635 0.366573,0.818502 1.112008,1.38022 2.236395,1.685158 1.124398,0.304928 2.707762,0.457366 4.749982,0.457366 2.042231,0 3.703498,-0.152431 4.983857,-0.457366 1.292469,-0.304938 2.347505,-0.866661 3.165184,-1.68516 0.825337,-0.802455 1.445869,-1.958029 1.861581,-3.466635 0.04842,-0.176538 0.04228,-0.328976 -0.01892,-0.457367 -0.06127,-0.128388 -0.158417,-0.192568 -0.291288,-0.192568 h -0.580049 c -0.132932,0 -0.265358,0.06417 -0.397398,0.192568 -0.132037,0.128389 -0.22246,0.280829 -0.271091,0.457367 -0.274208,0.99504 -0.731351,1.733297 -1.371548,2.214769 -0.632556,0.497514 -1.446092,0.818534 -2.440537,0.962974 -0.998886,0.16049 -2.344204,0.240722 -4.035991,0.240722 -1.691788,0 -2.998978,-0.08019 -3.92149,-0.240722 -0.914899,-0.144423 -1.551456,-0.46545 -1.909801,-0.962964 -0.374865,-0.481475 -0.425221,-1.219732 -0.151006,-2.214769 0.04897,-0.176538 0.04228,-0.328976 -0.01892,-0.457367 -0.06127,-0.128388 -0.158418,-0.192566 -0.291347,-0.192566 z"
     sodipodi:nodetypes="sccccssccccsssccccssccccccssccccssccccccssscccscsccccssccccssccccssccccscsccccsssssscccssscccssssccscscccsssscssccssssssccsccsssscsc"
     clip-path="none" /><path
     id="path21915"
     clip-path="none"
     style="font-weight:bold;font-size:575.388px;line-height:1.3;font-family:Rubik;-inkscape-font-specification:'Rubik Bold';text-align:center;text-anchor:middle;fill:#0061b5;fill-opacity:1;stroke-width:0.382135;stroke-linecap:square;paint-order:stroke markers fill"
     d="m 93.506472,10.190759 c -1.75338,0 -3.30987,0.313984 -4.66666,0.940186 -1.33591,0.605333 -2.36842,1.427789 -3.09898,2.471467 -0.73058,1.022808 -1.09653,2.141021 -1.09653,3.351687 0,1.795128 0.5015,3.234292 1.50345,4.319714 1.00192,1.064557 2.56754,1.828068 4.69664,2.287285 l 1.40921,0.280557 c 1.46115,0.313115 2.52525,0.552613 3.19321,0.719595 0.66795,0.166999 1.18072,0.377024 1.53556,0.627504 0.37573,0.229613 0.56326,0.52108 0.56326,0.875936 0,1.106296 -1.29449,1.659781 -3.88283,1.659781 -0.75143,0 -1.40887,-0.115257 -1.97245,-0.344806 -0.54273,-0.250493 -0.94938,-0.521609 -1.22075,-0.813827 -0.27139,-0.313104 -0.43855,-0.500632 -0.50115,-0.563255 -0.33399,-0.292231 -0.73153,-0.43904 -1.19075,-0.43904 h -4.10127 c -0.16699,0 -0.32289,0.07452 -0.46902,0.220591 -0.12525,0.125236 -0.18847,0.281161 -0.18847,0.469021 0.0414,1.06456 0.48004,2.097041 1.31498,3.098972 0.83495,1.001927 1.98262,1.817416 3.44378,2.443627 1.46113,0.626202 3.09,0.938044 4.8851,0.938044 1.85777,0 3.51606,-0.271117 4.97721,-0.813829 1.482018,-0.563582 2.631868,-1.356569 3.445908,-2.379376 0.83495,-1.043677 1.25073,-2.254583 1.25073,-3.632244 0,-1.899496 -0.55349,-3.361159 -1.65977,-4.383963 -1.10629,-1.022797 -2.836948,-1.772928 -5.195648,-2.253019 -1.83688,-0.375728 -3.13137,-0.658091 -3.88282,-0.845952 -0.73058,-0.187867 -1.2728,-0.395754 -1.62766,-0.625363 -0.35485,-0.250485 -0.53327,-0.58482 -0.53327,-1.002294 0,-0.584456 0.28235,-0.991129 0.84595,-1.220742 0.58445,-0.25048 1.32547,-0.376931 2.22304,-0.376931 0.64707,0 1.20968,0.09482 1.68976,0.282698 0.50099,0.187862 0.86692,0.407008 1.09653,0.657487 0.22959,0.229613 0.36513,0.365176 0.40691,0.406915 0.20873,0.187861 0.39627,0.323422 0.56326,0.406914 0.167,0.06268 0.3974,0.09424 0.68961,0.09424 h 4.101268 c 0.167,0 0.31383,-0.06326 0.43903,-0.188466 0.14614,-0.14611 0.21845,-0.313285 0.21845,-0.501146 -0.0418,-0.918419 -0.46879,-1.858233 -1.28285,-2.818416 -0.79321,-0.960189 -1.891048,-1.753174 -3.289578,-2.379376 -1.39853,-0.647081 -2.94164,-0.970169 -4.63239,-0.970169 z M 64.951814,10.50344 c -0.229593,0 -0.428385,0.08361 -0.59538,0.250574 -0.167,0.166994 -0.250573,0.365767 -0.250573,0.595378 v 20.225771 c 0,0.229613 0.08363,0.428386 0.250573,0.59538 0.167,0.167 0.365787,0.250573 0.59538,0.250573 h 4.101258 c 0.22959,0 0.42838,-0.08357 0.59538,-0.250573 0.167,-0.167 0.24844,-0.365767 0.24844,-0.59538 v -6.386409 h 4.00917 c 2.71356,0 4.83264,-0.625826 6.35642,-1.878229 1.54465,-1.252412 2.31513,-3.080032 2.31513,-5.48049 0,-2.400465 -0.77048,-4.216819 -2.31513,-5.448365 -1.52378,-1.252409 -3.64286,-1.87823 -6.35642,-1.87823 z m 40.796346,0 c -0.22959,0 -0.42845,0.08361 -0.59538,0.250574 -0.167,0.166994 -0.25058,0.365767 -0.25058,0.595378 v 3.319563 c 0,0.229612 0.0836,0.426244 0.25058,0.593238 0.167,0.166994 0.36579,0.250574 0.59538,0.250574 h 5.51047 v 16.062396 c 0,0.229613 0.084,0.428386 0.25057,0.59538 0.167,0.167 0.36579,0.250573 0.59538,0.250573 h 4.10127 c 0.22959,0 0.42831,-0.08357 0.59538,-0.250573 0.16705,-0.166981 0.25057,-0.365767 0.25057,-0.59538 V 15.512767 h 5.51047 c 0.2296,0 0.42833,-0.08358 0.59538,-0.250574 0.16706,-0.166994 0.25058,-0.363626 0.25058,-0.593238 v -3.319563 c 0,-0.229599 -0.0839,-0.428384 -0.25058,-0.595378 -0.167,-0.166995 -0.36578,-0.250574 -0.59538,-0.250574 z m -35.851268,4.852985 h 3.85283 c 0.91844,0 1.64818,0.210022 2.1909,0.627505 0.56359,0.396594 0.84596,1.011164 0.84596,1.846105 0,0.834946 -0.28238,1.460757 -0.84596,1.878229 -0.54271,0.396594 -1.27247,0.59538 -2.1909,0.59538 h -3.85283 z"
     sodipodi:nodetypes="sccscccscsscccssscsssccsscccscsccccssscccssssscsssscscscsssssssscscsssscsssscsscscscscc" /><rect
     style="fill:#0061b5;fill-opacity:1;stroke-width:0.585827;stroke-linecap:square;paint-order:stroke markers fill;stop-color:#000000"
     id="rect43606"
     width="1.6778806"
     height="43.624893"
     x="137.53931"
     y="0"
     rx="0.83894032"
     ry="0.83894032" /><g
     id="g54753"
     transform="matrix(3.1068422,0,0,3.1068422,1133.9043,-111.49199)"
     inkscape:export-filename="logo-bps-warna-putih.png"
     inkscape:export-xdpi="300"
     inkscape:export-ydpi="300"><g
       id="g49767"
       transform="matrix(0.02501927,0,0,-0.02501927,-319.11871,52.537487)"><g
         id="g49765"
         clip-path="url(#clipPath49238)"><g
           id="g49715"
           transform="translate(267.8434,185.7828)"><path
             d="m 0,0 c -0.013,-0.099 -0.026,-0.199 -0.04,-0.298 h -66.406 c -0.012,0.1 -0.025,0.2 -0.039,0.299 0.417,0.021 0.833,0.059 1.249,0.059 18.82,0.002 37.64,0.003 56.46,-0.003 C -5.851,0.056 -2.925,0.02 0,0"
             style="fill:#bdd7a2;fill-opacity:1;fill-rule:nonzero;stroke:none"
             id="path49713" /></g><g
           id="g49719"
           transform="translate(257.7545,515.7077)"><path
             d="m 0,0 c 1.801,0.283 3.306,1.304 4.934,2.007 27.603,11.92 55.666,22.523 84.905,29.772 9.451,2.343 18.998,4.233 28.613,5.762 1.17,0.186 1.554,0.702 1.795,1.749 1.274,5.526 2.589,11.043 3.932,16.552 1.259,5.164 5.469,8.533 10.763,8.536 34.872,0.017 69.744,0.01 104.616,0.006 0.466,0 0.932,-0.057 1.427,-0.181 -15.204,-3.359 -28.445,-9.9 -38.097,-23.109 2.849,-0.306 5.357,-0.579 7.866,-0.844 20.861,-2.204 41.293,-6.408 61.103,-13.379 17.232,-6.063 33.534,-13.937 47.891,-25.421 10.121,-8.095 18.915,-17.416 23.706,-29.65 9.498,-24.251 8.847,-48.331 -2.32,-71.987 -6.925,-14.671 -16.808,-27.216 -28.079,-38.73 -15.888,-16.231 -33.92,-29.825 -52.648,-42.551 -0.142,-0.096 -0.33,-0.125 -0.496,-0.186 -0.066,0.085 -0.134,0.169 -0.204,0.25 7.332,6.331 14.735,12.582 21.789,19.228 12.706,11.972 24.618,24.616 33.572,39.754 8.815,14.901 13.488,30.956 12.941,48.328 -0.379,12.068 -2.062,23.974 -7.168,35.061 -5.309,11.529 -13.983,20.318 -23.939,27.909 -14.513,11.066 -30.853,18.584 -48.038,24.4 -16.232,5.493 -32.912,9.052 -49.863,11.433 -1.225,0.172 -1.473,-0.293 -1.722,-1.344 -5.555,-23.471 -11.151,-46.933 -16.74,-70.396 -0.415,-1.742 -0.754,-3.507 -1.271,-5.219 -0.394,-1.304 0.082,-1.615 1.256,-1.495 0.415,0.042 0.837,0.006 1.256,0.006 27.818,0 55.635,0.002 83.453,-0.007 1.073,0 2.179,0.039 3.214,-0.19 3.414,-0.755 5.35,-4.072 4.48,-7.788 -2.614,-11.161 -5.294,-22.306 -7.947,-33.458 -6.48,-27.24 -12.956,-54.481 -19.44,-81.72 -1.312,-5.509 -5.572,-8.893 -11.258,-8.897 -20.819,-0.013 -41.637,-0.011 -62.455,-0.001 -5.808,0.003 -8.436,3.31 -7.089,8.979 8.427,35.492 16.873,70.978 25.319,106.465 0.64,2.689 0.658,2.685 -2.178,2.685 -27.579,0 -55.157,-10e-4 -82.735,0 -7.405,0 -9.669,2.904 -7.947,10.139 6.442,27.065 12.875,54.132 19.312,81.198 0.43,1.808 0.431,1.806 -2.047,1.533 C 93.813,22.919 73.513,18.857 53.561,13.092 34.793,7.669 16.432,1.038 -1.825,-5.888 c -0.393,-0.133 -0.79,-0.255 -1.178,-0.402 -11.609,-4.417 -23.061,-9.222 -34.521,-14.006 -0.058,0.087 -0.125,0.167 -0.199,0.241 0.536,0.36 1.055,0.748 1.609,1.078 5.943,3.536 12.002,6.865 18.174,9.981 5.842,2.95 11.736,5.796 17.607,8.688 0.196,0.02 0.383,0.05 0.348,0.321 z"
             style="fill:#ff8c00;fill-opacity:1;fill-rule:nonzero;stroke:none"
             id="path49717" /></g><g
           id="g49723"
           transform="translate(220.2302,495.4115)"><path
             d="m 0,0 c 11.46,4.784 22.912,9.589 34.521,14.006 0.388,0.147 0.786,0.269 1.178,0.403 -1.484,-6.392 -2.953,-12.786 -4.455,-19.173 -2.105,-8.948 -4.187,-17.901 -6.398,-26.822 -0.408,-1.648 -0.01,-1.899 1.516,-1.897 26.021,0.036 52.042,0.026 78.062,0.026 2.513,0 5.026,0.024 7.538,-0.009 4.806,-0.064 7.513,-3.437 6.413,-8.122 -3.234,-13.772 -6.515,-27.532 -9.791,-41.294 -5.834,-24.503 -11.675,-49.004 -17.521,-73.504 -1.399,-5.862 -5.565,-9.141 -11.615,-9.142 -35.173,-0.005 -70.346,-0.003 -105.519,-0.003 h -1.349 c 3.06,0.757 5.734,1.294 8.332,2.082 11.633,3.527 21.803,9.327 29.565,18.954 3.545,4.397 4.934,9.569 6.183,14.894 4.674,19.932 9.438,39.843 14.168,59.762 1.655,6.969 3.275,13.946 4.993,20.899 0.31,1.254 0.215,1.677 -1.203,1.675 -19.979,-0.035 -39.958,-0.037 -59.937,-0.003 -1.793,0.003 -3.109,-0.64 -4.435,-1.83 -13.505,-12.122 -26.508,-24.72 -37.552,-39.194 -11.685,-15.313 -20.433,-32.028 -23.825,-51.175 -2.288,-12.911 -2.976,-25.899 0.13,-38.788 2.19,-9.09 7.02,-16.831 13.229,-23.719 10.455,-11.598 23.473,-19.492 37.598,-25.741 10.021,-4.435 20.43,-7.727 31.048,-10.388 -1.289,-6.534 -2.891,-12.995 -4.595,-19.432 -13.022,1.892 -25.816,4.772 -38.336,8.842 -14.514,4.718 -28.325,10.885 -40.732,19.898 -10.004,7.268 -18.419,15.952 -23.862,27.234 -3.134,6.495 -4.616,13.388 -5.219,20.534 -2.3,27.253 6.884,50.967 22.373,72.728 11.277,15.841 24.987,29.404 39.668,42.041 7.208,6.205 14.674,12.087 22.286,17.786 0.33,0.247 0.647,0.51 0.968,0.764 -0.316,0.693 -0.867,0.401 -1.27,0.404 -4.426,0.025 -8.852,-0.008 -13.278,0.024 -5.112,0.037 -7.771,3.436 -6.583,8.436 6.411,27.002 12.835,54 19.26,80.998 2.694,11.321 5.383,22.644 8.106,33.958 1.251,5.197 5.445,8.535 10.742,8.539 21.173,0.017 42.346,0.017 63.52,-10e-4 5.05,-0.004 7.753,-3.368 6.6,-8.255 -4.234,-17.949 -8.508,-35.889 -12.767,-53.832 -0.177,-0.745 -0.489,-1.477 -0.231,-2.267 0,0 0.015,0.013 0.015,0.013 -0.318,0.112 -0.3,-0.14 -0.347,-0.321 C 31.321,17.096 25.426,14.25 19.585,11.301 13.413,8.184 7.353,4.855 1.41,1.319 0.856,0.989 0.337,0.602 -0.198,0.241 -0.399,0.164 -0.599,0.087 -0.8,0.01 -0.536,-0.249 -0.269,-0.166 0,0"
             style="fill:#0070be;fill-opacity:1;fill-rule:nonzero;stroke:none"
             id="path49721" /></g><g
           id="g49727"
           transform="translate(206.5094,237.8763)"><path
             d="m 0,0 c 1.704,6.437 3.306,12.898 4.594,19.433 1.787,7.362 3.593,14.72 5.356,22.089 2.333,9.752 4.613,19.517 6.952,29.268 1.379,5.748 5.354,9.043 11.282,9.059 23.325,0.063 46.65,0.038 69.975,0.045 4.964,0.002 9.93,0.075 14.892,-0.044 1.53,-0.037 2.025,0.5 2.354,1.888 6.343,26.836 12.731,53.661 19.11,80.488 2.154,9.058 4.295,18.119 6.47,27.173 1.226,5.102 5.496,8.599 10.75,8.61 21.172,0.041 42.345,0.039 63.517,-10e-4 5.096,-0.01 7.758,-3.484 6.572,-8.493 -6.518,-27.53 -13.066,-55.054 -19.611,-82.578 -2.555,-10.742 -5.115,-21.483 -7.699,-32.219 -1.322,-5.492 -5.471,-8.746 -11.132,-8.747 -28.289,-0.008 -56.578,-0.017 -84.867,0.033 -1.474,0.002 -2.04,-0.393 -2.381,-1.843 C 92.14,47.136 88.073,30.127 84.029,13.114 83.933,12.708 83.89,12.29 83.823,11.877 82.477,7.25 81.479,2.537 80.416,-2.159 c -3.268,-13.728 -6.534,-27.456 -9.804,-41.183 -1.128,-4.734 -4.608,-8.013 -9.278,-8.751 -2.925,0.02 -5.851,0.056 -8.776,0.057 -18.82,0.006 -37.64,0.004 -56.46,0.002 -0.416,0 -0.832,-0.038 -1.249,-0.058 -4.226,0.802 -6.218,3.976 -5.174,8.387 3.337,14.104 6.705,28.2 10.057,42.3 C -0.158,-0.942 -0.089,-0.469 0,0"
             style="fill:#33ac4b;fill-opacity:1;fill-rule:nonzero;stroke:none"
             id="path49725" /></g><g
           id="g49731"
           transform="translate(286.9257,235.7172)"><path
             d="m 0,0 c 1.063,4.696 2.06,9.409 3.407,14.036 12.96,0.451 25.868,1.481 38.738,3.112 44.202,5.603 86.436,18.285 127.498,35.232 30.989,12.79 60.759,27.954 89.167,45.771 0.401,0.252 0.841,0.44 1.263,0.658 0.09,-0.099 0.181,-0.199 0.271,-0.298 -4.507,-3.557 -9.291,-6.724 -14.059,-9.908 C 208.219,63.192 167.413,43.258 124.423,27.693 99.794,18.776 74.678,11.593 48.955,6.61 35.588,4.02 22.135,1.952 8.569,0.687 5.715,0.421 2.878,-0.035 0,0"
             style="fill:#3296ca;fill-opacity:1;fill-rule:nonzero;stroke:none"
             id="path49729" /></g><g
           id="g49735"
           transform="translate(546.9987,334.5261)"><path
             d="M 0,0 C 0.285,0.365 0.641,0.615 1.108,0.685 1.169,0.61 1.229,0.534 1.287,0.457 1.058,0.056 0.663,-0.121 0.27,-0.297 0.181,-0.199 0.09,-0.099 0,0"
             style="fill:#3296ca;fill-opacity:1;fill-rule:nonzero;stroke:none"
             id="path49733" /></g><g
           id="g49739"
           transform="translate(549.2225,335.8843)"><path
             d="M 0,0 C 0.071,0.237 0.229,0.34 0.471,0.29 0.506,0.283 0.527,0.203 0.554,0.156 0.368,0.105 0.182,0.054 -0.003,0.003 -0.003,0.003 0,0 0,0"
             style="fill:#3296ca;fill-opacity:1;fill-rule:nonzero;stroke:none"
             id="path49737" /></g><g
           id="g49743"
           transform="translate(548.9065,335.4841)"><path
             d="m 0,0 c -0.208,-0.166 -0.416,-0.332 -0.622,-0.5 -0.057,0.076 -0.117,0.152 -0.178,0.228 0.139,0.282 0.39,0.369 0.679,0.39 C -0.121,0.118 0,0 0,0"
             style="fill:#3296ca;fill-opacity:1;fill-rule:nonzero;stroke:none"
             id="path49741" /></g><g
           id="g49747"
           transform="translate(517.6654,334.0537)"><path
             d="m 0,0 c -0.176,-0.302 -0.396,-0.493 -0.767,-0.304 l 0.026,-0.027 c 0.179,0.194 0.359,0.387 0.537,0.581 C -0.134,0.169 -0.066,0.086 0,0"
             style="fill:#e18a3a;fill-opacity:1;fill-rule:nonzero;stroke:none"
             id="path49745" /></g><g
           id="g49751"
           transform="translate(516.8981,333.7494)"><path
             d="m 0,0 c 0.058,-0.281 -0.062,-0.41 -0.34,-0.361 -0.082,0.015 -0.151,0.105 -0.226,0.161 0.197,0.058 0.395,0.116 0.592,0.174 C 0.026,-0.026 0,0 0,0"
             style="fill:#e18a3a;fill-opacity:1;fill-rule:nonzero;stroke:none"
             id="path49749" /></g><g
           id="g49755"
           transform="translate(548.7858,335.6023)"><path
             d="m 0,0 0.437,0.282 c 0,0 -0.004,0.003 -0.004,0.003 C 0.511,0.009 0.329,-0.065 0.12,-0.118 0.121,-0.118 0,0 0,0"
             style="fill:#3296ca;fill-opacity:1;fill-rule:nonzero;stroke:none"
             id="path49753" /></g><g
           id="g49759"
           transform="translate(257.4219,515.3992)"><path
             d="M 0,0 C 0.047,0.182 0.029,0.433 0.348,0.321 0.383,0.05 0.196,0.02 0,0"
             style="fill:#ffffff;fill-opacity:1;fill-rule:nonzero;stroke:none"
             id="path49757" /></g><g
           id="g49763"
           transform="translate(220.2302,495.4115)"><path
             d="m 0,0 c -0.269,-0.166 -0.536,-0.249 -0.8,0.01 0.201,0.077 0.401,0.154 0.602,0.231 C -0.124,0.167 -0.058,0.087 0,0"
             style="fill:#e18a3a;fill-opacity:1;fill-rule:nonzero;stroke:none"
             id="path49761" /></g></g></g><path
       id="path48923"
       style="font-style:italic;font-weight:bold;font-size:3.01723px;font-family:Arial;-inkscape-font-specification:Arial-BoldItalicMT;fill:#0061b5;stroke-width:0.0250193"
       d="m -285.26865,39.557913 c -0.24948,0 -0.43984,0.05997 -0.57145,0.179795 -0.13161,0.119824 -0.1974,0.270299 -0.1974,0.452001 0,0.10411 0.0224,0.195244 0.0666,0.272835 0.0442,0.07759 0.10445,0.140747 0.18105,0.189853 0.0776,0.04813 0.19954,0.109 0.36651,0.181681 0.16794,0.07268 0.2707,0.12475 0.30804,0.157163 0.0531,0.0442 0.0798,0.09835 0.0798,0.162193 0,0.07366 -0.0326,0.136542 -0.0975,0.188595 -0.0648,0.05205 -0.16959,0.07795 -0.31495,0.07795 -0.17485,0 -0.29479,-0.03843 -0.35959,-0.115043 -0.0401,-0.04714 -0.0632,-0.137649 -0.0691,-0.272207 l -0.42308,0.022 c -0.004,0.144379 0.022,0.271864 0.0779,0.38285 0.056,0.110984 0.15175,0.198031 0.28729,0.260891 0.13653,0.06188 0.29781,0.09304 0.48344,0.09304 0.26911,0 0.479,-0.06724 0.62928,-0.201797 0.15125,-0.13554 0.22631,-0.298552 0.22631,-0.489092 0,-0.154201 -0.0503,-0.280861 -0.1515,-0.379078 -0.0678,-0.06679 -0.22615,-0.153205 -0.47464,-0.260262 -0.165,-0.0717 -0.27122,-0.128483 -0.31935,-0.169736 -0.0481,-0.04027 -0.0723,-0.09151 -0.0723,-0.153392 0,-0.06581 0.0259,-0.120236 0.078,-0.163449 0.053,-0.04321 0.14126,-0.06475 0.26403,-0.06475 0.12471,0 0.21903,0.02735 0.28289,0.08235 0.0639,0.055 0.1011,0.134503 0.1119,0.237631 l 0.4256,-0.01949 c -0.0137,-0.197415 -0.09,-0.355161 -0.22946,-0.474004 -0.13848,-0.118842 -0.33501,-0.178537 -0.58841,-0.178537 z m 6.65051,0 c -0.24947,0 -0.43984,0.05997 -0.57144,0.179795 -0.13162,0.119824 -0.1974,0.270299 -0.1974,0.452001 0,0.10411 0.0218,0.195244 0.066,0.272835 0.0442,0.07759 0.10444,0.140747 0.18105,0.189853 0.0776,0.04813 0.20016,0.109 0.36713,0.181681 0.16794,0.07268 0.27071,0.12475 0.30804,0.157163 0.053,0.0442 0.0792,0.09835 0.0792,0.162193 0,0.07366 -0.0326,0.136542 -0.0974,0.188595 -0.0648,0.05205 -0.16959,0.07795 -0.31495,0.07795 -0.17485,0 -0.29479,-0.03843 -0.35959,-0.115043 -0.0402,-0.04714 -0.0632,-0.137649 -0.0692,-0.272207 l -0.42309,0.022 c -0.004,0.144379 0.0226,0.271864 0.0786,0.38285 0.056,0.110984 0.15175,0.198031 0.28729,0.260891 0.13652,0.06188 0.29718,0.09304 0.48281,0.09304 0.26912,0 0.479,-0.06724 0.62928,-0.201797 0.15125,-0.13554 0.22694,-0.298552 0.22694,-0.489092 0,-0.154201 -0.051,-0.280861 -0.15213,-0.379078 -0.0678,-0.06679 -0.22551,-0.153205 -0.47401,-0.260262 -0.16499,-0.0717 -0.27185,-0.128483 -0.31998,-0.169736 -0.0481,-0.04027 -0.0717,-0.09151 -0.0717,-0.153392 0,-0.06581 0.0259,-0.120236 0.078,-0.163449 0.053,-0.04321 0.14064,-0.06475 0.26341,-0.06475 0.12471,0 0.21903,0.02735 0.28289,0.08235 0.0639,0.055 0.1011,0.134503 0.1119,0.237631 l 0.42623,-0.01949 c -0.0138,-0.197415 -0.0906,-0.355161 -0.23009,-0.474004 -0.13848,-0.118842 -0.33439,-0.178537 -0.58779,-0.178537 z m 8.26867,0 c -0.24947,0 -0.44046,0.05997 -0.57207,0.179795 -0.13161,0.119824 -0.1974,0.270299 -0.1974,0.452001 0,0.10411 0.0224,0.195244 0.0666,0.272835 0.0442,0.07759 0.10445,0.140747 0.18105,0.189853 0.0776,0.04813 0.20017,0.109 0.36713,0.181681 0.16794,0.07268 0.27008,0.12475 0.30742,0.157163 0.0531,0.0442 0.0798,0.09835 0.0798,0.162193 0,0.07366 -0.0327,0.136542 -0.0975,0.188595 -0.0648,0.05205 -0.16959,0.07795 -0.31495,0.07795 -0.17485,0 -0.29479,-0.03843 -0.35959,-0.115043 -0.0401,-0.04714 -0.0632,-0.137649 -0.0692,-0.272207 l -0.42309,0.022 c -0.004,0.144379 0.022,0.271864 0.078,0.38285 0.056,0.110984 0.15175,0.198031 0.28729,0.260891 0.13653,0.06188 0.29781,0.09304 0.48344,0.09304 0.26911,0 0.479,-0.06724 0.62928,-0.201797 0.15125,-0.13554 0.22694,-0.298552 0.22694,-0.489092 0,-0.154201 -0.051,-0.280861 -0.15213,-0.379078 -0.0678,-0.06679 -0.22552,-0.153205 -0.47401,-0.260262 -0.165,-0.0717 -0.27185,-0.128483 -0.31998,-0.169736 -0.0481,-0.04027 -0.0723,-0.09151 -0.0723,-0.153392 0,-0.06581 0.0259,-0.120236 0.078,-0.163449 0.053,-0.04321 0.14126,-0.06475 0.26403,-0.06475 0.12471,0 0.21903,0.02735 0.28289,0.08235 0.0639,0.055 0.1011,0.134503 0.1119,0.237631 l 0.4256,-0.01949 c -0.0137,-0.197415 -0.09,-0.355161 -0.22946,-0.474004 -0.13848,-0.118842 -0.33439,-0.178537 -0.58779,-0.178537 z m -31.49047,0.03709 -0.452,2.159423 h 1.01779 c 0.22492,0 0.40219,-0.02562 0.53184,-0.0767 0.12964,-0.05107 0.23123,-0.134308 0.30489,-0.250204 0.0737,-0.116878 0.11065,-0.240001 0.11065,-0.369648 0,-0.09822 -0.0314,-0.186442 -0.0943,-0.264034 -0.0619,-0.07857 -0.14802,-0.133003 -0.25901,-0.163449 0.13947,-0.04518 0.24251,-0.111241 0.3093,-0.198655 0.0668,-0.08839 0.1,-0.192615 0.1,-0.31244 0,-0.08938 -0.0189,-0.170884 -0.0572,-0.244546 -0.0383,-0.07366 -0.0948,-0.132452 -0.16848,-0.176652 -0.0737,-0.0442 -0.16299,-0.07391 -0.26906,-0.08864 -0.0638,-0.0098 -0.17624,-0.01446 -0.33633,-0.01446 z m 2.7931,0 -1.22147,2.159423 h 0.4564 l 0.25964,-0.477148 h 0.85559 l 0.0723,0.477148 h 0.42119 l -0.35016,-2.159423 z m 1.57415,0 -0.452,2.159423 h 0.7613 c 0.19152,0 0.33327,-0.01046 0.42559,-0.03206 0.16305,-0.03929 0.2967,-0.100435 0.39983,-0.182938 0.13455,-0.106074 0.24604,-0.249004 0.33444,-0.428741 0.0894,-0.180719 0.1339,-0.387077 0.1339,-0.619851 0,-0.108039 -0.0113,-0.207622 -0.0339,-0.297982 -0.0226,-0.09134 -0.0552,-0.171669 -0.0974,-0.241402 -0.0413,-0.06974 -0.0904,-0.129431 -0.14837,-0.178538 -0.057,-0.05009 -0.12102,-0.0888 -0.19174,-0.116301 -0.0697,-0.0275 -0.1495,-0.04585 -0.23888,-0.05469 -0.0452,-0.0049 -0.14851,-0.0069 -0.31056,-0.0069 z m 2.78242,0 -1.22148,2.159423 h 0.45703 l 0.25901,-0.477148 h 0.85622 l 0.0723,0.477148 h 0.4212 l -0.35079,-2.159423 z m 1.57729,0 -0.45075,2.159423 h 0.41428 l 0.30301,-1.450931 0.58339,1.450931 h 0.41429 l 0.45074,-2.159423 h -0.4124 l -0.30238,1.445273 -0.58464,-1.445273 z m 3.00559,0 -0.45201,2.159423 h 0.44446 l 0.17225,-0.823535 h 0.28478 c 0.19152,0 0.32192,-0.0046 0.39165,-0.01446 0.11983,-0.0167 0.21532,-0.04087 0.28604,-0.0723 0.0707,-0.03241 0.13653,-0.07957 0.1974,-0.141446 0.0618,-0.06188 0.11364,-0.144562 0.1559,-0.24769 0.0423,-0.103127 0.0635,-0.209077 0.0635,-0.318098 0,-0.11786 -0.0268,-0.219173 -0.0798,-0.303639 -0.053,-0.08545 -0.12491,-0.14597 -0.21626,-0.182309 -0.0904,-0.03732 -0.21348,-0.05595 -0.36965,-0.05595 z m 2.0142,0 -0.23889,1.137233 c -0.0304,0.147329 -0.0476,0.23638 -0.0515,0.267806 -0.007,0.04715 -0.0107,0.09112 -0.0107,0.131389 0,0.193488 0.067,0.352137 0.20054,0.47589 0.13358,0.122771 0.3263,0.184195 0.57774,0.184195 0.21018,0 0.38364,-0.04134 0.52115,-0.123844 0.1375,-0.0825 0.24027,-0.189631 0.30804,-0.321242 0.0678,-0.13161 0.12773,-0.321699 0.17979,-0.570188 l 0.24581,-1.181239 h -0.4432 l -0.24769,1.179982 c -0.0393,0.190541 -0.078,0.325297 -0.1163,0.404852 -0.0383,0.07956 -0.0925,0.139528 -0.1622,0.179795 -0.0697,0.04027 -0.1576,0.06035 -0.26466,0.06035 -0.11883,0 -0.20997,-0.02735 -0.27283,-0.08235 -0.0619,-0.05598 -0.093,-0.126407 -0.093,-0.211856 0,-0.02161 0.002,-0.04523 0.006,-0.06978 l 0.0603,-0.288551 0.24455,-1.172438 z m 4.80228,0 -1.22148,2.159423 h 0.45641 l 0.25963,-0.477148 h 0.8556 l 0.0723,0.477148 h 0.42183 l -0.35079,-2.159423 z m 1.20512,0 -0.0754,0.360847 h 0.63368 l -0.37719,1.798576 h 0.44508 l 0.37594,-1.798576 h 0.62425 l 0.0754,-0.360847 z m 4.69478,0 -0.0754,0.360847 h 0.63368 l -0.37719,1.798576 h 0.44508 l 0.37594,-1.798576 h 0.62425 l 0.0754,-0.360847 z m 2.36877,0 -1.22148,2.159423 h 0.45704 l 0.259,-0.477148 h 0.85623 l 0.0723,0.477148 h 0.4212 l -0.35079,-2.159423 z m 1.20512,0 -0.0754,0.360847 h 0.63368 l -0.37719,1.798576 h 0.44508 l 0.37594,-1.798576 h 0.62425 l 0.0754,-0.360847 z m 1.96266,0 -0.452,2.159423 h 0.44508 l 0.45075,-2.159423 z m 2.73212,0 -0.0748,0.360847 h 0.63306 l -0.37719,1.798576 h 0.44508 l 0.37594,-1.798576 h 0.62425 l 0.0754,-0.360847 z m 1.96266,0 -0.452,2.159423 h 0.44508 l 0.45075,-2.159423 z m 0.85245,0 -0.45074,2.159423 h 0.44634 l 0.1383,-0.661343 0.41994,-0.367133 0.5331,1.028476 h 0.5023 l -0.71164,-1.312627 0.96938,-0.846796 h -0.5947 l -0.99893,0.917833 0.19111,-0.917833 z m -23.43052,0.354561 h 0.31873 c 0.14437,0 0.23723,0.0082 0.27849,0.02389 0.0422,0.01473 0.0742,0.0389 0.0968,0.07229 0.0235,0.0334 0.0352,0.07619 0.0352,0.128246 0,0.07759 -0.0227,0.148286 -0.0679,0.213113 -0.0452,0.06482 -0.10688,0.11198 -0.18546,0.141447 -0.0786,0.02947 -0.23486,0.04463 -0.4696,0.04463 h -0.13705 z m -7.36655,0.0019 h 0.25775 c 0.13064,0 0.22177,0.0087 0.27283,0.0264 0.0727,0.02554 0.13318,0.07706 0.18231,0.154649 0.0501,0.07661 0.0754,0.191283 0.0754,0.344501 0,0.179737 -0.03,0.336382 -0.0899,0.468975 -0.0599,0.132593 -0.13387,0.238543 -0.22128,0.318099 -0.0609,0.055 -0.12813,0.09253 -0.2018,0.113157 -0.0727,0.01964 -0.19026,0.02955 -0.3533,0.02955 h -0.22569 z m -4.36725,0.0044 h 0.34513 c 0.12377,0 0.20146,0.0029 0.23386,0.0088 0.058,0.01179 0.1025,0.03505 0.1339,0.07041 0.0314,0.03536 0.0472,0.08079 0.0472,0.135789 0,0.05599 -0.0163,0.108686 -0.0497,0.157792 -0.0334,0.04911 -0.0835,0.08401 -0.15025,0.105614 -0.0668,0.02161 -0.17655,0.03269 -0.32879,0.03269 h -0.33884 z m 2.59571,0.09241 0.1251,0.869427 h -0.64689 z m 4.35656,0 0.1251,0.869427 h -0.64688 z m 11.39936,0 0.1251,0.869427 h -0.64688 z m 8.26867,0 0.1251,0.869427 h -0.64625 z m -26.80575,0.794617 h 0.53058 c 0.12373,0 0.2116,0.02326 0.26466,0.07041 0.053,0.04616 0.0798,0.104953 0.0798,0.176652 0,0.05893 -0.0186,0.11481 -0.0559,0.16785 -0.0363,0.05304 -0.0859,0.09147 -0.14773,0.115043 -0.0609,0.02259 -0.18112,0.03395 -0.36085,0.03395 h -0.42874 z m 4.90663,2.335445 c -0.19938,0 -0.37693,0.04107 -0.5331,0.122588 -0.15616,0.08054 -0.28601,0.190574 -0.38913,0.330042 -0.10218,0.139468 -0.17814,0.303934 -0.2282,0.493493 -0.0383,0.141432 -0.0572,0.275913 -0.0572,0.403595 0,0.137504 0.0286,0.274342 0.0855,0.409881 0.057,0.134558 0.15329,0.247502 0.2898,0.338844 0.13652,0.09134 0.30535,0.137047 0.5067,0.137047 0.23179,0 0.43996,-0.05797 0.62362,-0.17288 0.18367,-0.114914 0.32861,-0.278475 0.43566,-0.491606 0.10706,-0.213132 0.16093,-0.434109 0.16093,-0.661972 0,-0.274026 -0.0827,-0.494099 -0.24769,-0.660085 -0.16402,-0.165987 -0.37973,-0.248947 -0.64688,-0.248947 z m 7.1283,0 c -0.24947,0 -0.43984,0.05997 -0.57145,0.179795 -0.13161,0.119825 -0.19803,0.270929 -0.19803,0.45263 0,0.104111 0.0224,0.194615 0.0666,0.272207 0.0442,0.07759 0.10445,0.141375 0.18105,0.190481 0.0776,0.04813 0.20017,0.108372 0.36714,0.181052 0.16794,0.07268 0.2707,0.125379 0.30804,0.157792 0.0531,0.0442 0.0792,0.09772 0.0792,0.161564 0,0.07366 -0.032,0.136543 -0.0968,0.188596 -0.0648,0.05205 -0.17022,0.07858 -0.31558,0.07858 -0.17485,0 -0.29479,-0.03843 -0.35959,-0.115043 -0.0401,-0.04715 -0.0632,-0.138278 -0.0692,-0.272835 l -0.42246,0.022 h -6.2e-4 c -0.004,0.144379 0.0226,0.272493 0.0786,0.383478 0.056,0.110984 0.15175,0.198031 0.28729,0.260891 0.13652,0.06188 0.29717,0.09241 0.48281,0.09241 0.26911,0 0.47901,-0.06724 0.62928,-0.201798 0.15125,-0.135539 0.22694,-0.298551 0.22694,-0.489092 0,-0.1542 -0.051,-0.280232 -0.15213,-0.378449 -0.0678,-0.06679 -0.22552,-0.153834 -0.47401,-0.260891 -0.165,-0.0717 -0.27185,-0.127854 -0.31998,-0.169107 -0.0481,-0.04027 -0.0723,-0.09151 -0.0723,-0.153392 0,-0.06581 0.0265,-0.120236 0.0786,-0.163449 0.053,-0.04321 0.14063,-0.06475 0.2634,-0.06475 0.12471,0 0.21903,0.02735 0.2829,0.08235 0.0638,0.055 0.1011,0.133874 0.1119,0.237002 l 0.42559,-0.01886 c -0.0137,-0.197417 -0.09,-0.355791 -0.22945,-0.474633 -0.13849,-0.118843 -0.3344,-0.178538 -0.58779,-0.178538 z m -12.21599,0.03709 -0.45263,2.160051 h 0.44509 l 0.17225,-0.823535 h 0.28415 c 0.19153,0 0.32255,-0.0053 0.39228,-0.01509 0.11982,-0.01669 0.21469,-0.04086 0.28541,-0.07229 0.0707,-0.03242 0.13653,-0.07957 0.1974,-0.141447 0.0618,-0.06188 0.11426,-0.143933 0.15653,-0.247061 0.0423,-0.103127 0.0635,-0.209705 0.0635,-0.318727 0,-0.11786 -0.0268,-0.218544 -0.0798,-0.30301 -0.053,-0.08545 -0.12492,-0.146598 -0.21626,-0.182938 -0.0904,-0.03732 -0.21411,-0.05595 -0.37028,-0.05595 z m 2.02238,0 -0.452,2.160051 h 0.44446 l 0.18733,-0.894573 h 0.18106 c 0.10506,0 0.17902,0.01427 0.22128,0.04275 0.0688,0.04813 0.13339,0.142168 0.19426,0.281637 0.11194,0.25831 0.18735,0.448399 0.22568,0.570188 h 0.47715 c -0.12179,-0.308402 -0.2321,-0.547103 -0.3313,-0.716036 -0.0501,-0.08348 -0.104,-0.150724 -0.16093,-0.201797 0.22295,-0.02848 0.38977,-0.102444 0.49977,-0.221286 0.11,-0.119825 0.16471,-0.271479 0.16471,-0.455145 0,-0.128664 -0.0285,-0.238425 -0.0855,-0.328785 -0.056,-0.09036 -0.13021,-0.152059 -0.22254,-0.185453 -0.0913,-0.03437 -0.2191,-0.05155 -0.38411,-0.05155 z m 4.28301,0 0.38725,2.160051 h 0.47463 l 1.19004,-2.160051 h -0.44005 l -0.89458,1.633868 -0.27409,-1.633868 z m 2.22732,0 -0.452,2.160051 h 0.44508 l 0.45075,-2.160051 z m 0.86817,0 -0.45075,2.160051 h 0.41429 l 0.30364,-1.45156 0.58339,1.45156 h 0.41365 l 0.45074,-2.160051 h -0.41239 l -0.30176,1.445273 -0.58527,-1.445273 z m 4.16168,0 -0.45263,2.160051 h 0.44509 l 0.45074,-2.160051 z m 2.49324,0 -0.27158,1.293767 c -0.0491,0.236703 -0.0907,0.380183 -0.1251,0.431256 -0.0462,0.06679 -0.12622,0.100584 -0.24015,0.100584 -0.0815,0 -0.14241,-0.01835 -0.18168,-0.05469 -0.0393,-0.03634 -0.0585,-0.08904 -0.0585,-0.157792 0,-0.02849 0.003,-0.06429 0.009,-0.1075 l -0.41114,0.04401 c -0.005,0.04224 -0.007,0.08067 -0.007,0.115043 0,0.164023 0.0515,0.293866 0.15465,0.389136 0.10313,0.09527 0.2586,0.142705 0.46583,0.142705 0.24457,0 0.4253,-0.06142 0.54316,-0.184196 0.11786,-0.122771 0.21336,-0.357385 0.28604,-0.704091 l 0.27283,-1.308226 z m 1.49242,0 -1.22147,2.160051 h 0.45703 l 0.259,-0.477776 h 0.85623 l 0.0723,0.477776 h 0.4212 l -0.35079,-2.160051 z m 1.17872,0 0.0811,2.160051 h 0.45829 l 0.78644,-1.579805 0.0484,1.579805 h 0.44948 l 1.04482,-2.160051 h -0.43062 l -0.71101,1.495565 -0.0503,-1.495565 h -0.48155 l -0.74118,1.511281 -0.0195,-1.511281 z m 3.5148,0 -1.22084,2.160051 h 0.4564 l 0.25963,-0.477776 h 0.8556 l 0.0723,0.477776 h 0.4212 l -0.35079,-2.160051 z m 2.15565,0 -0.0754,0.360846 h 0.63368 l -0.37719,1.799205 h 0.44509 l 0.37593,-1.799205 h 0.62425 l 0.0754,-0.360846 z m 1.96265,0 -0.45263,2.160051 h 0.44509 l 0.45074,-2.160051 z m 0.85434,0 -0.45074,2.160051 h 0.40045 l 0.34325,-1.804862 0.0779,1.804862 h 0.42182 l 0.85246,-1.791661 -0.4256,1.791661 h 0.40548 l 0.452,-2.160051 h -0.6406 l -0.73678,1.513167 -0.0666,-1.513167 z m 2.5165,0 -0.23889,1.137233 c -0.0304,0.147322 -0.0476,0.237001 -0.0516,0.268434 -0.007,0.04715 -0.0107,0.09049 -0.0107,0.13076 0,0.193488 0.067,0.352137 0.20054,0.47589 0.13357,0.122772 0.32629,0.184196 0.57773,0.184196 0.21018,0 0.38364,-0.04134 0.52115,-0.123845 0.1375,-0.0825 0.24027,-0.189631 0.30804,-0.321242 0.0677,-0.13161 0.12773,-0.32107 0.1798,-0.569559 l 0.2458,-1.181867 h -0.4432 l -0.24769,1.179981 c -0.0393,0.190541 -0.078,0.325925 -0.1163,0.405481 -0.0383,0.07956 -0.0924,0.139528 -0.16219,0.179795 -0.0697,0.04027 -0.15824,0.06035 -0.2653,0.06035 -0.11883,0 -0.20934,-0.02798 -0.2722,-0.08298 -0.0619,-0.05598 -0.093,-0.126406 -0.093,-0.211856 0,-0.02161 0.002,-0.0446 0.006,-0.06915 l 0.0604,-0.289181 0.24455,-1.172437 z m 2.18771,0 -0.45263,2.160051 h 0.44509 l 0.18671,-0.894573 h 0.18168 c 0.10506,0 0.17839,0.01427 0.22066,0.04275 0.0688,0.04813 0.13401,0.142168 0.19488,0.281637 0.11194,0.25831 0.18672,0.448399 0.22506,0.570188 h 0.47714 c -0.12178,-0.308402 -0.2321,-0.547103 -0.3313,-0.716036 -0.0501,-0.08348 -0.10337,-0.150724 -0.1603,-0.201797 0.22295,-0.02848 0.38915,-0.102444 0.49915,-0.221286 0.11,-0.119825 0.16533,-0.271479 0.16533,-0.455145 0,-0.128664 -0.0286,-0.238425 -0.0855,-0.328785 -0.056,-0.09036 -0.13022,-0.152059 -0.22255,-0.185453 -0.0913,-0.03437 -0.21973,-0.05155 -0.38473,-0.05155 z m -26.8661,0.334443 c 0.14143,0 0.25756,0.04861 0.3489,0.145848 0.0913,0.09625 0.13705,0.229278 0.13705,0.399194 0,0.152237 -0.0361,0.309156 -0.10876,0.470232 -0.0717,0.160094 -0.16311,0.280034 -0.27409,0.35959 -0.11001,0.07857 -0.22469,0.117558 -0.34451,0.117558 -0.14732,0 -0.26608,-0.05007 -0.35644,-0.150248 -0.0904,-0.100181 -0.13579,-0.224483 -0.13579,-0.372791 0,-0.241614 0.0675,-0.463416 0.20305,-0.665744 0.13652,-0.202327 0.31353,-0.303639 0.53059,-0.303639 z m -4.68284,0.02075 h 0.3181 c 0.14436,0 0.23723,0.0075 0.27849,0.02326 0.0422,0.01473 0.0748,0.0389 0.0974,0.07229 0.0236,0.03339 0.0352,0.07619 0.0352,0.128245 0,0.0776 -0.0227,0.148922 -0.0679,0.213742 -0.0452,0.06482 -0.10687,0.11198 -0.18545,0.141447 -0.0786,0.02947 -0.23549,0.04401 -0.47023,0.04401 h -0.13705 z m 2.02112,0.0057 h 0.48909 c 0.13065,0 0.21534,0.01163 0.25461,0.0352 0.0639,0.03929 0.0962,0.09871 0.0962,0.17728 0,0.06679 -0.0224,0.130217 -0.0666,0.191111 -0.0442,0.0609 -0.10562,0.106051 -0.18419,0.134531 -0.0776,0.02848 -0.23534,0.04275 -0.47401,0.04275 h -0.23574 z m 29.89558,0 h 0.4891 c 0.13064,0 0.21596,0.01163 0.25523,0.0352 0.0639,0.03929 0.0956,0.09871 0.0956,0.17728 0,0.06679 -0.0218,0.130217 -0.066,0.191111 -0.0442,0.0609 -0.10563,0.106051 -0.1842,0.134531 -0.0776,0.02848 -0.23597,0.04275 -0.47463,0.04275 h -0.23575 z m -14.56714,0.09304 0.1251,0.869427 h -0.64688 z m 4.69352,0 0.12511,0.869427 h -0.64626 z" /></g></svg>
