<?xml version="1.0" encoding="UTF-8" standalone="no"?>
<svg
   width="180.72206"
   height="25.247498"
   viewBox="0 0 180.72207 25.247497"
   version="1.1"
   id="svg30358"
   sodipodi:docname="halopst-logo.svg"
   inkscape:version="1.2.2 (b0a84865, 2022-12-01)"
   xml:space="preserve"
   xmlns:inkscape="http://www.inkscape.org/namespaces/inkscape"
   xmlns:sodipodi="http://sodipodi.sourceforge.net/DTD/sodipodi-0.dtd"
   xmlns="http://www.w3.org/2000/svg"
   xmlns:svg="http://www.w3.org/2000/svg"
   xmlns:rdf="http://www.w3.org/1999/02/22-rdf-syntax-ns#"
   xmlns:cc="http://creativecommons.org/ns#"
   xmlns:dc="http://purl.org/dc/elements/1.1/"><defs
     id="defs30362"><linearGradient
       x1="0"
       y1="0"
       x2="1.0046096"
       y2="-0.038156901"
       gradientUnits="userSpaceOnUse"
       gradientTransform="matrix(-718.91553,615.71521,-615.71521,-718.91553,2759.5359,1207.2466)"
       spreadMethod="pad"
       id="linearGradient328"><stop
         style="stop-color:#008c54;stop-opacity:1;"
         offset="0"
         id="stop324" /><stop
         style="stop-color:#bbff35;stop-opacity:1;"
         offset="1"
         id="stop326" /></linearGradient><linearGradient
       x1="0.056547876"
       y1="0.12918381"
       x2="0.78292638"
       y2="0.070499144"
       gradientUnits="userSpaceOnUse"
       gradientTransform="matrix(-725.20911,229.28946,-229.28946,-725.20911,3116.3494,1549.3401)"
       spreadMethod="pad"
       id="linearGradient348"><stop
         style="stop-color:#00dbff;stop-opacity:1;"
         offset="0"
         id="stop344" /><stop
         style="stop-color:#005eb3;stop-opacity:1;"
         offset="1"
         id="stop346" /></linearGradient><clipPath
       clipPathUnits="userSpaceOnUse"
       id="clipPath366"><path
         d="m 2501.87,2125.09 h 54.31 V 1070.74 h -54.31 z"
         id="path364" /></clipPath><clipPath
       clipPathUnits="userSpaceOnUse"
       id="clipPath49238"><path
         d="M 0,775.286 H 2740.829 V 0 H 0 Z"
         id="path49236" /></clipPath></defs><sodipodi:namedview
     id="namedview30360"
     pagecolor="#ffffff"
     bordercolor="#000000"
     borderopacity="0.25"
     inkscape:showpageshadow="2"
     inkscape:pageopacity="0.0"
     inkscape:pagecheckerboard="0"
     inkscape:deskcolor="#d1d1d1"
     showgrid="false"
     inkscape:zoom="1.489975"
     inkscape:cx="77.518079"
     inkscape:cy="34.564338"
     inkscape:window-width="1246"
     inkscape:window-height="558"
     inkscape:window-x="0"
     inkscape:window-y="25"
     inkscape:window-maximized="0"
     inkscape:current-layer="g54753" /><title
     id="title30352">down-arrow</title><metadata
     id="metadata31209"><rdf:RDF><cc:Work
         rdf:about=""><dc:title>down-arrow</dc:title></cc:Work></rdf:RDF></metadata><path
     id="path23342"
     style="font-style:italic;font-size:575.388px;line-height:1.3;font-family:Rubik;-inkscape-font-specification:'Rubik Italic';text-align:center;text-anchor:middle;fill:#0061b5;fill-opacity:1;stroke-width:0.218335;stroke-linecap:square;paint-order:stroke markers fill"
     d="m 25.143676,6.075166 c -0.131193,0 -0.25643,0.04774 -0.375688,0.143145 -0.107333,0.09541 -0.172929,0.208701 -0.196791,0.339892 l -2.504525,11.735465 c -0.02383,0.13119 0,0.24448 0.07159,0.339893 0.08351,0.09542 0.190802,0.143095 0.321995,0.143095 h 0.661926 c 0.131194,0 0.250473,-0.04768 0.357788,-0.143095 0.119278,-0.09541 0.190801,-0.208703 0.214663,-0.339893 L 26.199158,6.558199 c 0.02383,-0.13119 -0.0058,-0.24448 -0.08943,-0.339893 -0.07155,-0.09541 -0.17296,-0.143144 -0.304154,-0.143144 z M 3.0501655,6.254059 c -0.131184,0 -0.256423,0.04774 -0.375688,0.143144 -0.107338,0.09541 -0.172941,0.208708 -0.196794,0.339891 L 0.00895345,18.293667 c -0.02387,0.143116 -9e-6,0.262381 0.07155,0.357791 0.08349,0.08349 0.19085,0.125197 0.32204,0.125197 H 1.1359735 c 0.131191,0 0.250456,-0.04768 0.357789,-0.143096 0.119266,-0.09541 0.190842,-0.208702 0.214695,-0.339892 l 1.07337,-5.044853 h 6.29707 l -1.073362,5.044853 c -0.02387,0.131191 -1.7e-5,0.244479 0.07154,0.339892 0.08349,0.09542 0.19081,0.143096 0.321994,0.143096 h 0.733486 c 0.131184,0 0.250453,-0.04768 0.357784,-0.143096 0.119268,-0.09541 0.190839,-0.208702 0.214692,-0.339892 L 12.173759,6.737094 c 0.02383,-0.131187 -0.0061,-0.244483 -0.08946,-0.339891 -0.07155,-0.09541 -0.172944,-0.143141 -0.304131,-0.143141 h -0.733427 c -0.131197,0 -0.256427,0.04774 -0.375687,0.143144 -0.107338,0.09541 -0.172941,0.208709 -0.196798,0.339893 l -1.0554705,4.901707 h -6.297069 l 1.055469,-4.901712 c 0.02386,-0.131184 -0.006,-0.244486 -0.08944,-0.339892 -0.07156,-0.09541 -0.172906,-0.143144 -0.304098,-0.143144 z M 16.860908,9.295273 c -1.132997,0 -2.116934,0.351822 -2.951766,1.055472 -0.82291,0.703641 -1.401318,1.705462 -1.735256,3.005415 -0.131194,0.500905 -0.214664,0.888514 -0.250441,1.162818 -0.04768,0.28623 -0.07159,0.596337 -0.07159,0.93027 0,1.061436 0.292186,1.914161 0.876577,2.55818 0.596307,0.632082 1.383473,0.948125 2.361428,0.948125 0.679786,0 1.234362,-0.101344 1.6637,-0.304096 0.429342,-0.21467 0.805025,-0.518809 1.127017,-0.912372 l -0.125172,0.554585 c -0.02383,0.131191 -1.7e-5,0.24448 0.07155,0.339893 0.08347,0.09541 0.1908,0.143096 0.321994,0.143096 h 0.661936 c 0.131193,0 0.25044,-0.04768 0.357791,-0.143096 0.119246,-0.09541 0.190801,-0.208702 0.214662,-0.339893 L 21.15438,9.957205 C 21.17821,9.826014 21.14828,9.712677 21.06492,9.61727 20.99337,9.52186 20.892025,9.474174 20.76083,9.474174 h -0.661934 c -0.131195,0 -0.256367,0.04768 -0.375642,0.143096 -0.107331,0.09541 -0.172928,0.208744 -0.196791,0.339935 l -0.10738,0.554536 C 19.252115,10.189731 18.947977,9.909485 18.50671,9.670962 18.077365,9.420512 17.528764,9.295273 16.860903,9.295273 Z m 15.080729,0 c -1.16877,0 -2.194463,0.363776 -3.077013,1.091268 -0.870609,0.727502 -1.484804,1.693528 -1.842599,2.89807 -0.05961,0.214676 -0.131161,0.506861 -0.21463,0.876577 -0.08351,0.357784 -0.131227,0.626134 -0.143141,0.805028 -0.02383,0.262374 -0.03575,0.453221 -0.03575,0.572483 0,1.037576 0.321994,1.866463 0.966015,2.486631 0.655947,0.620155 1.526543,0.930225 2.611833,0.930225 1.240318,0 2.277927,-0.357797 3.112766,-1.073372 0.846753,-0.715565 1.454984,-1.687572 1.82469,-2.915967 0.07155,-0.238521 0.143141,-0.524739 0.214695,-0.858677 0.07155,-0.34586 0.119246,-0.620179 0.143108,-0.822927 0.02383,-0.262374 0.03581,-0.459141 0.03581,-0.590333 0,-1.025646 -0.327981,-1.848563 -0.983918,-2.468731 C 33.897514,9.605378 33.026911,9.295273 31.94163,9.295273 Z M 16.843008,10.83378 c 0.644009,0 1.132975,0.172924 1.466913,0.518783 0.34586,0.333936 0.518827,0.816967 0.518827,1.44906 0,0.202744 -0.01803,0.429332 -0.05368,0.67978 -0.07156,0.453198 -0.166972,0.924285 -0.28625,1.413262 -0.202749,0.763279 -0.608238,1.377484 -1.21647,1.842597 -0.596312,0.453204 -1.264161,0.679785 -2.003591,0.679785 -0.572461,0 -1.019701,-0.178899 -1.341715,-0.536682 -0.321995,-0.357785 -0.483034,-0.858701 -0.483034,-1.502709 0,-0.143114 0.02383,-0.393542 0.07159,-0.751332 0.05961,-0.381637 0.131163,-0.715589 0.214664,-1.001819 0.226579,-0.870617 0.608231,-1.550416 1.144911,-2.039394 0.548612,-0.500899 1.204563,-0.75133 1.967848,-0.75133 z m 15.098629,0 c 1.299955,0 1.949946,0.655955 1.949946,1.967843 0,0.119263 -0.01191,0.310054 -0.03581,0.572435 -0.07155,0.536682 -0.178886,1.037582 -0.321994,1.502707 -0.226611,0.751356 -0.638055,1.36555 -1.234364,1.842601 -0.584388,0.465116 -1.282107,0.697681 -2.09309,0.697681 -0.632096,0 -1.115081,-0.184824 -1.449011,-0.554538 -0.32199,-0.381642 -0.483026,-0.882543 -0.483026,-1.50271 0,-0.107338 0.01191,-0.26836 0.03581,-0.483031 0.07155,-0.500905 0.178885,-1.001806 0.321994,-1.502708 0.22661,-0.751355 0.63208,-1.359576 1.216469,-1.824702 0.584372,-0.477044 1.282101,-0.715577 2.093083,-0.715578 z m -13.525373,8.83225 c -0.07693,0 -0.153607,0.03714 -0.230024,0.111446 -0.07641,0.0743 -0.128714,0.162527 -0.156859,0.264697 -0.240586,0.873092 -0.250022,1.541873 -0.02834,2.006282 0.212151,0.473701 0.643565,0.798789 1.294293,0.97527 0.650735,0.176474 1.567092,0.264696 2.749007,0.264696 1.181922,0 2.143365,-0.08822 2.884361,-0.264696 0.748004,-0.176481 1.358596,-0.501573 1.83182,-0.975271 0.477656,-0.464413 0.836783,-1.133191 1.077373,-2.006283 0.02802,-0.102169 0.02447,-0.190391 -0.01095,-0.264696 -0.03546,-0.0743 -0.09168,-0.111447 -0.168579,-0.111447 h -0.3357 c -0.07693,0 -0.153574,0.03714 -0.229991,0.111447 -0.07641,0.0743 -0.128747,0.162527 -0.156891,0.264696 -0.158696,0.575871 -0.423262,1.00313 -0.79377,1.281777 -0.366087,0.287932 -0.836913,0.47372 -1.412438,0.557313 -0.578096,0.09288 -1.356687,0.139315 -2.335793,0.139315 -0.979105,0 -1.73563,-0.04641 -2.269525,-0.139315 -0.529489,-0.08358 -0.89789,-0.269375 -1.10528,-0.557307 -0.216949,-0.278649 -0.246092,-0.705908 -0.08739,-1.281777 0.02834,-0.102169 0.02447,-0.190391 -0.01095,-0.264697 -0.03546,-0.0743 -0.09168,-0.111445 -0.168611,-0.111445 z"
     sodipodi:nodetypes="sccccssccccsssccccssccccccssccccssccccccssscccscsccccssccccssccccssccccscsccccsssssscccssscccssssccscscccsssscssccssssssccsccsssscsc"
     clip-path="none" /><path
     id="path21915"
     clip-path="none"
     style="font-weight:bold;font-size:575.388px;line-height:1.3;font-family:Rubik;-inkscape-font-specification:'Rubik Bold';text-align:center;text-anchor:middle;fill:#0061b5;fill-opacity:1;stroke-width:0.221157;stroke-linecap:square;paint-order:stroke markers fill"
     d="m 54.115991,5.8978064 c -1.014749,0 -1.915551,0.1817146 -2.700783,0.5441236 -0.773144,0.350331 -1.370705,0.82632 -1.793509,1.430338 -0.422812,0.591941 -0.634601,1.239096 -0.634601,1.939758 0,1.038913 0.290235,1.871816 0.870105,2.499993 0.579848,0.616103 1.485941,1.057978 2.718133,1.323745 l 0.815572,0.16237 c 0.845624,0.181212 1.461466,0.31982 1.848042,0.416459 0.386568,0.09665 0.683328,0.218199 0.88869,0.363162 0.21745,0.132886 0.325979,0.30157 0.325979,0.50694 0,0.640258 -0.74917,0.960582 -2.247154,0.960582 -0.434878,0 -0.815368,-0.0667 -1.141536,-0.199553 -0.314102,-0.14497 -0.54944,-0.301876 -0.706498,-0.470995 -0.157059,-0.181205 -0.253801,-0.289736 -0.29003,-0.325979 -0.193296,-0.169125 -0.423373,-0.254089 -0.689142,-0.254089 H 49.00569 c -0.09664,0 -0.186868,0.04313 -0.271438,0.127664 -0.07246,0.07248 -0.109074,0.16272 -0.109074,0.271442 0.02395,0.616104 0.277812,1.213643 0.761032,1.793501 0.483219,0.579856 1.147417,1.051812 1.993049,1.414226 0.845617,0.362408 1.788309,0.542884 2.827206,0.542884 1.075172,0 2.034887,-0.156906 2.880519,-0.470995 0.857698,-0.326169 1.52317,-0.785102 1.994285,-1.377042 0.483219,-0.604018 0.723847,-1.304819 0.723847,-2.102127 0,-1.099316 -0.320324,-1.94524 -0.960579,-2.537177 -0.640255,-0.591935 -1.641855,-1.026066 -3.006927,-1.303914 -1.063083,-0.217449 -1.812253,-0.380864 -2.247146,-0.489587 -0.42282,-0.108727 -0.736626,-0.229039 -0.941996,-0.361923 -0.205369,-0.144965 -0.308622,-0.338459 -0.308622,-0.580068 0,-0.338248 0.163403,-0.573607 0.489586,-0.706493 0.338242,-0.144963 0.767103,-0.218145 1.286559,-0.218145 0.374486,0 0.700094,0.05487 0.977936,0.163609 0.289939,0.108723 0.501721,0.235552 0.634609,0.380514 0.132873,0.132886 0.211311,0.211342 0.235489,0.235498 0.120807,0.108722 0.229343,0.187177 0.325987,0.235498 0.09664,0.03627 0.229986,0.05454 0.399104,0.05454 h 2.373569 c 0.09665,0 0.181623,-0.03661 0.254081,-0.109073 0.08458,-0.08456 0.126431,-0.181311 0.126431,-0.290034 C 59.419017,8.935933 59.171887,8.392025 58.700757,7.836328 58.241693,7.280627 57.606334,6.821694 56.796947,6.459286 55.987559,6.084795 55.094496,5.897811 54.115991,5.897811 Z M 37.590253,6.078767 c -0.132875,0 -0.247924,0.04839 -0.344571,0.145017 -0.09665,0.09665 -0.145016,0.211685 -0.145016,0.344571 v 11.705474 c 0,0.132887 0.0484,0.247925 0.145016,0.344571 0.09665,0.09665 0.211696,0.145017 0.344571,0.145017 h 2.373565 c 0.132873,0 0.24792,-0.04836 0.34457,-0.145017 0.09665,-0.09665 0.143782,-0.211684 0.143782,-0.344571 v -3.696074 h 2.32027 c 1.570447,0 2.796845,-0.362191 3.678718,-1.087007 0.893952,-0.724822 1.33986,-1.78254 1.33986,-3.171783 0,-1.389247 -0.445908,-2.440444 -1.33986,-3.15319 C 45.569285,6.440955 44.342887,6.078767 42.77244,6.078767 Z m 23.610504,0 c -0.132873,0 -0.247965,0.04839 -0.344571,0.145017 -0.09665,0.09665 -0.145023,0.211685 -0.145023,0.344571 V 8.48952 c 0,0.132886 0.04836,0.246685 0.145023,0.343331 0.09665,0.09665 0.211698,0.145017 0.344571,0.145017 h 3.189133 v 9.295961 c 0,0.132887 0.04858,0.247925 0.145015,0.344571 0.09664,0.09665 0.211698,0.145017 0.344571,0.145017 h 2.373569 c 0.132873,0 0.247882,-0.04836 0.344571,-0.145017 0.09668,-0.09664 0.145015,-0.211684 0.145015,-0.344571 V 8.977868 h 3.189134 c 0.13288,0 0.247891,-0.04837 0.344571,-0.145017 0.0967,-0.09665 0.14502,-0.210445 0.14502,-0.343331 V 6.568355 c 0,-0.132879 -0.0486,-0.247924 -0.14502,-0.344571 -0.0966,-0.09665 -0.211691,-0.145017 -0.344571,-0.145017 z M 40.45217,8.887387 h 2.22979 c 0.531538,0 0.953868,0.121548 1.267962,0.363162 0.326173,0.229526 0.489592,0.585202 0.489592,1.068416 0,0.483217 -0.163425,0.8454 -0.489592,1.087008 -0.314088,0.229525 -0.736429,0.344571 -1.267962,0.344571 h -2.22979 z"
     sodipodi:nodetypes="sccscccscsscccssscsssccsscccscsccccssscccssssscsssscscscsssssssscscsssscsssscsscscscscc" /><rect
     style="fill:#0061b5;fill-opacity:1;stroke-width:0.339042;stroke-linecap:square;paint-order:stroke markers fill;stop-color:#000000"
     id="rect43606"
     width="0.97105765"
     height="25.247498"
     x="79.599586"
     y="0"
     rx="0.48552883"
     ry="0.48552883" /><g
     id="g54753"
     transform="matrix(3.1068422,0,0,3.1068422,1068.1314,-120.68069)"
     inkscape:export-filename="logo-bps-warna-putih.png"
     inkscape:export-xdpi="300"
     inkscape:export-ydpi="300"><g
       id="g49767"
       transform="matrix(0.01447967,0,0,-0.01447967,-317.26366,48.48044)"><g
         id="g49765"
         clip-path="url(#clipPath49238)"><g
           id="g49715"
           transform="translate(267.8434,185.7828)"><path
             d="m 0,0 c -0.013,-0.099 -0.026,-0.199 -0.04,-0.298 h -66.406 c -0.012,0.1 -0.025,0.2 -0.039,0.299 0.417,0.021 0.833,0.059 1.249,0.059 18.82,0.002 37.64,0.003 56.46,-0.003 C -5.851,0.056 -2.925,0.02 0,0"
             style="fill:#bdd7a2;fill-opacity:1;fill-rule:nonzero;stroke:none"
             id="path49713" /></g><g
           id="g49719"
           transform="translate(257.7545,515.7077)"><path
             d="m 0,0 c 1.801,0.283 3.306,1.304 4.934,2.007 27.603,11.92 55.666,22.523 84.905,29.772 9.451,2.343 18.998,4.233 28.613,5.762 1.17,0.186 1.554,0.702 1.795,1.749 1.274,5.526 2.589,11.043 3.932,16.552 1.259,5.164 5.469,8.533 10.763,8.536 34.872,0.017 69.744,0.01 104.616,0.006 0.466,0 0.932,-0.057 1.427,-0.181 -15.204,-3.359 -28.445,-9.9 -38.097,-23.109 2.849,-0.306 5.357,-0.579 7.866,-0.844 20.861,-2.204 41.293,-6.408 61.103,-13.379 17.232,-6.063 33.534,-13.937 47.891,-25.421 10.121,-8.095 18.915,-17.416 23.706,-29.65 9.498,-24.251 8.847,-48.331 -2.32,-71.987 -6.925,-14.671 -16.808,-27.216 -28.079,-38.73 -15.888,-16.231 -33.92,-29.825 -52.648,-42.551 -0.142,-0.096 -0.33,-0.125 -0.496,-0.186 -0.066,0.085 -0.134,0.169 -0.204,0.25 7.332,6.331 14.735,12.582 21.789,19.228 12.706,11.972 24.618,24.616 33.572,39.754 8.815,14.901 13.488,30.956 12.941,48.328 -0.379,12.068 -2.062,23.974 -7.168,35.061 -5.309,11.529 -13.983,20.318 -23.939,27.909 -14.513,11.066 -30.853,18.584 -48.038,24.4 -16.232,5.493 -32.912,9.052 -49.863,11.433 -1.225,0.172 -1.473,-0.293 -1.722,-1.344 -5.555,-23.471 -11.151,-46.933 -16.74,-70.396 -0.415,-1.742 -0.754,-3.507 -1.271,-5.219 -0.394,-1.304 0.082,-1.615 1.256,-1.495 0.415,0.042 0.837,0.006 1.256,0.006 27.818,0 55.635,0.002 83.453,-0.007 1.073,0 2.179,0.039 3.214,-0.19 3.414,-0.755 5.35,-4.072 4.48,-7.788 -2.614,-11.161 -5.294,-22.306 -7.947,-33.458 -6.48,-27.24 -12.956,-54.481 -19.44,-81.72 -1.312,-5.509 -5.572,-8.893 -11.258,-8.897 -20.819,-0.013 -41.637,-0.011 -62.455,-0.001 -5.808,0.003 -8.436,3.31 -7.089,8.979 8.427,35.492 16.873,70.978 25.319,106.465 0.64,2.689 0.658,2.685 -2.178,2.685 -27.579,0 -55.157,-10e-4 -82.735,0 -7.405,0 -9.669,2.904 -7.947,10.139 6.442,27.065 12.875,54.132 19.312,81.198 0.43,1.808 0.431,1.806 -2.047,1.533 C 93.813,22.919 73.513,18.857 53.561,13.092 34.793,7.669 16.432,1.038 -1.825,-5.888 c -0.393,-0.133 -0.79,-0.255 -1.178,-0.402 -11.609,-4.417 -23.061,-9.222 -34.521,-14.006 -0.058,0.087 -0.125,0.167 -0.199,0.241 0.536,0.36 1.055,0.748 1.609,1.078 5.943,3.536 12.002,6.865 18.174,9.981 5.842,2.95 11.736,5.796 17.607,8.688 0.196,0.02 0.383,0.05 0.348,0.321 z"
             style="fill:#ff8c00;fill-opacity:1;fill-rule:nonzero;stroke:none"
             id="path49717" /></g><g
           id="g49723"
           transform="translate(220.2302,495.4115)"><path
             d="m 0,0 c 11.46,4.784 22.912,9.589 34.521,14.006 0.388,0.147 0.786,0.269 1.178,0.403 -1.484,-6.392 -2.953,-12.786 -4.455,-19.173 -2.105,-8.948 -4.187,-17.901 -6.398,-26.822 -0.408,-1.648 -0.01,-1.899 1.516,-1.897 26.021,0.036 52.042,0.026 78.062,0.026 2.513,0 5.026,0.024 7.538,-0.009 4.806,-0.064 7.513,-3.437 6.413,-8.122 -3.234,-13.772 -6.515,-27.532 -9.791,-41.294 -5.834,-24.503 -11.675,-49.004 -17.521,-73.504 -1.399,-5.862 -5.565,-9.141 -11.615,-9.142 -35.173,-0.005 -70.346,-0.003 -105.519,-0.003 h -1.349 c 3.06,0.757 5.734,1.294 8.332,2.082 11.633,3.527 21.803,9.327 29.565,18.954 3.545,4.397 4.934,9.569 6.183,14.894 4.674,19.932 9.438,39.843 14.168,59.762 1.655,6.969 3.275,13.946 4.993,20.899 0.31,1.254 0.215,1.677 -1.203,1.675 -19.979,-0.035 -39.958,-0.037 -59.937,-0.003 -1.793,0.003 -3.109,-0.64 -4.435,-1.83 -13.505,-12.122 -26.508,-24.72 -37.552,-39.194 -11.685,-15.313 -20.433,-32.028 -23.825,-51.175 -2.288,-12.911 -2.976,-25.899 0.13,-38.788 2.19,-9.09 7.02,-16.831 13.229,-23.719 10.455,-11.598 23.473,-19.492 37.598,-25.741 10.021,-4.435 20.43,-7.727 31.048,-10.388 -1.289,-6.534 -2.891,-12.995 -4.595,-19.432 -13.022,1.892 -25.816,4.772 -38.336,8.842 -14.514,4.718 -28.325,10.885 -40.732,19.898 -10.004,7.268 -18.419,15.952 -23.862,27.234 -3.134,6.495 -4.616,13.388 -5.219,20.534 -2.3,27.253 6.884,50.967 22.373,72.728 11.277,15.841 24.987,29.404 39.668,42.041 7.208,6.205 14.674,12.087 22.286,17.786 0.33,0.247 0.647,0.51 0.968,0.764 -0.316,0.693 -0.867,0.401 -1.27,0.404 -4.426,0.025 -8.852,-0.008 -13.278,0.024 -5.112,0.037 -7.771,3.436 -6.583,8.436 6.411,27.002 12.835,54 19.26,80.998 2.694,11.321 5.383,22.644 8.106,33.958 1.251,5.197 5.445,8.535 10.742,8.539 21.173,0.017 42.346,0.017 63.52,-10e-4 5.05,-0.004 7.753,-3.368 6.6,-8.255 -4.234,-17.949 -8.508,-35.889 -12.767,-53.832 -0.177,-0.745 -0.489,-1.477 -0.231,-2.267 0,0 0.015,0.013 0.015,0.013 -0.318,0.112 -0.3,-0.14 -0.347,-0.321 C 31.321,17.096 25.426,14.25 19.585,11.301 13.413,8.184 7.353,4.855 1.41,1.319 0.856,0.989 0.337,0.602 -0.198,0.241 -0.399,0.164 -0.599,0.087 -0.8,0.01 -0.536,-0.249 -0.269,-0.166 0,0"
             style="fill:#0070be;fill-opacity:1;fill-rule:nonzero;stroke:none"
             id="path49721" /></g><g
           id="g49727"
           transform="translate(206.5094,237.8763)"><path
             d="m 0,0 c 1.704,6.437 3.306,12.898 4.594,19.433 1.787,7.362 3.593,14.72 5.356,22.089 2.333,9.752 4.613,19.517 6.952,29.268 1.379,5.748 5.354,9.043 11.282,9.059 23.325,0.063 46.65,0.038 69.975,0.045 4.964,0.002 9.93,0.075 14.892,-0.044 1.53,-0.037 2.025,0.5 2.354,1.888 6.343,26.836 12.731,53.661 19.11,80.488 2.154,9.058 4.295,18.119 6.47,27.173 1.226,5.102 5.496,8.599 10.75,8.61 21.172,0.041 42.345,0.039 63.517,-10e-4 5.096,-0.01 7.758,-3.484 6.572,-8.493 -6.518,-27.53 -13.066,-55.054 -19.611,-82.578 -2.555,-10.742 -5.115,-21.483 -7.699,-32.219 -1.322,-5.492 -5.471,-8.746 -11.132,-8.747 -28.289,-0.008 -56.578,-0.017 -84.867,0.033 -1.474,0.002 -2.04,-0.393 -2.381,-1.843 C 92.14,47.136 88.073,30.127 84.029,13.114 83.933,12.708 83.89,12.29 83.823,11.877 82.477,7.25 81.479,2.537 80.416,-2.159 c -3.268,-13.728 -6.534,-27.456 -9.804,-41.183 -1.128,-4.734 -4.608,-8.013 -9.278,-8.751 -2.925,0.02 -5.851,0.056 -8.776,0.057 -18.82,0.006 -37.64,0.004 -56.46,0.002 -0.416,0 -0.832,-0.038 -1.249,-0.058 -4.226,0.802 -6.218,3.976 -5.174,8.387 3.337,14.104 6.705,28.2 10.057,42.3 C -0.158,-0.942 -0.089,-0.469 0,0"
             style="fill:#33ac4b;fill-opacity:1;fill-rule:nonzero;stroke:none"
             id="path49725" /></g><g
           id="g49731"
           transform="translate(286.9257,235.7172)"><path
             d="m 0,0 c 1.063,4.696 2.06,9.409 3.407,14.036 12.96,0.451 25.868,1.481 38.738,3.112 44.202,5.603 86.436,18.285 127.498,35.232 30.989,12.79 60.759,27.954 89.167,45.771 0.401,0.252 0.841,0.44 1.263,0.658 0.09,-0.099 0.181,-0.199 0.271,-0.298 -4.507,-3.557 -9.291,-6.724 -14.059,-9.908 C 208.219,63.192 167.413,43.258 124.423,27.693 99.794,18.776 74.678,11.593 48.955,6.61 35.588,4.02 22.135,1.952 8.569,0.687 5.715,0.421 2.878,-0.035 0,0"
             style="fill:#3296ca;fill-opacity:1;fill-rule:nonzero;stroke:none"
             id="path49729" /></g><g
           id="g49735"
           transform="translate(546.9987,334.5261)"><path
             d="M 0,0 C 0.285,0.365 0.641,0.615 1.108,0.685 1.169,0.61 1.229,0.534 1.287,0.457 1.058,0.056 0.663,-0.121 0.27,-0.297 0.181,-0.199 0.09,-0.099 0,0"
             style="fill:#3296ca;fill-opacity:1;fill-rule:nonzero;stroke:none"
             id="path49733" /></g><g
           id="g49739"
           transform="translate(549.2225,335.8843)"><path
             d="M 0,0 C 0.071,0.237 0.229,0.34 0.471,0.29 0.506,0.283 0.527,0.203 0.554,0.156 0.368,0.105 0.182,0.054 -0.003,0.003 -0.003,0.003 0,0 0,0"
             style="fill:#3296ca;fill-opacity:1;fill-rule:nonzero;stroke:none"
             id="path49737" /></g><g
           id="g49743"
           transform="translate(548.9065,335.4841)"><path
             d="m 0,0 c -0.208,-0.166 -0.416,-0.332 -0.622,-0.5 -0.057,0.076 -0.117,0.152 -0.178,0.228 0.139,0.282 0.39,0.369 0.679,0.39 C -0.121,0.118 0,0 0,0"
             style="fill:#3296ca;fill-opacity:1;fill-rule:nonzero;stroke:none"
             id="path49741" /></g><g
           id="g49747"
           transform="translate(517.6654,334.0537)"><path
             d="m 0,0 c -0.176,-0.302 -0.396,-0.493 -0.767,-0.304 l 0.026,-0.027 c 0.179,0.194 0.359,0.387 0.537,0.581 C -0.134,0.169 -0.066,0.086 0,0"
             style="fill:#e18a3a;fill-opacity:1;fill-rule:nonzero;stroke:none"
             id="path49745" /></g><g
           id="g49751"
           transform="translate(516.8981,333.7494)"><path
             d="m 0,0 c 0.058,-0.281 -0.062,-0.41 -0.34,-0.361 -0.082,0.015 -0.151,0.105 -0.226,0.161 0.197,0.058 0.395,0.116 0.592,0.174 C 0.026,-0.026 0,0 0,0"
             style="fill:#e18a3a;fill-opacity:1;fill-rule:nonzero;stroke:none"
             id="path49749" /></g><g
           id="g49755"
           transform="translate(548.7858,335.6023)"><path
             d="m 0,0 0.437,0.282 c 0,0 -0.004,0.003 -0.004,0.003 C 0.511,0.009 0.329,-0.065 0.12,-0.118 0.121,-0.118 0,0 0,0"
             style="fill:#3296ca;fill-opacity:1;fill-rule:nonzero;stroke:none"
             id="path49753" /></g><g
           id="g49759"
           transform="translate(257.4219,515.3992)"><path
             d="M 0,0 C 0.047,0.182 0.029,0.433 0.348,0.321 0.383,0.05 0.196,0.02 0,0"
             style="fill:#ffffff;fill-opacity:1;fill-rule:nonzero;stroke:none"
             id="path49757" /></g><g
           id="g49763"
           transform="translate(220.2302,495.4115)"><path
             d="m 0,0 c -0.269,-0.166 -0.536,-0.249 -0.8,0.01 0.201,0.077 0.401,0.154 0.602,0.231 C -0.124,0.167 -0.058,0.087 0,0"
             style="fill:#e18a3a;fill-opacity:1;fill-rule:nonzero;stroke:none"
             id="path49761" /></g></g></g><path
       id="path48923"
       style="font-style:italic;font-weight:bold;font-size:3.01723px;font-family:Arial;-inkscape-font-specification:Arial-BoldItalicMT;fill:#0061b5;stroke-width:0.0144797"
       d="m -297.67326,40.968633 c -0.14439,0 -0.25455,0.03471 -0.33072,0.104055 -0.0762,0.06935 -0.11425,0.156433 -0.11425,0.261591 0,0.06026 0.013,0.112996 0.0386,0.157901 0.0255,0.04491 0.0604,0.08146 0.10478,0.109876 0.0449,0.02785 0.11548,0.06308 0.21211,0.105145 0.0972,0.04207 0.15667,0.0722 0.17828,0.09096 0.0307,0.02558 0.0462,0.05692 0.0462,0.09387 0,0.04263 -0.0189,0.07902 -0.0565,0.109147 -0.0375,0.03012 -0.0982,0.04511 -0.18228,0.04511 -0.10119,0 -0.17061,-0.02224 -0.20811,-0.06658 -0.0232,-0.02728 -0.0365,-0.07966 -0.04,-0.157538 L -298.27,41.8349 c -0.002,0.08356 0.0127,0.157339 0.0451,0.221571 0.0324,0.06423 0.0878,0.114609 0.16627,0.150988 0.079,0.03581 0.17235,0.05384 0.27978,0.05384 0.15575,0 0.27722,-0.03891 0.36419,-0.116788 0.0875,-0.07844 0.13097,-0.172784 0.13097,-0.283057 0,-0.08924 -0.0291,-0.162546 -0.0877,-0.219388 -0.0393,-0.03865 -0.13088,-0.08867 -0.2747,-0.150625 -0.0955,-0.0415 -0.15696,-0.07436 -0.18481,-0.09823 -0.0278,-0.02331 -0.0418,-0.05296 -0.0418,-0.08877 0,-0.03809 0.015,-0.06959 0.0452,-0.0946 0.0307,-0.025 0.0817,-0.03747 0.15281,-0.03747 0.0722,0 0.12675,0.01583 0.16372,0.04766 0.037,0.03183 0.0585,0.07784 0.0647,0.137527 l 0.24632,-0.01128 c -0.008,-0.114252 -0.0521,-0.205545 -0.1328,-0.274325 -0.0801,-0.06878 -0.19389,-0.103326 -0.34054,-0.103326 z m 3.84892,0 c -0.14438,0 -0.25455,0.03471 -0.33071,0.104055 -0.0762,0.06935 -0.11425,0.156433 -0.11425,0.261591 0,0.06026 0.0126,0.112996 0.0382,0.157901 0.0255,0.04491 0.0605,0.08146 0.10479,0.109876 0.0449,0.02785 0.11584,0.06308 0.21247,0.105145 0.0972,0.04207 0.15667,0.0722 0.17828,0.09096 0.0307,0.02558 0.0459,0.05692 0.0459,0.09387 0,0.04263 -0.0189,0.07902 -0.0564,0.109147 -0.0375,0.03012 -0.0981,0.04511 -0.18227,0.04511 -0.10119,0 -0.17061,-0.02224 -0.20812,-0.06658 -0.0233,-0.02728 -0.0365,-0.07966 -0.04,-0.157538 l -0.24486,0.01273 c -0.002,0.08356 0.0131,0.157339 0.0455,0.221571 0.0324,0.06423 0.0878,0.114609 0.16627,0.150988 0.079,0.03581 0.17199,0.05384 0.27942,0.05384 0.15576,0 0.27722,-0.03891 0.36419,-0.116788 0.0875,-0.07844 0.13134,-0.172784 0.13134,-0.283057 0,-0.08924 -0.0295,-0.162546 -0.088,-0.219388 -0.0393,-0.03865 -0.13051,-0.08867 -0.27433,-0.150625 -0.0955,-0.0415 -0.15733,-0.07436 -0.18518,-0.09823 -0.0278,-0.02331 -0.0415,-0.05296 -0.0415,-0.08877 0,-0.03809 0.015,-0.06959 0.0452,-0.0946 0.0307,-0.025 0.0814,-0.03747 0.15245,-0.03747 0.0722,0 0.12676,0.01583 0.16372,0.04766 0.037,0.03183 0.0585,0.07784 0.0647,0.137527 l 0.24667,-0.01128 c -0.008,-0.114252 -0.0525,-0.205545 -0.13316,-0.274325 -0.0801,-0.06878 -0.19352,-0.103326 -0.34017,-0.103326 z m 4.78541,0 c -0.14437,0 -0.25491,0.03471 -0.33108,0.104055 -0.0762,0.06935 -0.11424,0.156433 -0.11424,0.261591 0,0.06026 0.013,0.112996 0.0385,0.157901 0.0255,0.04491 0.0605,0.08146 0.10479,0.109876 0.0449,0.02785 0.11585,0.06308 0.21247,0.105145 0.0972,0.04207 0.15631,0.0722 0.17792,0.09096 0.0307,0.02558 0.0462,0.05692 0.0462,0.09387 0,0.04263 -0.0189,0.07902 -0.0565,0.109147 -0.0375,0.03012 -0.0982,0.04511 -0.18228,0.04511 -0.10119,0 -0.17061,-0.02224 -0.20811,-0.06658 -0.0232,-0.02728 -0.0366,-0.07966 -0.04,-0.157538 l -0.24486,0.01273 c -0.002,0.08356 0.0127,0.157339 0.0452,0.221571 0.0324,0.06423 0.0878,0.114609 0.16626,0.150988 0.079,0.03581 0.17236,0.05384 0.27979,0.05384 0.15575,0 0.27722,-0.03891 0.36419,-0.116788 0.0875,-0.07844 0.13134,-0.172784 0.13134,-0.283057 0,-0.08924 -0.0295,-0.162546 -0.0881,-0.219388 -0.0393,-0.03865 -0.13051,-0.08867 -0.27432,-0.150625 -0.0955,-0.0415 -0.15733,-0.07436 -0.18519,-0.09823 -0.0278,-0.02331 -0.0418,-0.05296 -0.0418,-0.08877 0,-0.03809 0.015,-0.06959 0.0452,-0.0946 0.0307,-0.025 0.0817,-0.03747 0.1528,-0.03747 0.0722,0 0.12676,0.01583 0.16373,0.04766 0.037,0.03183 0.0585,0.07784 0.0647,0.137527 l 0.24632,-0.01128 c -0.008,-0.114252 -0.0521,-0.205545 -0.1328,-0.274325 -0.0802,-0.06878 -0.19352,-0.103326 -0.34018,-0.103326 z m -18.22481,0.02147 -0.26159,1.249746 h 0.58904 c 0.13017,0 0.23276,-0.01482 0.3078,-0.04439 0.075,-0.02956 0.13382,-0.07773 0.17645,-0.144803 0.0427,-0.06764 0.064,-0.138899 0.064,-0.213931 0,-0.05684 -0.0182,-0.107901 -0.0546,-0.152807 -0.0359,-0.04547 -0.0857,-0.07697 -0.14989,-0.0946 0.0807,-0.02615 0.14034,-0.06438 0.179,-0.114969 0.0386,-0.05115 0.0579,-0.111474 0.0579,-0.180822 0,-0.05173 -0.0109,-0.0989 -0.0331,-0.141528 -0.0221,-0.04263 -0.0549,-0.07666 -0.0975,-0.102236 -0.0427,-0.02558 -0.0943,-0.04278 -0.1557,-0.0513 -0.0369,-0.0057 -0.10201,-0.0084 -0.19466,-0.0084 z m 1.61648,0 -0.70692,1.249746 h 0.26414 l 0.15027,-0.276145 h 0.49516 l 0.0418,0.276145 h 0.24376 l -0.20265,-1.249746 z m 0.91103,0 -0.2616,1.249746 h 0.4406 c 0.11084,0 0.19287,-0.0061 0.24631,-0.01855 0.0944,-0.02274 0.17171,-0.05813 0.23139,-0.105874 0.0779,-0.06139 0.1424,-0.144108 0.19356,-0.24813 0.0518,-0.104589 0.0775,-0.224017 0.0775,-0.358732 0,-0.06253 -0.007,-0.12016 -0.0196,-0.172455 -0.0131,-0.05286 -0.0319,-0.09935 -0.0564,-0.139709 -0.0239,-0.04036 -0.0523,-0.07491 -0.0859,-0.103327 -0.033,-0.02899 -0.07,-0.05139 -0.11096,-0.06731 -0.0403,-0.01592 -0.0865,-0.02654 -0.13825,-0.03165 -0.0262,-0.0028 -0.086,-0.004 -0.17974,-0.004 z m 1.6103,0 -0.70693,1.249746 h 0.26451 l 0.1499,-0.276145 h 0.49553 l 0.0418,0.276145 h 0.24376 l -0.20301,-1.249746 z m 0.91283,0 -0.26086,1.249746 h 0.23976 l 0.17537,-0.839713 0.33762,0.839713 h 0.23978 l 0.26085,-1.249746 h -0.23867 l -0.175,0.836438 -0.33835,-0.836438 z m 1.73946,0 -0.2616,1.249746 h 0.25723 l 0.0997,-0.476613 h 0.16481 c 0.11084,0 0.18631,-0.0027 0.22667,-0.0084 0.0693,-0.0097 0.12461,-0.02365 0.16554,-0.04185 0.0409,-0.01876 0.079,-0.04605 0.11424,-0.08186 0.0358,-0.03581 0.0658,-0.08366 0.0902,-0.143348 0.0245,-0.05969 0.0368,-0.121002 0.0368,-0.184096 0,-0.06821 -0.0155,-0.126845 -0.0462,-0.175729 -0.0307,-0.04945 -0.0723,-0.08448 -0.12516,-0.105509 -0.0523,-0.0216 -0.12355,-0.03238 -0.21393,-0.03238 z m 1.1657,0 -0.13825,0.658163 c -0.0176,0.08526 -0.0275,0.136803 -0.0298,0.15499 -0.004,0.02729 -0.006,0.05274 -0.006,0.07604 0,0.111979 0.0388,0.203796 0.11606,0.275417 0.0773,0.07106 0.18885,0.106601 0.33436,0.106601 0.12164,0 0.22203,-0.02393 0.30161,-0.07168 0.0796,-0.04775 0.13906,-0.109747 0.17828,-0.185916 0.0393,-0.07617 0.0739,-0.18618 0.10405,-0.329991 l 0.14226,-0.683631 h -0.25649 l -0.14336,0.682903 c -0.0227,0.110274 -0.0452,0.188263 -0.0673,0.234305 -0.0221,0.04604 -0.0535,0.08075 -0.0939,0.104054 -0.0403,0.02331 -0.0912,0.03493 -0.15317,0.03493 -0.0688,0 -0.12152,-0.01583 -0.1579,-0.04766 -0.0359,-0.0324 -0.0538,-0.07316 -0.0538,-0.12261 0,-0.01251 0.002,-0.02618 0.004,-0.04038 l 0.0349,-0.166996 0.14154,-0.678538 z m 2.77928,0 -0.70692,1.249746 h 0.26414 l 0.15026,-0.276145 h 0.49517 l 0.0418,0.276145 h 0.24413 l -0.20301,-1.249746 z m 0.69745,0 -0.0437,0.208837 h 0.36673 l -0.21829,1.040909 h 0.25758 l 0.21758,-1.040909 h 0.36128 l 0.0437,-0.208837 z m 2.71706,0 -0.0437,0.208837 h 0.36674 l -0.2183,1.040909 h 0.25759 l 0.21757,-1.040909 h 0.36128 l 0.0437,-0.208837 z m 1.3709,0 -0.70691,1.249746 h 0.2645 l 0.1499,-0.276145 h 0.49553 l 0.0418,0.276145 h 0.24377 l -0.20302,-1.249746 z m 0.69746,0 -0.0437,0.208837 h 0.36674 l -0.2183,1.040909 h 0.25759 l 0.21757,-1.040909 h 0.36128 l 0.0437,-0.208837 z m 1.13586,0 -0.26159,1.249746 h 0.25759 l 0.26087,-1.249746 z m 1.58119,0 -0.0433,0.208837 h 0.36637 l -0.2183,1.040909 h 0.25759 l 0.21758,-1.040909 h 0.36127 l 0.0437,-0.208837 z m 1.13588,0 -0.26159,1.249746 h 0.25758 l 0.26087,-1.249746 z m 0.49334,0 -0.26086,1.249746 h 0.25832 l 0.08,-0.382747 0.24304,-0.212474 0.30853,0.595221 h 0.2907 l -0.41185,-0.759671 0.56101,-0.490075 h -0.34417 l -0.57812,0.531187 0.1106,-0.531187 z m -13.56019,0.205199 h 0.18446 c 0.0836,0 0.1373,0.0048 0.16117,0.01382 0.0244,0.0085 0.043,0.02251 0.056,0.04184 0.0136,0.01933 0.0204,0.0441 0.0204,0.07422 0,0.04491 -0.0131,0.08582 -0.0393,0.123338 -0.0262,0.03752 -0.0618,0.0648 -0.10733,0.08186 -0.0455,0.01705 -0.13593,0.02583 -0.27178,0.02583 h -0.0793 z m -4.26332,0.0011 h 0.14917 c 0.0756,0 0.12835,0.005 0.1579,0.01528 0.0421,0.01478 0.0771,0.0446 0.1055,0.0895 0.029,0.04434 0.0437,0.110704 0.0437,0.199377 0,0.104021 -0.0174,0.194678 -0.052,0.271415 -0.0346,0.07674 -0.0775,0.138055 -0.12806,0.184097 -0.0353,0.03183 -0.0741,0.05355 -0.11679,0.06548 -0.0421,0.01137 -0.11012,0.0171 -0.20448,0.0171 h -0.13061 z m -2.5275,0.0026 h 0.19973 c 0.0716,0 0.1166,0.0017 0.13535,0.0051 0.0336,0.0068 0.0593,0.02028 0.0775,0.04075 0.0182,0.02046 0.0273,0.04676 0.0273,0.07859 0,0.0324 -0.009,0.0629 -0.0288,0.09132 -0.0193,0.02842 -0.0483,0.04862 -0.087,0.06112 -0.0387,0.01251 -0.10217,0.01892 -0.19028,0.01892 h -0.1961 z m 1.50224,0.05348 0.0724,0.503173 h -0.37438 z m 2.52131,0 0.0724,0.503173 h -0.37438 z m 6.59727,0 0.0724,0.503173 h -0.37438 z m 4.78542,0 0.0724,0.503173 h -0.37401 z m -15.51357,0.459877 h 0.30706 c 0.0716,0 0.12246,0.01346 0.15317,0.04075 0.0307,0.02672 0.0462,0.06074 0.0462,0.102236 0,0.03411 -0.0108,0.06645 -0.0324,0.09714 -0.021,0.0307 -0.0497,0.05293 -0.0855,0.06658 -0.0352,0.01308 -0.10482,0.01965 -0.20884,0.01965 h -0.24813 z m 2.83966,1.351617 c -0.11539,0 -0.21815,0.02377 -0.30852,0.07095 -0.0904,0.04661 -0.16553,0.110292 -0.22521,0.191008 -0.0591,0.08072 -0.1031,0.1759 -0.13207,0.285605 -0.0221,0.08185 -0.0331,0.159682 -0.0331,0.233577 0,0.07958 0.0165,0.158772 0.0495,0.237214 0.033,0.07787 0.0887,0.14324 0.16772,0.196103 0.079,0.05287 0.17672,0.07932 0.29325,0.07932 0.13415,0 0.25462,-0.03355 0.36091,-0.100053 0.1063,-0.06651 0.19018,-0.161165 0.25214,-0.284512 0.0619,-0.123348 0.0931,-0.251237 0.0931,-0.38311 0,-0.15859 -0.0478,-0.285955 -0.14335,-0.382018 -0.0949,-0.09606 -0.21976,-0.144076 -0.37437,-0.144076 z m 4.12544,0 c -0.14438,0 -0.25455,0.03471 -0.33072,0.104055 -0.0762,0.06935 -0.11461,0.156798 -0.11461,0.261955 0,0.06026 0.013,0.112632 0.0385,0.157537 0.0256,0.04491 0.0605,0.08182 0.10479,0.11024 0.0449,0.02785 0.11585,0.06272 0.21247,0.104782 0.0972,0.04206 0.15667,0.07256 0.17828,0.09132 0.0307,0.02558 0.0458,0.05656 0.0458,0.0935 0,0.04263 -0.0185,0.07902 -0.056,0.109148 -0.0375,0.03012 -0.0985,0.04548 -0.18265,0.04548 -0.10119,0 -0.1706,-0.02224 -0.2081,-0.06658 -0.0232,-0.02729 -0.0366,-0.08003 -0.04,-0.157901 l -0.24449,0.01273 h -3.7e-4 c -0.002,0.08356 0.0131,0.157702 0.0455,0.221934 0.0324,0.06423 0.0878,0.114608 0.16627,0.150988 0.079,0.03581 0.17198,0.05348 0.27942,0.05348 0.15574,0 0.27722,-0.03891 0.36419,-0.116789 0.0875,-0.07844 0.13134,-0.172783 0.13134,-0.283057 0,-0.08924 -0.0295,-0.162182 -0.0881,-0.219024 -0.0393,-0.03865 -0.13051,-0.08903 -0.27432,-0.150988 -0.0955,-0.0415 -0.15733,-0.074 -0.18519,-0.09787 -0.0278,-0.02331 -0.0418,-0.05296 -0.0418,-0.08877 0,-0.03809 0.0153,-0.06959 0.0455,-0.09459 0.0307,-0.02501 0.0814,-0.03747 0.15244,-0.03747 0.0722,0 0.12676,0.01583 0.16372,0.04766 0.0369,0.03183 0.0585,0.07748 0.0647,0.137162 l 0.24631,-0.01091 c -0.008,-0.114253 -0.0521,-0.20591 -0.13279,-0.27469 -0.0802,-0.06878 -0.19354,-0.103326 -0.34019,-0.103326 z m -7.06989,0.02146 -0.26195,1.250109 h 0.25759 l 0.0997,-0.476613 h 0.16445 c 0.11083,0 0.18667,-0.003 0.22702,-0.0087 0.0693,-0.0097 0.12425,-0.02365 0.16518,-0.04184 0.0409,-0.01876 0.079,-0.04605 0.11424,-0.08186 0.0358,-0.03581 0.0661,-0.0833 0.0906,-0.142985 0.0245,-0.05969 0.0368,-0.121365 0.0368,-0.18446 0,-0.06821 -0.0155,-0.126481 -0.0462,-0.175364 -0.0307,-0.04946 -0.0723,-0.08484 -0.12515,-0.105874 -0.0523,-0.0216 -0.12392,-0.03238 -0.2143,-0.03238 z m 1.17043,0 -0.26159,1.250109 h 0.25723 l 0.10842,-0.517725 h 0.10478 c 0.0608,0 0.10361,0.0083 0.12807,0.02474 0.0398,0.02785 0.0772,0.08228 0.11242,0.162994 0.0648,0.149495 0.10843,0.259507 0.13061,0.329992 h 0.27614 c -0.0705,-0.178486 -0.13432,-0.316632 -0.19173,-0.4144 -0.029,-0.04831 -0.0602,-0.08723 -0.0931,-0.116788 0.12903,-0.01649 0.22557,-0.05929 0.28923,-0.128067 0.0637,-0.06935 0.0953,-0.157116 0.0953,-0.263411 0,-0.07447 -0.0165,-0.137986 -0.0495,-0.190281 -0.0324,-0.0523 -0.0753,-0.088 -0.12879,-0.107329 -0.0528,-0.01989 -0.12681,-0.02983 -0.22231,-0.02983 z m 2.47875,0 0.22412,1.250109 h 0.27469 l 0.68872,-1.250109 h -0.25467 l -0.51773,0.945586 -0.15863,-0.945586 z m 1.28904,0 -0.26158,1.250109 h 0.25758 l 0.26086,-1.250109 z m 0.50245,0 -0.26087,1.250109 h 0.23977 l 0.17573,-0.840077 0.33763,0.840077 h 0.23939 l 0.26087,-1.250109 h -0.23867 l -0.17464,0.836439 -0.33872,-0.836439 z m 2.40853,0 -0.26195,1.250109 h 0.25759 l 0.26086,-1.250109 z m 1.44294,0 -0.15718,0.748756 c -0.0284,0.136989 -0.0525,0.220027 -0.0724,0.249585 -0.0267,0.03865 -0.0731,0.05821 -0.13898,0.05821 -0.0471,0 -0.0824,-0.01062 -0.10515,-0.03165 -0.0227,-0.02103 -0.0339,-0.05153 -0.0339,-0.09132 0,-0.01649 0.002,-0.03721 0.005,-0.06221 l -0.23794,0.02547 c -0.003,0.02444 -0.004,0.04669 -0.004,0.06658 0,0.09493 0.0298,0.170071 0.0895,0.225208 0.0596,0.05514 0.14966,0.08259 0.26959,0.08259 0.14154,0 0.24614,-0.03555 0.31435,-0.106601 0.0682,-0.07106 0.12348,-0.206834 0.16554,-0.407486 l 0.1579,-0.757124 z m 0.86373,0 -0.70692,1.250109 h 0.26451 l 0.14988,-0.276508 h 0.49554 l 0.0418,0.276508 h 0.24376 l -0.20302,-1.250109 z m 0.68217,0 0.0469,1.250109 h 0.26523 l 0.45515,-0.914297 0.028,0.914297 h 0.26013 l 0.60468,-1.250109 h -0.24922 l -0.41148,0.865544 -0.0291,-0.865544 h -0.27869 l -0.42895,0.87464 -0.0113,-0.87464 z m 2.03416,0 -0.70655,1.250109 h 0.26413 l 0.15026,-0.276508 h 0.49518 l 0.0418,0.276508 h 0.24377 l -0.20301,-1.250109 z m 1.24756,0 -0.0437,0.208836 h 0.36674 l -0.2183,1.041273 h 0.25759 l 0.21757,-1.041273 h 0.36127 l 0.0437,-0.208836 z m 1.13587,0 -0.26196,1.250109 h 0.25759 l 0.26087,-1.250109 z m 0.49443,0 -0.26085,1.250109 h 0.23175 l 0.19865,-1.044547 0.0451,1.044547 h 0.24413 l 0.49335,-1.036907 -0.24631,1.036907 h 0.23466 l 0.26159,-1.250109 h -0.37074 l -0.4264,0.875731 -0.0385,-0.875731 z m 1.45641,0 -0.13826,0.658163 c -0.0176,0.08526 -0.0276,0.137162 -0.0299,0.155353 -0.004,0.02729 -0.006,0.05237 -0.006,0.07568 0,0.111979 0.0388,0.203796 0.11606,0.275416 0.0773,0.07106 0.18883,0.106603 0.33435,0.106603 0.12164,0 0.22203,-0.02393 0.30161,-0.07168 0.0796,-0.04774 0.13905,-0.109747 0.17828,-0.185915 0.0392,-0.07617 0.0739,-0.185817 0.10405,-0.329628 l 0.14226,-0.683994 h -0.2565 l -0.14335,0.682903 c -0.0227,0.110274 -0.0452,0.188626 -0.0673,0.234668 -0.0221,0.04604 -0.0535,0.08075 -0.0939,0.104055 -0.0403,0.02331 -0.0916,0.03493 -0.15354,0.03493 -0.0688,0 -0.12115,-0.0162 -0.15753,-0.04802 -0.0358,-0.0324 -0.0538,-0.07315 -0.0538,-0.12261 0,-0.0125 0.002,-0.02582 0.004,-0.04002 l 0.0349,-0.167362 0.14152,-0.678536 z m 1.26611,0 -0.26195,1.250109 h 0.25759 l 0.10806,-0.517725 h 0.10514 c 0.0608,0 0.10324,0.0083 0.12771,0.02474 0.0398,0.02785 0.0776,0.08228 0.11278,0.162994 0.0648,0.149495 0.10806,0.259507 0.13026,0.329992 h 0.27613 c -0.0705,-0.178486 -0.13432,-0.316632 -0.19173,-0.4144 -0.029,-0.04831 -0.0598,-0.08723 -0.0928,-0.116788 0.12903,-0.01649 0.22522,-0.05929 0.28888,-0.128067 0.0637,-0.06935 0.0957,-0.157116 0.0957,-0.263411 0,-0.07447 -0.0165,-0.137986 -0.0495,-0.190281 -0.0324,-0.0523 -0.0753,-0.088 -0.1288,-0.107329 -0.0528,-0.01989 -0.12717,-0.02983 -0.22266,-0.02983 z m -15.5485,0.193556 c 0.0819,0 0.14906,0.02813 0.20192,0.08441 0.0528,0.0557 0.0793,0.132692 0.0793,0.23103 0,0.08811 -0.0209,0.178921 -0.0629,0.272142 -0.0415,0.09265 -0.0944,0.162067 -0.15863,0.208109 -0.0637,0.04548 -0.13004,0.06803 -0.19938,0.06803 -0.0853,0 -0.154,-0.02898 -0.20629,-0.08695 -0.0523,-0.05798 -0.0786,-0.129918 -0.0786,-0.215749 0,-0.139833 0.039,-0.268198 0.11751,-0.385293 0.079,-0.117096 0.18146,-0.175729 0.30708,-0.175729 z m -2.71015,0.01201 h 0.1841 c 0.0836,0 0.13729,0.0043 0.16117,0.01346 0.0244,0.0085 0.0433,0.02251 0.0564,0.04184 0.0136,0.01933 0.0204,0.0441 0.0204,0.07422 0,0.04491 -0.0131,0.08619 -0.0393,0.123701 -0.0262,0.03752 -0.0618,0.06481 -0.10733,0.08186 -0.0455,0.01705 -0.13629,0.02547 -0.27214,0.02547 h -0.0793 z m 1.16971,0.0033 h 0.28305 c 0.0756,0 0.12463,0.0067 0.14735,0.02037 0.037,0.02274 0.0557,0.05713 0.0557,0.102599 0,0.03865 -0.013,0.07536 -0.0386,0.110604 -0.0255,0.03524 -0.0611,0.06138 -0.10659,0.07786 -0.0449,0.01648 -0.1362,0.02474 -0.27433,0.02474 h -0.13643 z m 17.30178,0 h 0.28306 c 0.0756,0 0.12499,0.0067 0.14772,0.02037 0.037,0.02274 0.0553,0.05713 0.0553,0.102599 0,0.03865 -0.0126,0.07536 -0.0382,0.110604 -0.0256,0.03524 -0.0612,0.06138 -0.10661,0.07786 -0.0449,0.01648 -0.13656,0.02474 -0.27469,0.02474 h -0.13643 z m -8.4306,0.05384 0.0724,0.503172 h -0.37438 z m 2.71634,0 0.0724,0.503172 h -0.37401 z" /></g></svg>
